<svg xmlns="http://www.w3.org/2000/svg" xmlns:xlink="http://www.w3.org/1999/xlink" width="1200" zoomAndPan="magnify" viewBox="0 0 900 225" height="300" preserveAspectRatio="xMidYMid meet" version="1.0"><defs><g/><clipPath id="4eac2b4662"><path d="M 482.019531 30.808594 L 891.710938 30.808594 L 891.710938 214.488281 L 482.019531 214.488281 Z M 482.019531 30.808594 " clip-rule="nonzero"/></clipPath><clipPath id="8409c54d98"><path d="M 597.703125 30.808594 L 885.273438 30.808594 C 887.425781 30.808594 889.410156 31.960938 890.472656 33.828125 C 891.539062 35.695312 891.519531 37.992188 890.425781 39.84375 L 792.351562 205.453125 C 789.035156 211.050781 783.011719 214.488281 776.503906 214.488281 L 488.929688 214.488281 C 486.78125 214.488281 484.796875 213.332031 483.730469 211.464844 C 482.667969 209.597656 482.683594 207.300781 483.78125 205.453125 L 581.851562 39.84375 C 585.167969 34.242188 591.195312 30.808594 597.703125 30.808594 Z M 597.703125 30.808594 " clip-rule="nonzero"/></clipPath></defs><g clip-path="url(#4eac2b4662)"><g clip-path="url(#8409c54d98)"><path fill="#05386b" d="M 478.429688 30.808594 L 896.015625 30.808594 L 896.015625 214.488281 L 478.429688 214.488281 Z M 478.429688 30.808594 " fill-opacity="1" fill-rule="nonzero"/></g></g><g fill="#05386b" fill-opacity="1"><g transform="translate(13.441182, 183.54728)"><g><path d="M 10.828125 -108.28125 L 58 -108.28125 C 71.820312 -108.28125 82.546875 -105.003906 90.171875 -98.453125 C 97.804688 -91.910156 101.625 -82.601562 101.625 -70.53125 C 101.625 -57.851562 97.804688 -48.003906 90.171875 -40.984375 C 82.546875 -33.972656 71.820312 -30.46875 58 -30.46875 L 38.359375 -30.46875 L 38.359375 0 L 10.828125 0 Z M 38.359375 -86.625 L 38.359375 -52.125 L 56.609375 -52.125 C 62.691406 -52.125 67.382812 -53.617188 70.6875 -56.609375 C 73.988281 -59.597656 75.640625 -63.929688 75.640625 -69.609375 C 75.640625 -75.179688 73.988281 -79.410156 70.6875 -82.296875 C 67.382812 -85.179688 62.691406 -86.625 56.609375 -86.625 Z M 38.359375 -86.625 "/></g></g></g><g fill="#05386b" fill-opacity="1"><g transform="translate(109.807627, 183.54728)"><g><path d="M 95.59375 -86.625 L 38.359375 -86.625 L 38.359375 -65.125 L 90.03125 -65.125 L 90.03125 -43.46875 L 38.359375 -43.46875 L 38.359375 -21.65625 L 97.296875 -21.65625 L 97.296875 0 L 10.828125 0 L 10.828125 -108.28125 L 95.59375 -108.28125 Z M 95.59375 -86.625 "/></g></g></g><g fill="#05386b" fill-opacity="1"><g transform="translate(205.245996, 183.54728)"><g><path d="M 93.578125 -86.15625 L 60.953125 -86.15625 L 60.953125 0 L 33.40625 0 L 33.40625 -86.15625 L 1.078125 -86.15625 L 1.078125 -108.4375 L 93.578125 -108.4375 Z M 93.578125 -86.15625 "/></g></g></g><g fill="#05386b" fill-opacity="1"><g transform="translate(290.939347, 183.54728)"><g><path d="M 82.75 -19.953125 L 35.421875 -19.953125 L 27.53125 0 L -0.765625 0 L 45.9375 -108.28125 L 74.25 -108.28125 L 119.875 0 L 90.484375 0 Z M 74.71875 -40.84375 L 59.25 -80.90625 L 43.46875 -40.84375 Z M 74.71875 -40.84375 "/></g></g></g><g fill="#05386b" fill-opacity="1"><g transform="translate(401.227266, 183.54728)"><g><path d="M 81.359375 0 L 52.75 -42.53125 L 38.359375 -26.609375 L 38.359375 0 L 10.828125 0 L 10.828125 -108.28125 L 38.359375 -108.28125 L 38.359375 -61.40625 L 79.8125 -108.28125 L 111.6875 -108.28125 L 71.46875 -63.421875 L 114.3125 0 Z M 81.359375 0 "/></g></g></g><g fill="#edf5e1" fill-opacity="1"><g transform="translate(552.996433, 163.277446)"><g><path d="M 90.34375 -83.375 L 90.34375 -7.578125 C 90.34375 4.171875 86.191406 13.550781 77.890625 20.5625 C 69.585938 27.582031 58.679688 31.09375 45.171875 31.09375 C 31.347656 31.09375 18.972656 27.429688 8.046875 20.109375 L 17.328125 2.015625 C 25.367188 7.578125 33.976562 10.359375 43.15625 10.359375 C 49.550781 10.359375 54.578125 8.8125 58.234375 5.71875 C 61.898438 2.625 63.734375 -1.550781 63.734375 -6.8125 L 63.734375 -15.625 C 58.054688 -8.195312 50.0625 -4.484375 39.75 -4.484375 C 29.132812 -4.484375 20.5 -8.195312 13.84375 -15.625 C 7.1875 -23.050781 3.859375 -32.796875 3.859375 -44.859375 C 3.859375 -56.617188 7.109375 -66.128906 13.609375 -73.390625 C 20.109375 -80.660156 28.617188 -84.296875 39.140625 -84.296875 C 49.753906 -84.398438 57.953125 -80.691406 63.734375 -73.171875 L 63.734375 -83.375 Z M 46.40625 -23.828125 C 51.5625 -23.828125 55.738281 -25.707031 58.9375 -29.46875 C 62.132812 -33.226562 63.734375 -38.097656 63.734375 -44.078125 C 63.734375 -50.171875 62.132812 -55.097656 58.9375 -58.859375 C 55.738281 -62.617188 51.5625 -64.5 46.40625 -64.5 C 41.144531 -64.5 36.890625 -62.617188 33.640625 -58.859375 C 30.390625 -55.097656 28.765625 -50.171875 28.765625 -44.078125 C 28.765625 -38.097656 30.390625 -33.226562 33.640625 -29.46875 C 36.890625 -25.707031 41.144531 -23.828125 46.40625 -23.828125 Z M 46.40625 -23.828125 "/></g></g></g><g fill="#edf5e1" fill-opacity="1"><g transform="translate(644.25834, 163.277446)"><g><path d="M 49.34375 -84.296875 C 62.957031 -84.296875 73.941406 -80.40625 82.296875 -72.625 C 90.648438 -64.84375 94.828125 -54.554688 94.828125 -41.765625 C 94.828125 -28.972656 90.648438 -18.660156 82.296875 -10.828125 C 73.941406 -2.992188 62.957031 0.921875 49.34375 0.921875 C 35.625 0.921875 24.585938 -2.992188 16.234375 -10.828125 C 7.890625 -18.660156 3.71875 -28.972656 3.71875 -41.765625 C 3.71875 -54.554688 7.890625 -64.84375 16.234375 -72.625 C 24.585938 -80.40625 35.625 -84.296875 49.34375 -84.296875 Z M 49.34375 -63.109375 C 43.769531 -63.109375 39.253906 -61.097656 35.796875 -57.078125 C 32.347656 -53.054688 30.625 -47.847656 30.625 -41.453125 C 30.625 -34.953125 32.347656 -29.71875 35.796875 -25.75 C 39.253906 -21.78125 43.769531 -19.796875 49.34375 -19.796875 C 54.8125 -19.796875 59.269531 -21.78125 62.71875 -25.75 C 66.175781 -29.71875 67.90625 -34.953125 67.90625 -41.453125 C 67.90625 -47.847656 66.175781 -53.054688 62.71875 -57.078125 C 59.269531 -61.097656 54.8125 -63.109375 49.34375 -63.109375 Z M 49.34375 -63.109375 "/></g></g></g><g fill="#edf5e1" fill-opacity="1"><g transform="translate(733.973421, 163.277446)"><g><path d="M 58 0 L 30.625 0 L -0.765625 -83.375 L 26.765625 -83.375 L 44.703125 -24.4375 L 62.796875 -83.375 L 89.40625 -83.375 Z M 58 0 "/></g></g></g></svg>