<svg xmlns="http://www.w3.org/2000/svg" xmlns:xlink="http://www.w3.org/1999/xlink" width="1920" zoomAndPan="magnify" viewBox="0 0 1440 809.999993" height="1080" preserveAspectRatio="xMidYMid meet" version="1.0"><defs><clipPath id="bb2257c06d"><path d="M 169.480469 63.675781 L 1270.480469 63.675781 L 1270.480469 692 L 169.480469 692 Z M 169.480469 63.675781 " clip-rule="nonzero"/></clipPath></defs><path fill="#053856" d="M 403.75 583.539062 L 416.394531 583.539062 L 416.394531 570.851562 L 403.75 570.851562 L 403.75 583.539062 " fill-opacity="1" fill-rule="nonzero"/><path fill="#053856" d="M 403.75 621.730469 L 416.394531 621.730469 L 416.394531 609.085938 L 403.75 609.085938 L 403.75 621.730469 " fill-opacity="1" fill-rule="nonzero"/><path fill="#053856" d="M 403.75 602.632812 L 416.394531 602.632812 L 416.394531 589.945312 L 403.75 589.945312 L 403.75 602.632812 " fill-opacity="1" fill-rule="nonzero"/><path fill="#053856" d="M 403.75 564.398438 L 416.394531 564.398438 L 416.394531 551.753906 L 403.75 551.753906 L 403.75 564.398438 " fill-opacity="1" fill-rule="nonzero"/><path fill="#053856" d="M 403.75 659.964844 L 416.394531 659.964844 L 416.394531 647.277344 L 403.75 647.277344 L 403.75 659.964844 " fill-opacity="1" fill-rule="nonzero"/><path fill="#053856" d="M 403.75 698.242188 L 416.394531 698.242188 L 416.394531 685.597656 L 403.75 685.597656 L 403.75 698.242188 " fill-opacity="1" fill-rule="nonzero"/><path fill="#053856" d="M 403.75 679.0625 L 416.394531 679.0625 L 416.394531 666.417969 L 403.75 666.417969 L 403.75 679.0625 " fill-opacity="1" fill-rule="nonzero"/><path fill="#053856" d="M 416.394531 513.519531 L 403.75 513.519531 L 403.75 526.207031 L 416.394531 526.207031 L 416.394531 513.519531 " fill-opacity="1" fill-rule="nonzero"/><path fill="#053856" d="M 403.75 640.824219 L 416.394531 640.824219 L 416.394531 628.179688 L 403.75 628.179688 L 403.75 640.824219 " fill-opacity="1" fill-rule="nonzero"/><path fill="#053856" d="M 383.363281 659.964844 L 396.007812 659.964844 L 396.007812 647.277344 L 383.363281 647.277344 L 383.363281 659.964844 " fill-opacity="1" fill-rule="nonzero"/><path fill="#053856" d="M 383.363281 640.824219 L 396.007812 640.824219 L 396.007812 628.179688 L 383.363281 628.179688 L 383.363281 640.824219 " fill-opacity="1" fill-rule="nonzero"/><path fill="#053856" d="M 403.75 717.339844 L 416.394531 717.339844 L 416.394531 704.695312 L 403.75 704.695312 L 403.75 717.339844 " fill-opacity="1" fill-rule="nonzero"/><path fill="#053856" d="M 383.363281 679.0625 L 396.007812 679.0625 L 396.007812 666.417969 L 383.363281 666.417969 L 383.363281 679.0625 " fill-opacity="1" fill-rule="nonzero"/><path fill="#053856" d="M 383.363281 621.730469 L 396.007812 621.730469 L 396.007812 609.085938 L 383.363281 609.085938 L 383.363281 621.730469 " fill-opacity="1" fill-rule="nonzero"/><path fill="#053856" d="M 383.363281 602.632812 L 396.007812 602.632812 L 396.007812 589.945312 L 383.363281 589.945312 L 383.363281 602.632812 " fill-opacity="1" fill-rule="nonzero"/><path fill="#053856" d="M 383.363281 736.476562 L 396.007812 736.476562 L 396.007812 723.832031 L 383.363281 723.832031 L 383.363281 736.476562 " fill-opacity="1" fill-rule="nonzero"/><path fill="#053856" d="M 403.75 545.300781 L 416.394531 545.300781 L 416.394531 532.65625 L 403.75 532.65625 L 403.75 545.300781 " fill-opacity="1" fill-rule="nonzero"/><path fill="#053856" d="M 383.363281 717.339844 L 396.007812 717.339844 L 396.007812 704.695312 L 383.363281 704.695312 L 383.363281 717.339844 " fill-opacity="1" fill-rule="nonzero"/><path fill="#053856" d="M 383.363281 698.242188 L 396.007812 698.242188 L 396.007812 685.597656 L 383.363281 685.597656 L 383.363281 698.242188 " fill-opacity="1" fill-rule="nonzero"/><path fill="#053856" d="M 383.363281 745.207031 L 396.007812 745.207031 L 396.007812 742.929688 L 383.363281 742.929688 L 383.363281 745.207031 " fill-opacity="1" fill-rule="nonzero"/><path fill="#053856" d="M 657.246094 391.242188 L 669.375 391.242188 L 669.375 379.15625 L 657.246094 379.15625 L 657.246094 391.242188 " fill-opacity="1" fill-rule="nonzero"/><path fill="#053856" d="M 703.050781 267.332031 C 702.363281 266.859375 701.332031 266 700.945312 264.625 C 700.558594 265.871094 699.738281 266.6875 699.050781 267.160156 L 699.050781 283.933594 L 703.050781 283.933594 L 703.050781 267.332031 " fill-opacity="1" fill-rule="nonzero"/><path fill="#053856" d="M 403.75 736.476562 L 416.394531 736.476562 L 416.394531 723.832031 L 403.75 723.832031 L 403.75 736.476562 " fill-opacity="1" fill-rule="nonzero"/><path fill="#053856" d="M 658.925781 316.277344 L 659.570312 315.203125 L 659.570312 320.40625 L 659.3125 320.40625 L 659.3125 320.921875 L 664.300781 320.921875 L 664.300781 320.40625 L 664.042969 320.40625 L 664.042969 315.203125 L 664.6875 316.277344 L 664.6875 315.71875 L 661.804688 309.699219 L 658.925781 315.71875 L 658.925781 316.277344 " fill-opacity="1" fill-rule="nonzero"/><path fill="#053856" d="M 664.042969 267.160156 C 663.355469 266.6875 662.492188 265.871094 662.148438 264.667969 C 661.804688 266.042969 660.730469 266.945312 660.042969 267.375 L 660.042969 283.933594 L 664.042969 283.933594 L 664.042969 267.160156 " fill-opacity="1" fill-rule="nonzero"/><path fill="#053856" d="M 693.847656 489.648438 L 705.933594 489.648438 L 705.933594 477.5625 L 693.847656 477.5625 L 693.847656 489.648438 " fill-opacity="1" fill-rule="nonzero"/><path fill="#053856" d="M 620.6875 489.648438 L 632.816406 489.648438 L 632.816406 477.5625 L 620.6875 477.5625 L 620.6875 489.648438 " fill-opacity="1" fill-rule="nonzero"/><path fill="#053856" d="M 705.933594 444.746094 L 693.847656 444.746094 L 693.847656 456.875 L 705.933594 456.875 L 705.933594 444.746094 " fill-opacity="1" fill-rule="nonzero"/><path fill="#053856" d="M 708.296875 267.160156 C 707.652344 266.644531 706.792969 265.828125 706.492188 264.625 C 706.105469 265.828125 705.289062 266.644531 704.601562 267.160156 L 704.601562 283.933594 L 708.296875 283.933594 L 708.296875 267.160156 " fill-opacity="1" fill-rule="nonzero"/><path fill="#053856" d="M 693.847656 391.242188 L 705.933594 391.242188 L 705.933594 379.15625 L 693.847656 379.15625 L 693.847656 391.242188 " fill-opacity="1" fill-rule="nonzero"/><path fill="#053856" d="M 705.933594 411.929688 L 693.847656 411.929688 L 693.847656 424.058594 L 705.933594 424.058594 L 705.933594 411.929688 " fill-opacity="1" fill-rule="nonzero"/><path fill="#053856" d="M 572.5625 575.023438 L 588.433594 575.023438 L 588.433594 559.195312 L 572.5625 559.195312 L 572.5625 575.023438 " fill-opacity="1" fill-rule="nonzero"/><path fill="#053856" d="M 447.621094 457.777344 C 447.277344 457.261719 446.804688 456.746094 446.15625 456.445312 C 446.113281 456.402344 446.070312 456.402344 446.027344 456.402344 C 446.414062 456.789062 446.804688 457.132812 447.148438 457.519531 C 447.449219 457.863281 447.707031 458.207031 447.964844 458.507812 C 447.878906 458.25 447.75 458.035156 447.621094 457.777344 " fill-opacity="1" fill-rule="nonzero"/><path fill="#053856" d="M 588.433594 507.238281 L 572.5625 507.238281 L 572.5625 523.066406 L 588.433594 523.066406 L 588.433594 507.238281 " fill-opacity="1" fill-rule="nonzero"/><path fill="#053856" d="M 403.75 745.207031 L 416.394531 745.207031 L 416.394531 742.929688 L 403.75 742.929688 L 403.75 745.207031 " fill-opacity="1" fill-rule="nonzero"/><path fill="#053856" d="M 572.5625 678.933594 L 588.433594 678.933594 L 588.433594 663.0625 L 572.5625 663.0625 L 572.5625 678.933594 " fill-opacity="1" fill-rule="nonzero"/><path fill="#053856" d="M 572.5625 626.976562 L 588.433594 626.976562 L 588.433594 611.148438 L 572.5625 611.148438 L 572.5625 626.976562 " fill-opacity="1" fill-rule="nonzero"/><path fill="#053856" d="M 632.816406 379.15625 L 620.6875 379.15625 L 620.6875 391.242188 L 632.816406 391.242188 L 632.816406 379.15625 " fill-opacity="1" fill-rule="nonzero"/><path fill="#053856" d="M 620.6875 424.058594 L 632.816406 424.058594 L 632.816406 411.929688 L 620.6875 411.929688 L 620.6875 424.058594 " fill-opacity="1" fill-rule="nonzero"/><path fill="#053856" d="M 620.6875 456.875 L 632.816406 456.875 L 632.816406 444.746094 L 620.6875 444.746094 L 620.6875 456.875 " fill-opacity="1" fill-rule="nonzero"/><path fill="#053856" d="M 698.535156 316.277344 L 699.179688 315.203125 L 699.179688 320.40625 L 698.921875 320.40625 L 698.921875 320.921875 L 703.867188 320.921875 L 703.867188 320.40625 L 703.652344 320.40625 L 703.652344 315.203125 L 704.253906 316.277344 L 704.253906 315.71875 L 701.417969 309.699219 L 698.535156 315.71875 L 698.535156 316.277344 " fill-opacity="1" fill-rule="nonzero"/><path fill="#053856" d="M 219.371094 634.589844 L 248.316406 634.589844 L 248.316406 630.71875 L 219.371094 630.71875 L 219.371094 634.589844 " fill-opacity="1" fill-rule="nonzero"/><path fill="#053856" d="M 219.371094 645.601562 L 248.316406 645.601562 L 248.316406 641.730469 L 219.371094 641.730469 L 219.371094 645.601562 " fill-opacity="1" fill-rule="nonzero"/><path fill="#053856" d="M 219.371094 623.578125 L 248.316406 623.578125 L 248.316406 619.707031 L 219.371094 619.707031 L 219.371094 623.578125 " fill-opacity="1" fill-rule="nonzero"/><path fill="#053856" d="M 219.371094 612.570312 L 248.316406 612.570312 L 248.316406 608.65625 L 219.371094 608.65625 L 219.371094 612.570312 " fill-opacity="1" fill-rule="nonzero"/><path fill="#053856" d="M 219.371094 656.652344 L 248.316406 656.652344 L 248.316406 652.738281 L 219.371094 652.738281 L 219.371094 656.652344 " fill-opacity="1" fill-rule="nonzero"/><path fill="#053856" d="M 219.371094 689.683594 L 248.316406 689.683594 L 248.316406 685.8125 L 219.371094 685.8125 L 219.371094 689.683594 " fill-opacity="1" fill-rule="nonzero"/><path fill="#053856" d="M 219.371094 601.558594 L 248.316406 601.558594 L 248.316406 597.644531 L 219.371094 597.644531 L 219.371094 601.558594 " fill-opacity="1" fill-rule="nonzero"/><path fill="#053856" d="M 219.371094 678.671875 L 248.316406 678.671875 L 248.316406 674.761719 L 219.371094 674.761719 L 219.371094 678.671875 " fill-opacity="1" fill-rule="nonzero"/><path fill="#053856" d="M 219.371094 667.664062 L 248.316406 667.664062 L 248.316406 663.75 L 219.371094 663.75 L 219.371094 667.664062 " fill-opacity="1" fill-rule="nonzero"/><path fill="#053856" d="M 198.296875 711.617188 L 208.53125 711.617188 L 208.53125 701.382812 L 198.296875 701.382812 L 198.296875 711.617188 " fill-opacity="1" fill-rule="nonzero"/><path fill="#053856" d="M 198.296875 639.707031 L 208.53125 639.707031 L 208.53125 629.472656 L 198.296875 629.472656 L 198.296875 639.707031 " fill-opacity="1" fill-rule="nonzero"/><path fill="#053856" d="M 208.53125 581.515625 L 198.296875 581.515625 L 198.296875 591.753906 L 208.53125 591.753906 L 208.53125 581.515625 " fill-opacity="1" fill-rule="nonzero"/><path fill="#053856" d="M 198.296875 615.75 L 208.53125 615.75 L 208.53125 605.515625 L 198.296875 605.515625 L 198.296875 615.75 " fill-opacity="1" fill-rule="nonzero"/><path fill="#053856" d="M 198.296875 663.664062 L 208.53125 663.664062 L 208.53125 653.425781 L 198.296875 653.425781 L 198.296875 663.664062 " fill-opacity="1" fill-rule="nonzero"/><path fill="#053856" d="M 219.371094 590.503906 L 248.316406 590.503906 L 248.316406 586.632812 L 219.371094 586.632812 L 219.371094 590.503906 " fill-opacity="1" fill-rule="nonzero"/><path fill="#053856" d="M 198.296875 687.664062 L 208.53125 687.664062 L 208.53125 677.425781 L 198.296875 677.425781 L 198.296875 687.664062 " fill-opacity="1" fill-rule="nonzero"/><path fill="#053856" d="M 248.316406 564.613281 L 219.371094 564.613281 L 219.371094 568.484375 L 248.316406 568.484375 L 248.316406 564.613281 " fill-opacity="1" fill-rule="nonzero"/><path fill="#053856" d="M 219.371094 579.496094 L 248.316406 579.496094 L 248.316406 575.625 L 219.371094 575.625 L 219.371094 579.496094 " fill-opacity="1" fill-rule="nonzero"/><path fill="#053856" d="M 219.371094 700.695312 L 248.316406 700.695312 L 248.316406 696.824219 L 219.371094 696.824219 L 219.371094 700.695312 " fill-opacity="1" fill-rule="nonzero"/><path fill="#053856" d="M 362.976562 745.207031 L 375.621094 745.207031 L 375.621094 742.929688 L 362.976562 742.929688 L 362.976562 745.207031 " fill-opacity="1" fill-rule="nonzero"/><path fill="#053856" d="M 362.976562 736.476562 L 375.621094 736.476562 L 375.621094 723.832031 L 362.976562 723.832031 L 362.976562 736.476562 " fill-opacity="1" fill-rule="nonzero"/><path fill="#053856" d="M 362.976562 717.339844 L 375.621094 717.339844 L 375.621094 704.695312 L 362.976562 704.695312 L 362.976562 717.339844 " fill-opacity="1" fill-rule="nonzero"/><path fill="#053856" d="M 362.976562 698.242188 L 375.621094 698.242188 L 375.621094 685.597656 L 362.976562 685.597656 L 362.976562 698.242188 " fill-opacity="1" fill-rule="nonzero"/><path fill="#053856" d="M 362.976562 679.0625 L 375.621094 679.0625 L 375.621094 666.417969 L 362.976562 666.417969 L 362.976562 679.0625 " fill-opacity="1" fill-rule="nonzero"/><path fill="#053856" d="M 383.363281 583.539062 L 396.007812 583.539062 L 396.007812 570.851562 L 383.363281 570.851562 L 383.363281 583.539062 " fill-opacity="1" fill-rule="nonzero"/><path fill="#053856" d="M 396.007812 513.519531 L 383.363281 513.519531 L 383.363281 526.207031 L 396.007812 526.207031 L 396.007812 513.519531 " fill-opacity="1" fill-rule="nonzero"/><path fill="#053856" d="M 383.363281 564.398438 L 396.007812 564.398438 L 396.007812 551.753906 L 383.363281 551.753906 L 383.363281 564.398438 " fill-opacity="1" fill-rule="nonzero"/><path fill="#053856" d="M 362.976562 659.964844 L 375.621094 659.964844 L 375.621094 647.277344 L 362.976562 647.277344 L 362.976562 659.964844 " fill-opacity="1" fill-rule="nonzero"/><path fill="#053856" d="M 383.363281 545.300781 L 396.007812 545.300781 L 396.007812 532.65625 L 383.363281 532.65625 L 383.363281 545.300781 " fill-opacity="1" fill-rule="nonzero"/><path fill="#053856" d="M 219.371094 711.703125 L 248.316406 711.703125 L 248.316406 707.832031 L 219.371094 707.832031 L 219.371094 711.703125 " fill-opacity="1" fill-rule="nonzero"/><path fill="#053856" d="M 375.621094 513.519531 L 362.976562 513.519531 L 362.976562 526.207031 L 375.621094 526.207031 L 375.621094 513.519531 " fill-opacity="1" fill-rule="nonzero"/><path fill="#053856" d="M 362.976562 545.300781 L 375.621094 545.300781 L 375.621094 532.65625 L 362.976562 532.65625 L 362.976562 545.300781 " fill-opacity="1" fill-rule="nonzero"/><path fill="#053856" d="M 219.371094 744.777344 L 248.316406 744.777344 L 248.316406 740.863281 L 219.371094 740.863281 L 219.371094 744.777344 " fill-opacity="1" fill-rule="nonzero"/><path fill="#053856" d="M 219.371094 722.714844 L 248.316406 722.714844 L 248.316406 718.84375 L 219.371094 718.84375 L 219.371094 722.714844 " fill-opacity="1" fill-rule="nonzero"/><path fill="#053856" d="M 362.976562 583.539062 L 375.621094 583.539062 L 375.621094 570.851562 L 362.976562 570.851562 L 362.976562 583.539062 " fill-opacity="1" fill-rule="nonzero"/><path fill="#053856" d="M 362.976562 621.730469 L 375.621094 621.730469 L 375.621094 609.085938 L 362.976562 609.085938 L 362.976562 621.730469 " fill-opacity="1" fill-rule="nonzero"/><path fill="#053856" d="M 362.976562 602.632812 L 375.621094 602.632812 L 375.621094 589.945312 L 362.976562 589.945312 L 362.976562 602.632812 " fill-opacity="1" fill-rule="nonzero"/><path fill="#053856" d="M 362.976562 564.398438 L 375.621094 564.398438 L 375.621094 551.753906 L 362.976562 551.753906 L 362.976562 564.398438 " fill-opacity="1" fill-rule="nonzero"/><path fill="#053856" d="M 362.976562 640.824219 L 375.621094 640.824219 L 375.621094 628.179688 L 362.976562 628.179688 L 362.976562 640.824219 " fill-opacity="1" fill-rule="nonzero"/><path fill="#053856" d="M 219.371094 733.769531 L 248.316406 733.769531 L 248.316406 729.855469 L 219.371094 729.855469 L 219.371094 733.769531 " fill-opacity="1" fill-rule="nonzero"/><path fill="#053856" d="M 1168.195312 686.84375 L 1181.054688 686.84375 L 1181.054688 673.941406 L 1168.195312 673.941406 L 1168.195312 686.84375 " fill-opacity="1" fill-rule="nonzero"/><path fill="#053856" d="M 1168.195312 667.40625 L 1181.054688 667.40625 L 1181.054688 654.503906 L 1168.195312 654.503906 L 1168.195312 667.40625 " fill-opacity="1" fill-rule="nonzero"/><path fill="#053856" d="M 1168.195312 647.921875 L 1181.054688 647.921875 L 1181.054688 635.0625 L 1168.195312 635.0625 L 1168.195312 647.921875 " fill-opacity="1" fill-rule="nonzero"/><path fill="#053856" d="M 1188.925781 628.480469 L 1201.785156 628.480469 L 1201.785156 615.621094 L 1188.925781 615.621094 L 1188.925781 628.480469 " fill-opacity="1" fill-rule="nonzero"/><path fill="#053856" d="M 1201.785156 576.742188 L 1188.925781 576.742188 L 1188.925781 589.601562 L 1201.785156 589.601562 L 1201.785156 576.742188 " fill-opacity="1" fill-rule="nonzero"/><path fill="#053856" d="M 1188.925781 609.042969 L 1201.785156 609.042969 L 1201.785156 596.183594 L 1188.925781 596.183594 L 1188.925781 609.042969 " fill-opacity="1" fill-rule="nonzero"/><path fill="#053856" d="M 1147.464844 667.40625 L 1160.324219 667.40625 L 1160.324219 654.503906 L 1147.464844 654.503906 L 1147.464844 667.40625 " fill-opacity="1" fill-rule="nonzero"/><path fill="#053856" d="M 1188.925781 647.921875 L 1201.785156 647.921875 L 1201.785156 635.0625 L 1188.925781 635.0625 L 1188.925781 647.921875 " fill-opacity="1" fill-rule="nonzero"/><path fill="#053856" d="M 1168.195312 628.480469 L 1181.054688 628.480469 L 1181.054688 615.621094 L 1168.195312 615.621094 L 1168.195312 628.480469 " fill-opacity="1" fill-rule="nonzero"/><path fill="#053856" d="M 1147.464844 647.921875 L 1160.324219 647.921875 L 1160.324219 635.0625 L 1147.464844 635.0625 L 1147.464844 647.921875 " fill-opacity="1" fill-rule="nonzero"/><path fill="#053856" d="M 1168.195312 609.042969 L 1181.054688 609.042969 L 1181.054688 596.183594 L 1168.195312 596.183594 L 1168.195312 609.042969 " fill-opacity="1" fill-rule="nonzero"/><path fill="#053856" d="M 1181.054688 576.742188 L 1168.195312 576.742188 L 1168.195312 589.601562 L 1181.054688 589.601562 L 1181.054688 576.742188 " fill-opacity="1" fill-rule="nonzero"/><g clip-path="url(#bb2257c06d)"><path fill="#053856" d="M 1064.113281 484.746094 L 1084.070312 462.636719 L 1084.070312 399.113281 L 1085.574219 399.113281 L 1174.820312 409.179688 C 1175.59375 407.542969 1177.226562 406.382812 1179.164062 406.382812 C 1181.785156 406.382812 1183.894531 408.488281 1183.894531 411.113281 C 1183.894531 413.695312 1181.785156 415.84375 1179.164062 415.84375 C 1176.582031 415.84375 1174.433594 413.695312 1174.433594 411.113281 C 1174.433594 410.855469 1174.476562 410.597656 1174.519531 410.339844 L 1085.574219 400.316406 L 1085.574219 401.910156 L 1168.324219 428.101562 L 1168.324219 438.210938 L 1085.574219 404.835938 L 1085.574219 462.636719 L 1105.574219 484.746094 L 1105.574219 486.207031 L 1064.113281 486.207031 Z M 1188.582031 422.640625 L 1169.746094 422.640625 L 1174.390625 416.960938 C 1175.679688 418.039062 1177.355469 418.726562 1179.164062 418.726562 C 1181.011719 418.726562 1182.648438 418.039062 1183.980469 416.960938 Z M 1188.582031 444.960938 L 1169.746094 444.960938 L 1169.746094 423.328125 L 1188.582031 423.328125 Z M 1232.195312 608.828125 C 1232.023438 608.226562 1231.890625 607.578125 1231.890625 606.890625 C 1231.890625 602.976562 1235.074219 599.792969 1238.988281 599.792969 C 1239.289062 599.792969 1239.589844 599.792969 1239.890625 599.835938 C 1241.183594 595.191406 1245.441406 591.796875 1250.472656 591.796875 C 1256.578125 591.796875 1261.527344 596.742188 1261.527344 602.847656 C 1261.527344 608.957031 1256.578125 613.902344 1250.472656 613.902344 C 1248.105469 613.902344 1245.914062 613.128906 1244.0625 611.835938 C 1242.773438 613.128906 1241.011719 613.988281 1238.988281 613.988281 C 1238 613.988281 1237.054688 613.773438 1236.148438 613.386719 C 1235.71875 614.761719 1234.386719 615.792969 1232.839844 615.792969 C 1230.902344 615.792969 1229.355469 614.203125 1229.355469 612.265625 C 1229.355469 610.589844 1230.558594 609.171875 1232.195312 608.828125 Z M 1252.578125 626.375 C 1251.460938 626.375 1250.429688 625.988281 1249.613281 625.386719 C 1249.011719 625.988281 1248.148438 626.375 1247.246094 626.375 C 1246.773438 626.375 1246.300781 626.289062 1245.914062 626.117188 C 1245.699219 626.761719 1245.097656 627.234375 1244.363281 627.234375 C 1243.460938 627.234375 1242.730469 626.503906 1242.730469 625.601562 C 1242.730469 624.785156 1243.289062 624.136719 1244.0625 624.007812 C 1243.976562 623.707031 1243.933594 623.40625 1243.933594 623.0625 C 1243.933594 621.257812 1245.398438 619.792969 1247.246094 619.792969 C 1247.375 619.792969 1247.503906 619.792969 1247.632812 619.835938 C 1248.234375 617.644531 1250.214844 616.050781 1252.578125 616.050781 C 1255.417969 616.050781 1257.742188 618.375 1257.742188 621.214844 C 1257.742188 624.050781 1255.417969 626.375 1252.578125 626.375 Z M 215.757812 575.625 L 215.757812 551.753906 L 248.316406 551.753906 L 248.316406 529.085938 L 261.949219 529.085938 L 261.949219 506.378906 L 271.023438 506.378906 L 271.023438 483.714844 L 276.703125 483.714844 L 276.703125 439.714844 L 285.175781 439.714844 L 285.175781 483.714844 L 290.851562 483.714844 L 290.851562 506.378906 L 299.925781 506.378906 L 299.925781 529.085938 L 313.558594 529.085938 L 313.558594 551.753906 L 339.496094 551.753906 L 339.496094 602.632812 L 354.890625 602.632812 L 354.890625 500.875 L 424.480469 500.875 L 424.480469 691.230469 L 437.296875 691.230469 C 437.425781 689.210938 437.554688 687.148438 437.597656 685.167969 C 437.683594 682.285156 437.683594 679.449219 437.597656 676.652344 C 437.46875 673.855469 437.253906 671.105469 436.910156 668.4375 C 436.566406 665.726562 436.09375 663.105469 435.40625 660.609375 L 435.40625 660.566406 C 435.234375 658.804688 435.148438 657.039062 435.148438 655.277344 C 435.148438 653.554688 435.191406 651.835938 435.320312 650.160156 C 435.40625 648.4375 435.621094 646.761719 435.921875 645.167969 C 436.222656 643.578125 436.652344 642.03125 437.296875 640.566406 L 437.296875 640.480469 L 438.761719 613.945312 C 438.070312 613.171875 437.46875 612.265625 437.039062 611.320312 C 436.609375 610.332031 436.308594 609.300781 436.09375 608.269531 C 435.664062 606.203125 435.664062 604.097656 435.835938 602.074219 C 436.007812 600.011719 436.394531 597.988281 436.910156 596.054688 C 437.382812 594.160156 437.984375 592.3125 438.71875 590.546875 C 438.417969 590.417969 438.113281 590.289062 437.855469 590.074219 C 437.554688 589.859375 437.339844 589.558594 437.125 589.257812 C 436.738281 588.613281 436.523438 587.882812 436.4375 587.191406 C 436.308594 586.460938 436.308594 585.730469 436.351562 585.042969 C 436.394531 584.355469 436.523438 583.710938 436.652344 583.019531 C 435.75 582.375 435.019531 581.472656 434.589844 580.441406 C 434.15625 579.410156 433.984375 578.289062 433.941406 577.171875 C 433.941406 576.054688 434.070312 574.980469 434.289062 573.945312 C 434.503906 572.871094 434.804688 571.839844 435.148438 570.851562 C 435.835938 568.828125 436.695312 566.9375 437.640625 565.128906 C 438.546875 563.410156 439.492188 561.773438 440.566406 560.226562 C 438.804688 560.613281 436.910156 560.3125 435.40625 559.453125 C 433.769531 558.550781 432.566406 557 432.007812 555.28125 C 431.449219 553.558594 431.578125 551.667969 432.308594 550.078125 C 433.082031 548.527344 433.898438 547.023438 434.71875 545.558594 C 436.351562 542.59375 438.070312 539.839844 439.835938 537.214844 C 440.09375 536.828125 440.351562 536.441406 440.609375 536.054688 C 440.265625 535.839844 439.921875 535.582031 439.707031 535.238281 C 439.40625 534.851562 439.234375 534.421875 439.0625 533.992188 C 438.847656 533.171875 438.71875 532.3125 438.761719 531.453125 C 438.242188 531.410156 437.769531 531.28125 437.339844 531.023438 C 436.867188 530.722656 436.523438 530.25 436.351562 529.734375 C 436.222656 529.214844 436.222656 528.65625 436.265625 528.140625 C 436.308594 527.667969 436.4375 527.238281 436.609375 526.808594 C 436.136719 526.808594 435.621094 526.765625 435.191406 526.636719 C 434.632812 526.464844 434.15625 526.121094 433.855469 525.648438 C 433.511719 525.21875 433.339844 524.65625 433.253906 524.140625 C 433.210938 523.625 433.210938 523.152344 433.253906 522.636719 C 432.609375 522.335938 432.050781 521.90625 431.664062 521.261719 C 431.277344 520.613281 431.105469 519.882812 431.0625 519.152344 C 431.0625 518.421875 431.148438 517.734375 431.277344 517.003906 C 431.40625 516.527344 431.578125 516.097656 431.75 515.667969 C 430.804688 514.25 430.761719 512.269531 431.40625 510.636719 C 432.265625 508.617188 433.898438 507.066406 435.492188 505.605469 C 433.941406 505.476562 432.867188 503.925781 432.351562 502.464844 C 431.835938 500.960938 431.578125 499.28125 430.632812 498.035156 C 429.683594 496.832031 428.136719 496.1875 426.890625 495.238281 C 424.566406 493.5625 423.105469 490.894531 422.503906 488.058594 C 421.945312 485.261719 422.160156 482.335938 422.761719 479.542969 C 424.007812 473.5625 426.976562 467.972656 431.0625 463.457031 C 430.117188 458.941406 429.253906 454.46875 428.523438 450.164062 C 427.320312 443.15625 426.375 436.402344 425.511719 430.082031 C 424.695312 423.714844 423.964844 417.738281 423.40625 412.101562 C 421.253906 412.058594 419.535156 410.855469 419.535156 409.308594 L 419.535156 406.726562 L 419.492188 406.726562 L 419.492188 406.683594 C 419.449219 403.542969 419.449219 399.5 419.449219 394.8125 C 419.363281 394.8125 419.320312 394.8125 419.277344 394.8125 C 419.0625 394.855469 418.804688 394.769531 418.632812 394.640625 C 418.460938 394.46875 418.375 394.253906 418.375 394.039062 C 418.375 393.222656 418.375 392.449219 418.375 391.671875 C 418.375 390.597656 418.375 389.523438 418.375 388.40625 C 418.375 387.328125 418.375 386.253906 418.375 385.136719 C 418.375 384.320312 418.375 383.457031 418.375 382.597656 C 418.375 382.167969 418.675781 381.867188 419.0625 381.78125 C 419.191406 381.78125 419.277344 381.78125 419.40625 381.78125 C 419.40625 379.761719 419.40625 377.738281 419.40625 375.632812 L 419.40625 375.589844 C 418.246094 375.503906 417.339844 374.554688 417.339844 373.394531 L 417.339844 369.953125 C 415.75 370.039062 414.160156 370.125 412.566406 370.253906 C 412.566406 369.394531 412.566406 368.535156 412.566406 367.675781 C 412.566406 366.382812 412.566406 365.050781 412.566406 363.71875 C 414.460938 363.546875 416.351562 363.460938 418.246094 363.375 C 418.203125 361.695312 418.203125 359.890625 418.203125 357.953125 L 418.203125 357.824219 L 418.246094 357.824219 C 417.382812 356.878906 413.125 351.546875 418.632812 343.246094 C 421.640625 338.6875 424.050781 335.71875 425.855469 332.664062 C 425.855469 332.664062 437.984375 350.816406 429.125 357.867188 L 429.125 357.953125 C 429.082031 359.71875 429.082031 361.523438 429.039062 363.375 C 430.976562 363.460938 432.867188 363.546875 434.804688 363.71875 C 434.804688 365.050781 434.804688 366.382812 434.804688 367.675781 C 434.804688 368.535156 434.804688 369.394531 434.804688 370.253906 C 433.210938 370.125 431.621094 370.039062 430.027344 369.953125 L 430.027344 373.394531 C 430.027344 374.640625 429.039062 375.632812 427.835938 375.632812 C 427.835938 377.179688 427.835938 378.855469 427.835938 380.492188 C 428.4375 380.707031 428.996094 381.050781 429.425781 381.480469 C 429.941406 381.910156 430.375 382.382812 430.71875 382.898438 C 430.847656 383.070312 430.933594 383.285156 431.0625 383.457031 C 431.0625 383.5 431.0625 383.5 431.0625 383.5 C 431.105469 383.585938 431.148438 383.671875 431.191406 383.757812 C 431.621094 384.535156 431.921875 385.265625 432.136719 386.039062 C 432.394531 387.027344 432.566406 388.019531 432.609375 388.921875 C 432.695312 389.824219 432.695312 390.640625 432.695312 391.371094 C 432.652344 392.621094 432.523438 393.609375 432.4375 394.339844 C 432.394531 394.8125 432.394531 395.285156 432.394531 395.757812 C 432.78125 402.210938 433.296875 408.53125 434.027344 414.8125 C 434.761719 421.046875 435.707031 427.199219 436.910156 433.175781 C 438.15625 439.15625 439.664062 445.003906 441.769531 450.554688 C 442.113281 451.457031 442.457031 452.316406 442.847656 453.21875 L 442.890625 453.132812 C 443.921875 454.164062 444.910156 455.199219 445.898438 456.273438 C 445.984375 456.316406 446.113281 456.316406 446.199219 456.359375 C 446.847656 456.703125 447.320312 457.21875 447.664062 457.734375 C 447.835938 458.035156 447.964844 458.335938 448.09375 458.640625 C 448.996094 459.671875 449.898438 460.703125 450.757812 461.820312 C 456.824219 469.304688 461.941406 477.5625 466.027344 486.292969 C 466.457031 486.808594 466.886719 487.28125 467.359375 487.714844 C 467.359375 487.714844 467.402344 487.757812 467.402344 487.757812 L 467.921875 479.671875 C 466.800781 477.992188 465.941406 476.101562 465.339844 474.078125 C 465.339844 473.992188 465.296875 473.90625 465.296875 473.820312 C 461.597656 473.21875 461.210938 470.59375 461.210938 469.949219 C 460.910156 469.992188 460.652344 470.035156 460.351562 470.035156 C 460.050781 470.035156 459.707031 469.992188 459.40625 469.90625 C 459.101562 469.777344 458.84375 469.605469 458.671875 469.347656 C 458.457031 469.046875 458.371094 468.746094 458.328125 468.445312 C 458.328125 468.316406 458.328125 468.144531 458.328125 468.015625 L 458.371094 467.542969 C 458.371094 467.285156 458.371094 466.984375 458.414062 466.722656 C 458.457031 466.121094 458.542969 465.5625 458.671875 465.003906 C 458.800781 464.316406 458.972656 463.671875 459.144531 462.984375 C 458.800781 462.164062 458.457031 461.304688 458.242188 460.402344 C 457.898438 458.941406 457.8125 457.304688 457.984375 455.757812 C 458.027344 455.585938 458.070312 455.414062 458.113281 455.242188 L 445.769531 451.199219 C 445.683594 451.15625 445.597656 451.070312 445.640625 450.984375 C 445.640625 450.898438 445.726562 450.8125 445.8125 450.8125 L 459.835938 450.382812 C 460.523438 449.21875 461.339844 448.058594 462.328125 447.070312 C 462.5 446.898438 462.671875 446.769531 462.84375 446.640625 L 454.371094 433.738281 C 454.285156 433.652344 454.328125 433.476562 454.414062 433.390625 C 454.5 433.304688 454.628906 433.304688 454.714844 433.390625 L 469.039062 442.769531 C 469.769531 442.46875 470.5 442.210938 471.273438 441.996094 C 471.964844 441.820312 472.695312 441.691406 473.425781 441.5625 L 477.082031 423.972656 C 477.125 423.84375 477.253906 423.714844 477.382812 423.714844 C 477.511719 423.714844 477.597656 423.84375 477.640625 423.972656 L 481.296875 441.605469 C 481.554688 441.648438 481.8125 441.648438 482.070312 441.734375 C 483.273438 441.949219 484.480469 442.382812 485.640625 442.8125 L 500.003906 433.390625 C 500.089844 433.304688 500.21875 433.304688 500.304688 433.390625 C 500.390625 433.476562 500.433594 433.652344 500.347656 433.738281 L 491.832031 446.683594 C 491.917969 446.769531 491.960938 446.8125 492.046875 446.855469 C 493.125 447.886719 494.027344 449.089844 494.800781 450.382812 L 508.949219 450.8125 C 509.082031 450.8125 509.125 450.898438 509.167969 450.984375 C 509.167969 451.070312 509.125 451.15625 509.039062 451.199219 L 496.519531 455.328125 C 496.609375 456.015625 496.695312 456.660156 496.695312 457.304688 C 496.652344 457.304688 496.695312 457.519531 496.652344 457.863281 C 496.652344 458.25 496.609375 458.769531 496.519531 459.457031 C 496.390625 460.1875 496.21875 461.046875 495.832031 462.035156 C 495.746094 462.335938 495.574219 462.679688 495.445312 462.984375 C 495.488281 463.199219 495.53125 463.371094 495.617188 463.542969 C 495.960938 464.960938 496.089844 466.035156 496.175781 466.765625 C 496.21875 467.285156 496.21875 467.628906 496.21875 467.800781 C 496.21875 467.84375 496.21875 467.929688 496.21875 467.929688 C 496.261719 468.144531 496.21875 468.402344 496.175781 468.660156 C 496.175781 468.703125 496.175781 468.746094 496.132812 468.789062 C 496.132812 468.832031 496.132812 468.875 496.132812 468.917969 C 496.003906 469.21875 495.789062 469.476562 495.488281 469.648438 C 495.273438 469.734375 495.101562 469.820312 494.886719 469.863281 C 495.316406 472.402344 496.824219 483.585938 492.824219 494.207031 C 492.261719 494.121094 491.703125 494.078125 491.1875 494.035156 C 491.746094 494.078125 492.261719 494.164062 492.824219 494.207031 C 492.910156 494.25 492.996094 494.25 493.082031 494.25 C 493.082031 494.25 493.082031 494.207031 493.082031 494.207031 C 493.125 494.207031 493.125 494.207031 493.167969 494.25 C 493.339844 494.25 493.46875 494.292969 493.640625 494.292969 C 493.726562 494.292969 493.8125 494.335938 493.898438 494.335938 C 494.027344 494.335938 494.15625 494.335938 494.242188 494.378906 C 494.414062 494.378906 494.585938 494.421875 494.757812 494.464844 C 494.800781 494.464844 494.84375 494.507812 494.929688 494.507812 C 495.058594 494.550781 495.1875 494.550781 495.359375 494.59375 C 495.660156 494.679688 495.960938 494.722656 496.261719 494.808594 C 496.390625 494.851562 496.519531 494.894531 496.652344 494.894531 C 496.78125 494.9375 496.867188 494.980469 496.996094 494.980469 C 497.339844 495.109375 497.640625 495.195312 497.941406 495.324219 C 498.242188 495.410156 498.542969 495.539062 498.84375 495.625 C 498.929688 495.667969 499.015625 495.710938 499.101562 495.753906 C 499.53125 495.925781 500.003906 496.144531 500.433594 496.359375 C 500.433594 496.402344 500.476562 496.402344 500.519531 496.445312 C 500.953125 496.660156 501.382812 496.917969 501.8125 497.175781 C 501.8125 497.21875 501.8125 497.21875 501.8125 497.21875 C 508.476562 501.648438 508.820312 509.648438 508.089844 514.980469 L 508.21875 515.066406 C 508.21875 515.066406 509.640625 521.992188 514.328125 524.441406 L 516.949219 521.261719 L 517.035156 521.132812 L 517.164062 521.21875 L 517.425781 521.433594 L 520.175781 522.035156 L 537.421875 536.011719 L 534.800781 539.152344 C 535.832031 539.753906 536.476562 541 536.476562 542.207031 C 536.433594 543.839844 535.488281 545.300781 534.5 546.59375 C 532.734375 548.828125 530.671875 550.851562 528.390625 552.527344 C 527.1875 553.429688 525.898438 554.207031 524.433594 554.421875 C 523.746094 554.507812 522.972656 554.378906 522.328125 554.117188 L 520.5625 556.226562 C 520.949219 562.464844 521.121094 579.109375 511.316406 575.109375 C 511.703125 577.644531 512.003906 580.226562 512.347656 582.71875 C 513.46875 591.449219 514.285156 599.882812 514.84375 607.921875 L 514.886719 608.65625 L 514.714844 608.355469 C 514.757812 608.527344 514.757812 608.65625 514.757812 608.871094 C 514.757812 609.171875 514.714844 609.558594 514.585938 609.988281 C 514.5 610.203125 514.371094 610.460938 514.199219 610.632812 C 514.027344 610.847656 513.769531 611.019531 513.46875 611.0625 L 513.425781 611.0625 C 514.757812 623.964844 514.328125 638.289062 514.328125 638.289062 C 514.328125 638.289062 514.886719 648.179688 515.359375 654.632812 C 515.402344 655.449219 515.488281 656.308594 515.574219 657.125 C 515.660156 658.160156 515.746094 662.675781 510.671875 661.339844 C 510.929688 664.910156 511.1875 668.4375 511.574219 671.878906 C 512.21875 678.113281 513.078125 684.136719 514.371094 689.855469 C 514.5 690.328125 514.628906 690.757812 514.757812 691.230469 L 530.800781 691.230469 L 530.800781 639.707031 L 559.230469 639.707031 L 559.230469 489.648438 L 601.765625 489.648438 L 601.765625 363.375 L 618.195312 363.375 L 618.195312 344.363281 L 628.214844 344.363281 C 630.195312 341.566406 632.085938 338.773438 633.765625 335.976562 L 634.96875 333.910156 C 643.828125 318.773438 648.6875 303.589844 650.753906 289.613281 L 650.710938 289.613281 L 652.515625 288.105469 L 652.515625 249.957031 L 651.3125 248.453125 L 652.34375 247.121094 L 652.515625 246.90625 C 652.515625 246.90625 676.429688 208.710938 677.675781 131.898438 C 676.515625 131.769531 675.613281 130.824219 675.613281 129.617188 C 675.613281 128.371094 676.558594 127.425781 677.71875 127.296875 C 677.71875 127.296875 677.71875 127.253906 677.71875 127.210938 C 677.203125 127.082031 676.816406 126.609375 676.816406 126.003906 C 676.816406 125.316406 677.375 124.757812 678.0625 124.757812 L 678.492188 124.757812 L 679.828125 122.78125 L 680.945312 122.78125 L 680.945312 102.136719 C 680.257812 102.351562 679.613281 102.480469 679.050781 102.480469 C 677.546875 102.480469 676.730469 101.707031 676.34375 101.058594 C 675.828125 100.285156 675.699219 99.46875 675.699219 99.082031 C 675.699219 98.996094 675.699219 98.78125 675.828125 98.78125 L 675.871094 98.78125 L 675.914062 98.867188 C 676.042969 99.039062 676.34375 99.296875 676.644531 99.511719 C 675.957031 98.308594 675.742188 96.972656 675.742188 96.886719 L 675.699219 96.585938 L 676.6875 97.792969 C 676.386719 96.84375 676.042969 95.253906 676.042969 95.167969 L 676 95.082031 L 676.128906 95.082031 C 676.601562 95.082031 676.988281 95.683594 677.246094 96.242188 C 677.332031 96.414062 677.375 96.585938 677.460938 96.757812 C 678.105469 98.695312 680 99.855469 680.988281 100.328125 L 681.546875 94.007812 L 682.105469 100.328125 C 683.050781 99.855469 684.988281 98.738281 685.632812 96.757812 C 685.71875 96.585938 685.761719 96.414062 685.847656 96.242188 C 686.105469 95.683594 686.492188 95.082031 686.921875 95.082031 L 687.050781 95.082031 L 687.050781 95.167969 C 687.050781 95.253906 686.707031 96.84375 686.40625 97.792969 L 687.351562 96.585938 L 687.308594 96.886719 C 687.308594 96.972656 687.136719 98.308594 686.449219 99.511719 C 686.707031 99.296875 687.050781 99.039062 687.179688 98.867188 L 687.179688 98.824219 L 687.265625 98.78125 L 687.308594 98.78125 L 687.351562 98.867188 C 687.4375 98.996094 687.351562 100.027344 686.878906 100.886719 C 686.449219 101.621094 685.632812 102.480469 684.042969 102.480469 C 683.480469 102.480469 682.835938 102.351562 682.148438 102.136719 L 682.148438 122.78125 L 683.265625 122.78125 L 684.558594 124.757812 L 685.03125 124.757812 C 685.71875 124.757812 686.277344 125.316406 686.277344 126.003906 C 686.277344 126.609375 685.890625 127.082031 685.332031 127.210938 C 685.332031 127.253906 685.332031 127.296875 685.332031 127.296875 C 686.535156 127.425781 687.4375 128.371094 687.4375 129.617188 C 687.4375 130.824219 686.535156 131.769531 685.375 131.898438 C 686.621094 208.710938 710.535156 246.90625 710.535156 246.90625 L 710.75 247.121094 L 711.78125 248.453125 L 710.75 249.742188 L 710.535156 249.957031 L 710.535156 288.105469 L 712.339844 289.613281 C 714.40625 303.589844 719.351562 318.773438 728.210938 333.957031 L 729.460938 335.976562 C 731.179688 338.773438 733.027344 341.566406 735.007812 344.363281 L 744.984375 344.363281 L 744.984375 363.375 L 761.414062 363.375 L 761.414062 659.449219 L 778.488281 659.449219 L 778.488281 419.800781 L 796.640625 419.800781 L 796.640625 397.09375 L 811.132812 397.09375 L 811.132812 374.425781 L 825.242188 374.425781 L 825.242188 351.804688 L 838.917969 351.804688 L 838.917969 329.09375 L 847.992188 329.09375 L 847.992188 306.429688 L 853.667969 306.429688 L 853.667969 262.429688 L 862.097656 262.429688 L 862.097656 306.429688 L 867.777344 306.429688 L 867.777344 329.09375 L 876.851562 329.09375 L 876.851562 351.804688 L 890.527344 351.804688 L 890.527344 374.425781 L 905.453125 374.425781 L 905.453125 397.09375 L 919.945312 397.09375 L 919.945312 419.800781 L 938.097656 419.800781 L 938.097656 690.585938 C 946.097656 677.46875 954.011719 662.976562 961.105469 647.492188 L 961.105469 638.417969 L 959.386719 638.417969 L 959.386719 635.792969 L 961.105469 635.792969 L 961.105469 630.460938 L 957.535156 630.460938 L 957.535156 627.835938 L 964.546875 627.835938 C 972.289062 615.363281 994.09375 545.816406 997.105469 536.054688 L 994.824219 536.054688 L 994.824219 533.992188 L 995.644531 533.992188 L 995.644531 531.882812 L 993.921875 531.882812 L 993.921875 530.335938 L 995.6875 530.335938 L 995.6875 527.796875 C 993.277344 527.796875 991.300781 526.164062 991.300781 524.183594 C 991.300781 522.25 993.234375 520.65625 995.601562 520.570312 L 995.601562 514.25 L 994.523438 514.25 C 994.050781 514.25 993.707031 513.90625 993.707031 513.433594 L 993.707031 512.398438 C 993.707031 511.96875 994.050781 511.582031 994.523438 511.582031 L 999.167969 511.582031 C 1011.597656 468.789062 1016.460938 343.71875 1017.363281 317.007812 L 1017.363281 313.3125 L 1017.019531 313.3125 L 1016.203125 311.589844 L 1013.277344 303.332031 L 1009.621094 303.332031 L 1009.621094 298.171875 L 1009.191406 298.171875 L 1009.191406 296.625 L 1011.210938 296.625 L 1011.210938 283.246094 L 1010.738281 283.246094 C 1010.050781 283.246094 1009.535156 282.6875 1009.535156 282.042969 L 1009.535156 280.925781 C 1009.535156 280.582031 1009.621094 280.324219 1009.835938 280.109375 C 1009.621094 279.890625 1009.535156 279.589844 1009.535156 279.289062 L 1009.535156 278.171875 C 1009.535156 277.484375 1010.050781 276.96875 1010.695312 276.925781 L 1026.136719 265.226562 C 1026.09375 265.183594 1026.09375 265.140625 1026.09375 265.097656 L 1026.09375 262.085938 C 1025.707031 261.742188 1025.449219 261.269531 1025.449219 260.753906 L 1025.449219 247.421875 C 1025.449219 246.90625 1025.707031 246.386719 1026.09375 246.085938 L 1026.09375 239.035156 C 1025.535156 238.949219 1025.148438 238.433594 1025.148438 237.871094 C 1025.148438 237.269531 1025.535156 236.796875 1026.09375 236.667969 L 1026.09375 232.96875 C 1026.09375 232.539062 1026.480469 232.152344 1026.910156 232.152344 L 1027.46875 232.152344 C 1027.898438 232.152344 1028.285156 232.539062 1028.285156 232.96875 L 1028.285156 236.667969 C 1028.847656 236.796875 1029.277344 237.269531 1029.277344 237.871094 C 1029.277344 238.433594 1028.847656 238.949219 1028.285156 239.035156 L 1028.285156 246.085938 C 1028.675781 246.429688 1028.933594 246.90625 1028.933594 247.421875 L 1028.933594 260.753906 C 1028.933594 261.269531 1028.675781 261.742188 1028.285156 262.085938 L 1028.285156 265.097656 C 1028.285156 265.140625 1028.242188 265.183594 1028.242188 265.226562 L 1043.683594 276.925781 C 1044.328125 276.96875 1044.84375 277.484375 1044.84375 278.171875 L 1044.84375 279.289062 C 1044.84375 279.589844 1044.714844 279.890625 1044.542969 280.109375 C 1044.714844 280.324219 1044.84375 280.582031 1044.84375 280.925781 L 1044.84375 282.042969 C 1044.84375 282.6875 1044.328125 283.246094 1043.640625 283.246094 L 1043.382812 283.246094 L 1043.382812 296.625 L 1045.40625 296.625 L 1045.40625 298.171875 L 1044.972656 298.171875 L 1044.972656 303.332031 L 1041.320312 303.332031 L 1038.351562 311.589844 L 1037.535156 313.3125 L 1037.191406 313.3125 L 1037.191406 316.234375 L 1037.234375 316.234375 L 1037.234375 317.007812 C 1038.136719 343.71875 1042.953125 468.789062 1055.382812 511.582031 L 1057.878906 511.582031 C 1058.308594 511.582031 1058.695312 511.96875 1058.695312 512.398438 L 1058.695312 513.433594 C 1058.695312 513.90625 1058.308594 514.25 1057.878906 514.25 L 1057.707031 514.25 L 1057.707031 520.570312 C 1060.070312 520.65625 1061.964844 522.25 1061.964844 524.183594 C 1061.964844 526.121094 1060.15625 527.667969 1057.792969 527.796875 L 1057.792969 530.335938 L 1059.46875 530.335938 L 1059.46875 531.882812 L 1057.75 531.882812 L 1057.75 533.992188 L 1058.695312 533.992188 L 1058.695312 536.054688 L 1056.371094 536.054688 C 1059.425781 545.816406 1081.230469 615.363281 1088.972656 627.835938 L 1095.984375 627.835938 L 1095.984375 630.460938 L 1092.414062 630.460938 L 1092.414062 635.792969 L 1094.132812 635.792969 L 1094.132812 638.417969 L 1092.414062 638.417969 L 1092.414062 647.492188 C 1095.554688 654.417969 1098.863281 661.082031 1102.304688 667.578125 L 1113.746094 667.578125 L 1113.746094 589 L 1116.070312 589 L 1116.070312 583.410156 L 1118.304688 583.410156 L 1118.304688 577.773438 L 1119.722656 577.773438 L 1119.722656 566.894531 L 1121.832031 566.894531 L 1121.832031 577.773438 L 1123.207031 577.773438 L 1123.207031 583.410156 L 1125.488281 583.410156 L 1125.488281 589 L 1127.808594 589 L 1127.808594 667.578125 L 1140.28125 667.578125 L 1140.28125 562.464844 L 1172.453125 562.464844 L 1172.453125 445.90625 L 1185.871094 445.90625 L 1185.871094 562.464844 L 1208.925781 562.464844 L 1208.925781 637.816406 L 1224.625 637.816406 L 1224.625 618.890625 L 1232.410156 618.890625 L 1232.410156 637.816406 L 1240.367188 637.816406 L 1240.367188 628.351562 L 1248.148438 628.351562 L 1248.148438 637.816406 L 1270 637.816406 C 1270.300781 630.203125 1270.515625 622.546875 1270.515625 614.890625 C 1270.515625 310.472656 1023.726562 63.683594 719.308594 63.683594 C 428.050781 63.683594 189.609375 289.527344 169.480469 575.625 L 215.757812 575.625 " fill-opacity="1" fill-rule="nonzero"/></g><path fill="#053856" d="M 695.394531 264.625 C 695.050781 265.871094 694.148438 266.730469 693.460938 267.203125 L 693.460938 283.933594 L 697.460938 283.933594 L 697.460938 267.289062 C 696.773438 266.859375 695.78125 266 695.394531 264.625 " fill-opacity="1" fill-rule="nonzero"/><path fill="#053856" d="M 1088.242188 481.90625 L 1088.929688 481.90625 L 1088.929688 479.109375 L 1088.242188 479.109375 L 1088.242188 481.90625 " fill-opacity="1" fill-rule="nonzero"/><path fill="#053856" d="M 1086.824219 484.746094 L 1087.8125 484.746094 L 1087.8125 481.90625 L 1086.824219 481.90625 L 1086.824219 484.746094 " fill-opacity="1" fill-rule="nonzero"/><path fill="#053856" d="M 1085.230469 476.273438 L 1086.132812 476.273438 L 1086.132812 473.433594 L 1085.230469 473.433594 L 1085.230469 476.273438 " fill-opacity="1" fill-rule="nonzero"/><path fill="#053856" d="M 1086.910156 476.273438 L 1086.910156 479.109375 L 1087.640625 479.109375 L 1087.640625 476.273438 L 1086.910156 476.273438 " fill-opacity="1" fill-rule="nonzero"/><path fill="#053856" d="M 1147.464844 628.480469 L 1160.324219 628.480469 L 1160.324219 615.621094 L 1147.464844 615.621094 L 1147.464844 628.480469 " fill-opacity="1" fill-rule="nonzero"/><path fill="#053856" d="M 1090.605469 484.746094 L 1091.296875 484.746094 L 1091.296875 481.90625 L 1090.605469 481.90625 L 1090.605469 484.746094 " fill-opacity="1" fill-rule="nonzero"/><path fill="#053856" d="M 1066.351562 484.746094 L 1072.929688 484.746094 L 1072.929688 481.90625 L 1075.769531 481.90625 L 1075.769531 484.746094 L 1076.757812 484.746094 L 1076.757812 481.90625 L 1077.917969 481.90625 L 1077.917969 479.109375 L 1080.328125 479.109375 L 1080.328125 476.273438 L 1082.390625 476.273438 L 1082.390625 473.433594 L 1083.726562 473.433594 L 1083.726562 470.636719 L 1086.5625 470.636719 L 1086.5625 473.433594 L 1088.972656 473.433594 L 1088.972656 476.273438 L 1090.476562 476.273438 L 1090.476562 479.109375 L 1091.769531 479.109375 L 1091.769531 481.90625 L 1092.714844 481.90625 L 1092.714844 479.109375 L 1095.511719 479.109375 L 1095.511719 481.90625 L 1097.875 481.90625 L 1097.875 484.746094 L 1103.296875 484.746094 L 1084.84375 464.316406 L 1066.351562 484.746094 " fill-opacity="1" fill-rule="nonzero"/><path fill="#053856" d="M 1094.089844 484.746094 L 1095.039062 484.746094 L 1095.039062 481.90625 L 1094.089844 481.90625 L 1094.089844 484.746094 " fill-opacity="1" fill-rule="nonzero"/><path fill="#053856" d="M 1079.597656 484.746094 L 1080.5 484.746094 L 1080.5 481.90625 L 1079.597656 481.90625 L 1079.597656 484.746094 " fill-opacity="1" fill-rule="nonzero"/><path fill="#053856" d="M 1188.925781 706.242188 L 1201.785156 706.242188 L 1201.785156 693.382812 L 1188.925781 693.382812 L 1188.925781 706.242188 " fill-opacity="1" fill-rule="nonzero"/><path fill="#053856" d="M 1188.925781 686.84375 L 1201.785156 686.84375 L 1201.785156 673.941406 L 1188.925781 673.941406 L 1188.925781 686.84375 " fill-opacity="1" fill-rule="nonzero"/><path fill="#053856" d="M 1080.714844 481.90625 L 1081.660156 481.90625 L 1081.660156 479.109375 L 1080.714844 479.109375 L 1080.714844 481.90625 " fill-opacity="1" fill-rule="nonzero"/><path fill="#053856" d="M 1083.339844 484.746094 L 1083.984375 484.746094 L 1083.984375 481.90625 L 1083.339844 481.90625 L 1083.339844 484.746094 " fill-opacity="1" fill-rule="nonzero"/><path fill="#053856" d="M 1083.167969 479.109375 L 1084.113281 479.109375 L 1084.113281 476.273438 L 1083.167969 476.273438 L 1083.167969 479.109375 " fill-opacity="1" fill-rule="nonzero"/><path fill="#053856" d="M 1188.925781 667.40625 L 1201.785156 667.40625 L 1201.785156 654.503906 L 1188.925781 654.503906 L 1188.925781 667.40625 " fill-opacity="1" fill-rule="nonzero"/><path fill="#053856" d="M 1084.457031 481.90625 L 1085.402344 481.90625 L 1085.402344 479.109375 L 1084.457031 479.109375 L 1084.457031 481.90625 " fill-opacity="1" fill-rule="nonzero"/><path fill="#053856" d="M 671.957031 214.21875 L 671.957031 214.777344 L 672.558594 213.703125 L 672.558594 218.90625 L 672.34375 218.90625 L 672.34375 219.464844 L 677.289062 219.464844 L 677.289062 218.90625 L 677.03125 218.90625 L 677.03125 213.703125 L 677.675781 214.777344 L 677.675781 214.21875 L 674.792969 208.195312 L 671.957031 214.21875 " fill-opacity="1" fill-rule="nonzero"/><path fill="#053856" d="M 671.183594 283.933594 L 675.179688 283.933594 L 675.179688 267.203125 C 674.492188 266.730469 673.589844 265.914062 673.246094 264.625 C 672.859375 266 671.871094 266.859375 671.183594 267.332031 L 671.183594 283.933594 " fill-opacity="1" fill-rule="nonzero"/><path fill="#053856" d="M 676.773438 267.289062 L 676.773438 283.933594 L 680.773438 283.933594 L 680.773438 267.246094 C 680.042969 266.773438 679.136719 265.914062 678.792969 264.625 C 678.40625 265.957031 677.460938 266.816406 676.773438 267.289062 " fill-opacity="1" fill-rule="nonzero"/><path fill="#053856" d="M 668.816406 331.933594 L 669.460938 330.902344 L 669.460938 336.0625 L 669.246094 336.0625 L 669.246094 336.621094 L 674.191406 336.621094 L 674.191406 336.0625 L 673.933594 336.0625 L 673.933594 330.902344 L 674.578125 331.933594 L 674.578125 331.375 L 671.699219 325.351562 L 668.816406 331.375 L 668.816406 331.933594 " fill-opacity="1" fill-rule="nonzero"/><path fill="#053856" d="M 678.664062 233.097656 L 679.308594 232.023438 L 679.308594 237.226562 L 679.09375 237.226562 L 679.09375 237.742188 L 684 237.742188 L 684 237.226562 L 683.785156 237.226562 L 683.785156 232.023438 L 684.429688 233.097656 L 684.429688 232.539062 L 681.546875 226.519531 L 678.664062 232.539062 L 678.664062 233.097656 " fill-opacity="1" fill-rule="nonzero"/><path fill="#053856" d="M 669.375 444.746094 L 657.246094 444.746094 L 657.246094 456.875 L 669.375 456.875 L 669.375 444.746094 " fill-opacity="1" fill-rule="nonzero"/><path fill="#053856" d="M 657.246094 489.648438 L 669.375 489.648438 L 669.375 477.5625 L 657.246094 477.5625 L 657.246094 489.648438 " fill-opacity="1" fill-rule="nonzero"/><path fill="#053856" d="M 665.203125 232.496094 L 665.203125 233.097656 L 665.847656 231.980469 L 665.847656 237.183594 L 665.589844 237.183594 L 665.589844 237.742188 L 670.535156 237.742188 L 670.535156 237.183594 L 670.320312 237.183594 L 670.320312 232.023438 L 670.921875 233.097656 L 670.921875 232.496094 L 668.085938 226.476562 L 665.203125 232.496094 " fill-opacity="1" fill-rule="nonzero"/><path fill="#053856" d="M 669.589844 267.203125 C 668.902344 266.730469 668.042969 265.871094 667.699219 264.625 C 667.3125 266.042969 666.320312 266.902344 665.589844 267.332031 L 665.589844 283.933594 L 669.589844 283.933594 L 669.589844 267.203125 " fill-opacity="1" fill-rule="nonzero"/><path fill="#053856" d="M 1160.324219 576.742188 L 1147.464844 576.742188 L 1147.464844 589.601562 L 1160.324219 589.601562 L 1160.324219 576.742188 " fill-opacity="1" fill-rule="nonzero"/><path fill="#053856" d="M 688.644531 331.375 L 688.644531 331.933594 L 689.246094 330.902344 L 689.246094 336.0625 L 689.03125 336.0625 L 689.03125 336.621094 L 693.976562 336.621094 L 693.976562 336.0625 L 693.71875 336.0625 L 693.71875 330.902344 L 694.363281 331.933594 L 694.363281 331.375 L 691.480469 325.351562 L 688.644531 331.375 " fill-opacity="1" fill-rule="nonzero"/><path fill="#053856" d="M 689.847656 264.625 C 689.503906 265.914062 688.601562 266.730469 687.914062 267.246094 L 687.914062 283.933594 L 691.914062 283.933594 L 691.914062 267.289062 C 691.179688 266.816406 690.234375 265.957031 689.847656 264.625 " fill-opacity="1" fill-rule="nonzero"/><path fill="#053856" d="M 669.375 411.929688 L 657.246094 411.929688 L 657.246094 424.058594 L 669.375 424.058594 L 669.375 411.929688 " fill-opacity="1" fill-rule="nonzero"/><path fill="#053856" d="M 678.664062 196.496094 L 679.308594 195.421875 L 679.308594 200.625 L 679.09375 200.625 L 679.09375 201.1875 L 684 201.1875 L 684 200.625 L 683.785156 200.625 L 683.785156 195.421875 L 684.429688 196.496094 L 684.429688 195.9375 L 681.546875 189.917969 L 678.664062 195.9375 L 678.664062 196.496094 " fill-opacity="1" fill-rule="nonzero"/><path fill="#053856" d="M 685.417969 214.261719 L 685.417969 214.820312 L 686.019531 213.746094 L 686.019531 218.949219 L 685.804688 218.949219 L 685.804688 219.464844 L 690.75 219.464844 L 690.75 218.949219 L 690.535156 218.949219 L 690.535156 213.746094 L 691.136719 214.820312 L 691.136719 214.261719 L 688.257812 208.238281 L 685.417969 214.261719 " fill-opacity="1" fill-rule="nonzero"/><path fill="#053856" d="M 678.664062 177.660156 L 678.664062 178.21875 L 679.308594 177.144531 L 679.308594 182.347656 L 679.09375 182.347656 L 679.09375 182.90625 L 684 182.90625 L 684 182.347656 L 683.785156 182.347656 L 683.785156 177.144531 L 684.429688 178.21875 L 684.429688 177.660156 L 681.546875 171.636719 L 678.664062 177.660156 " fill-opacity="1" fill-rule="nonzero"/><path fill="#053856" d="M 682.320312 267.246094 L 682.320312 283.933594 L 686.320312 283.933594 L 686.320312 267.246094 C 685.632812 266.816406 684.6875 265.957031 684.34375 264.625 C 683.957031 265.914062 683.007812 266.773438 682.320312 267.246094 " fill-opacity="1" fill-rule="nonzero"/><path fill="#053856" d="M 684.472656 316.277344 L 684.472656 315.71875 L 681.589844 309.699219 L 678.75 315.71875 L 678.75 316.277344 L 679.351562 315.203125 L 679.351562 320.40625 L 679.136719 320.40625 L 679.136719 320.921875 L 684.085938 320.921875 L 684.085938 320.40625 L 683.871094 320.40625 L 683.871094 315.203125 L 684.472656 316.277344 " fill-opacity="1" fill-rule="nonzero"/><path fill="#053856" d="M 1147.464844 609.042969 L 1160.324219 609.042969 L 1160.324219 596.183594 L 1147.464844 596.183594 L 1147.464844 609.042969 " fill-opacity="1" fill-rule="nonzero"/><path fill="#053856" d="M 848.851562 564.570312 L 867.734375 564.570312 L 867.734375 545.730469 L 848.851562 545.730469 L 848.851562 564.570312 " fill-opacity="1" fill-rule="nonzero"/><path fill="#053856" d="M 867.734375 446.855469 L 848.851562 446.855469 L 848.851562 465.734375 L 867.734375 465.734375 L 867.734375 446.855469 " fill-opacity="1" fill-rule="nonzero"/><path fill="#053856" d="M 848.851562 515.152344 L 867.734375 515.152344 L 867.734375 496.273438 L 848.851562 496.273438 L 848.851562 515.152344 " fill-opacity="1" fill-rule="nonzero"/><path fill="#053856" d="M 797.585938 515.152344 L 816.464844 515.152344 L 816.464844 496.273438 L 797.585938 496.273438 L 797.585938 515.152344 " fill-opacity="1" fill-rule="nonzero"/><path fill="#053856" d="M 816.464844 446.855469 L 797.585938 446.855469 L 797.585938 465.734375 L 816.464844 465.734375 L 816.464844 446.855469 " fill-opacity="1" fill-rule="nonzero"/><path fill="#053856" d="M 797.585938 564.570312 L 816.464844 564.570312 L 816.464844 545.730469 L 797.585938 545.730469 L 797.585938 564.570312 " fill-opacity="1" fill-rule="nonzero"/><path fill="#053856" d="M 692.128906 232.539062 L 692.128906 233.097656 L 692.773438 232.023438 L 692.773438 237.226562 L 692.558594 237.226562 L 692.558594 237.785156 L 697.503906 237.785156 L 697.503906 237.226562 L 697.246094 237.226562 L 697.246094 232.023438 L 697.890625 233.097656 L 697.890625 232.539062 L 695.007812 226.519531 L 692.128906 232.539062 " fill-opacity="1" fill-rule="nonzero"/><path fill="#053856" d="M 900.121094 515.152344 L 919 515.152344 L 919 496.273438 L 900.121094 496.273438 L 900.121094 515.152344 " fill-opacity="1" fill-rule="nonzero"/><path fill="#053856" d="M 1012.71875 627.835938 L 1040.800781 627.835938 C 1039.039062 614.976562 1036.457031 583.96875 1034.996094 565.34375 L 1034.910156 565.214844 L 1034.996094 565.171875 C 1034.4375 558.117188 1034.050781 552.871094 1033.921875 551.109375 L 1019.597656 551.109375 C 1019.46875 552.871094 1019.082031 558.117188 1018.523438 565.171875 L 1018.566406 565.214844 L 1018.480469 565.34375 C 1017.019531 583.96875 1014.4375 614.976562 1012.71875 627.835938 " fill-opacity="1" fill-rule="nonzero"/><path fill="#053856" d="M 900.121094 564.570312 L 919 564.570312 L 919 545.730469 L 900.121094 545.730469 L 900.121094 564.570312 " fill-opacity="1" fill-rule="nonzero"/><path fill="#053856" d="M 656.644531 264.667969 C 656.300781 265.871094 655.441406 266.730469 654.753906 267.203125 L 654.753906 283.933594 L 658.449219 283.933594 L 658.449219 267.160156 C 657.761719 266.6875 656.988281 265.871094 656.644531 264.667969 " fill-opacity="1" fill-rule="nonzero"/><path fill="#053856" d="M 919 446.855469 L 900.121094 446.855469 L 900.121094 465.734375 L 919 465.734375 L 919 446.855469 " fill-opacity="1" fill-rule="nonzero"/><path fill="#053856" d="M 742.492188 379.15625 L 730.40625 379.15625 L 730.40625 391.242188 L 742.492188 391.242188 L 742.492188 379.15625 " fill-opacity="1" fill-rule="nonzero"/><path fill="#053856" d="M 714.191406 331.933594 L 714.191406 331.375 L 711.308594 325.351562 L 708.425781 331.375 L 708.425781 331.933594 L 709.074219 330.902344 L 709.074219 336.0625 L 708.816406 336.0625 L 708.816406 336.621094 L 713.761719 336.621094 L 713.761719 336.0625 L 713.546875 336.0625 L 713.546875 330.902344 L 714.191406 331.933594 " fill-opacity="1" fill-rule="nonzero"/><path fill="#053856" d="M 730.40625 424.058594 L 742.492188 424.058594 L 742.492188 411.929688 L 730.40625 411.929688 L 730.40625 424.058594 " fill-opacity="1" fill-rule="nonzero"/><path fill="#053856" d="M 730.40625 489.648438 L 742.492188 489.648438 L 742.492188 477.5625 L 730.40625 477.5625 L 730.40625 489.648438 " fill-opacity="1" fill-rule="nonzero"/><path fill="#053856" d="M 649.03125 331.375 L 649.03125 331.933594 L 649.675781 330.902344 L 649.675781 336.0625 L 649.417969 336.0625 L 649.417969 336.621094 L 654.363281 336.621094 L 654.363281 336.0625 L 654.148438 336.0625 L 654.148438 330.902344 L 654.796875 331.933594 L 654.796875 331.375 L 651.914062 325.351562 L 649.03125 331.375 " fill-opacity="1" fill-rule="nonzero"/><path fill="#053856" d="M 730.40625 456.875 L 742.492188 456.875 L 742.492188 444.746094 L 730.40625 444.746094 L 730.40625 456.875 " fill-opacity="1" fill-rule="nonzero"/><path fill="#053856" d="M 693.847656 587.882812 L 705.933594 587.882812 L 705.933594 575.796875 L 693.847656 575.796875 L 693.847656 587.882812 " fill-opacity="1" fill-rule="nonzero"/><path fill="#053856" d="M 620.6875 587.882812 L 632.816406 587.882812 L 632.816406 575.796875 L 620.6875 575.796875 L 620.6875 587.882812 " fill-opacity="1" fill-rule="nonzero"/><path fill="#053856" d="M 705.933594 542.980469 L 693.847656 542.980469 L 693.847656 555.109375 L 705.933594 555.109375 L 705.933594 542.980469 " fill-opacity="1" fill-rule="nonzero"/><path fill="#053856" d="M 705.933594 510.164062 L 693.847656 510.164062 L 693.847656 522.292969 L 705.933594 522.292969 L 705.933594 510.164062 " fill-opacity="1" fill-rule="nonzero"/><path fill="#053856" d="M 620.6875 522.292969 L 632.816406 522.292969 L 632.816406 510.164062 L 620.6875 510.164062 L 620.6875 522.292969 " fill-opacity="1" fill-rule="nonzero"/><path fill="#053856" d="M 620.6875 555.109375 L 632.816406 555.109375 L 632.816406 542.980469 L 620.6875 542.980469 L 620.6875 555.109375 " fill-opacity="1" fill-rule="nonzero"/><path fill="#053856" d="M 669.375 542.980469 L 657.246094 542.980469 L 657.246094 555.109375 L 669.375 555.109375 L 669.375 542.980469 " fill-opacity="1" fill-rule="nonzero"/><path fill="#053856" d="M 657.246094 587.882812 L 669.375 587.882812 L 669.375 575.796875 L 657.246094 575.796875 L 657.246094 587.882812 " fill-opacity="1" fill-rule="nonzero"/><path fill="#053856" d="M 669.375 510.164062 L 657.246094 510.164062 L 657.246094 522.292969 L 669.375 522.292969 L 669.375 510.164062 " fill-opacity="1" fill-rule="nonzero"/><path fill="#053856" d="M 730.40625 522.292969 L 742.492188 522.292969 L 742.492188 510.164062 L 730.40625 510.164062 L 730.40625 522.292969 " fill-opacity="1" fill-rule="nonzero"/><path fill="#053856" d="M 730.40625 587.882812 L 742.492188 587.882812 L 742.492188 575.796875 L 730.40625 575.796875 L 730.40625 587.882812 " fill-opacity="1" fill-rule="nonzero"/><path fill="#053856" d="M 730.40625 555.109375 L 742.492188 555.109375 L 742.492188 542.980469 L 730.40625 542.980469 L 730.40625 555.109375 " fill-opacity="1" fill-rule="nonzero"/></svg>