<svg xmlns="http://www.w3.org/2000/svg" xmlns:xlink="http://www.w3.org/1999/xlink" width="500" zoomAndPan="magnify" viewBox="0 0 375 374.999991" height="500" preserveAspectRatio="xMidYMid meet" version="1.0"><defs><clipPath id="24458e7812"><path d="M 55.105469 56.761719 L 319.894531 56.761719 L 319.894531 318 L 55.105469 318 Z M 55.105469 56.761719 " clip-rule="nonzero"/></clipPath><clipPath id="49b3c4e4f0"><path d="M 116.519531 96.5 L 258.183594 96.5 L 258.183594 277.878906 L 116.519531 277.878906 Z M 116.519531 96.5 " clip-rule="nonzero"/></clipPath></defs><g clip-path="url(#24458e7812)"><path fill="#edf5e1" d="M 205.644531 278.292969 C 205.855469 276.496094 206.121094 274.960938 206.457031 273.816406 C 206.636719 273.191406 206.824219 272.566406 207.007812 271.9375 C 194.644531 276.378906 183.257812 283.027344 171.535156 288.933594 C 171.507812 289.957031 171.480469 290.964844 171.453125 291.953125 C 182.828125 287.339844 194.257812 282.871094 205.644531 278.292969 Z M 204.925781 293.238281 C 202.996094 293.320312 201.054688 293.277344 199.113281 293.210938 C 197.902344 300.835938 197.820312 308.90625 198.859375 316.625 C 202.691406 316.394531 205.339844 316.164062 205.339844 315.957031 C 205.339844 315.523438 204.832031 304.296875 204.925781 293.238281 Z M 196.757812 293.128906 C 195.738281 293.09375 194.71875 293.0625 193.699219 293.058594 C 192.859375 293.050781 192.453125 292.3125 192.5625 291.5625 C 192.804688 289.941406 193.238281 287.621094 192.933594 285.886719 C 191.132812 286.605469 189.332031 287.324219 187.53125 288.039062 C 187.53125 288.050781 187.535156 288.058594 187.535156 288.070312 C 188.765625 297.519531 188.25 307.578125 187.03125 317.195312 C 190.304688 317.058594 193.621094 316.910156 196.515625 316.753906 C 195.496094 308.949219 195.578125 300.867188 196.757812 293.128906 Z M 185.277344 288.9375 C 184.386719 289.289062 183.496094 289.648438 182.605469 290.003906 C 181.570312 299.179688 179.914062 308.304688 179.082031 317.5 C 180.8125 317.441406 182.703125 317.367188 184.65625 317.289062 C 185.859375 307.953125 186.371094 298.152344 185.277344 288.9375 Z M 177.929688 306.378906 C 175.628906 306.359375 173.324219 306.21875 171.03125 306.269531 C 170.8125 313.351562 170.652344 317.789062 170.652344 317.789062 C 170.652344 317.789062 173.113281 317.710938 176.714844 317.585938 C 177.054688 313.839844 177.53125 310.101562 178.046875 306.371094 C 178.007812 306.371094 177.96875 306.378906 177.929688 306.378906 Z M 177.929688 304.023438 C 178.089844 304.023438 178.230469 304.054688 178.359375 304.105469 C 178.976562 299.738281 179.617188 295.367188 180.132812 290.992188 C 177.214844 292.160156 174.296875 293.328125 171.382812 294.511719 C 171.285156 297.929688 171.191406 301.101562 171.105469 303.929688 C 173.367188 303.886719 175.640625 304.003906 177.929688 304.023438 Z M 195.058594 290.722656 C 198.347656 290.804688 201.667969 291.058594 204.953125 290.898438 C 205.015625 287.351562 205.148438 283.902344 205.386719 280.921875 C 201.980469 282.289062 198.574219 283.648438 195.164062 285.003906 C 195.582031 286.734375 195.339844 288.839844 195.058594 290.722656 Z M 207.820312 269.167969 C 207.902344 268.890625 207.984375 268.613281 208.0625 268.335938 C 206.085938 268.203125 204.113281 268.0625 202.128906 268.039062 C 201.308594 268.03125 200.855469 267.300781 200.992188 266.550781 C 201.304688 264.808594 201.421875 263.054688 201.46875 261.292969 C 197.304688 264.789062 193.257812 268.484375 188.730469 271.34375 C 183.449219 274.675781 178.070312 277.757812 172.542969 280.660156 C 172.269531 280.800781 172.003906 280.949219 171.738281 281.101562 C 171.695312 282.851562 171.652344 284.578125 171.605469 286.265625 C 183.523438 280.207031 195.144531 273.503906 207.820312 269.167969 Z M 203.488281 265.714844 C 205.238281 265.777344 206.984375 265.910156 208.730469 266.023438 C 209.898438 261.898438 210.945312 257.832031 211.535156 254.039062 C 208.816406 255.542969 206.292969 257.375 203.84375 259.339844 C 203.828125 261.472656 203.761719 263.597656 203.488281 265.714844 Z M 182.566406 238.496094 C 181.835938 238.464844 181.109375 238.429688 180.375 238.402344 C 179.742188 238.378906 179.1875 237.878906 179.195312 237.222656 C 179.226562 234.5625 179.425781 231.914062 179.464844 229.253906 C 177.109375 229.167969 174.753906 229.113281 172.398438 229.109375 C 172.507812 241.890625 172.25 258.625 171.902344 274.113281 C 177.929688 270.148438 183.378906 265.097656 188.769531 260.566406 C 190.558594 259.066406 192.425781 257.664062 194.324219 256.308594 C 189.742188 250.828125 183.574219 245.738281 182.566406 238.496094 Z M 196.210938 254.984375 C 197.480469 254.101562 198.757812 253.230469 200.03125 252.355469 C 196.238281 248.5 194.039062 243.136719 190.703125 238.886719 C 188.785156 238.785156 186.867188 238.691406 184.949219 238.601562 C 185.988281 245.054688 191.90625 249.984375 196.210938 254.984375 Z M 201.984375 251.007812 C 205.390625 248.628906 208.71875 246.15625 211.714844 243.265625 C 211.597656 242.230469 211.449219 241.144531 211.285156 240.019531 C 205.417969 239.707031 199.550781 239.363281 193.683594 239.046875 C 196.375 243.03125 198.511719 247.726562 201.984375 251.007812 Z M 205.425781 230.789062 C 197.554688 230.390625 189.691406 229.714844 181.820312 229.355469 C 181.785156 231.601562 181.644531 233.847656 181.582031 236.097656 C 189.101562 236.40625 196.613281 236.84375 204.128906 237.269531 C 204.558594 235.105469 204.992188 232.949219 205.425781 230.789062 Z M 206.503906 237.398438 C 207.976562 237.480469 209.449219 237.5625 210.921875 237.644531 C 210.578125 235.472656 210.1875 233.214844 209.808594 230.980469 C 209.136719 230.957031 208.472656 230.925781 207.800781 230.898438 C 207.367188 233.0625 206.933594 235.230469 206.503906 237.398438 Z M 198.433594 225.042969 C 192.8125 224.679688 187.261719 224.46875 181.621094 224.679688 C 178.53125 224.792969 175.441406 224.945312 172.351562 225.035156 C 172.359375 225.597656 172.367188 226.167969 172.375 226.75 C 184.71875 226.773438 197.0625 228.152344 209.40625 228.609375 C 209.238281 227.621094 209.078125 226.648438 208.929688 225.695312 C 205.429688 225.492188 201.933594 225.269531 198.433594 225.042969 Z M 182.128906 222.300781 C 187.59375 222.109375 192.984375 222.332031 198.433594 222.6875 C 201.8125 222.90625 205.191406 223.117188 208.566406 223.320312 C 208.316406 221.570312 208.121094 219.9375 208.011719 218.507812 C 202.519531 217.738281 197.066406 216.496094 191.523438 216.105469 C 190.875 216.058594 190.359375 215.597656 190.34375 214.925781 C 190.199219 207.675781 191.882812 200.566406 192.203125 193.347656 C 185.417969 202.039062 179.058594 211.121094 172.226562 219.796875 C 172.257812 220.710938 172.28125 221.679688 172.304688 222.675781 C 175.578125 222.582031 178.855469 222.417969 182.128906 222.300781 Z M 191.503906 190.4375 C 191.535156 190.398438 191.570312 190.371094 191.601562 190.339844 C 187.898438 190.390625 184.199219 190.484375 180.515625 190.792969 C 179.878906 190.847656 179.335938 190.210938 179.335938 189.613281 L 179.335938 182.011719 C 177.507812 182.054688 175.679688 182.101562 173.847656 182.164062 C 172.695312 190.878906 171.589844 201.710938 172.101562 216.160156 C 178.675781 207.667969 184.867188 198.847656 191.503906 190.4375 Z M 192.828125 210.4375 C 192.753906 211.570312 192.703125 212.707031 192.699219 213.847656 C 197.792969 214.3125 202.824219 215.417969 207.882812 216.132812 C 207.851562 215.46875 207.816406 214.734375 207.777344 213.945312 C 202.808594 212.710938 197.894531 211.238281 192.828125 210.4375 Z M 193.699219 204.957031 C 193.578125 204.945312 193.472656 204.917969 193.375 204.882812 C 193.242188 205.953125 193.117188 207.023438 193.019531 208.09375 C 197.984375 208.839844 202.804688 210.257812 207.664062 211.488281 C 207.605469 210.261719 207.546875 208.945312 207.480469 207.566406 C 202.941406 206.417969 198.390625 205.34375 193.699219 204.957031 Z M 193.972656 201.152344 C 193.921875 201.152344 193.878906 201.144531 193.832031 201.140625 C 193.773438 201.628906 193.710938 202.113281 193.652344 202.601562 C 193.667969 202.601562 193.683594 202.597656 193.699219 202.601562 C 198.351562 202.980469 202.871094 204.003906 207.371094 205.125 C 207.328125 204.128906 207.28125 203.101562 207.234375 202.066406 C 202.832031 201.4375 198.398438 201 193.972656 201.152344 Z M 194.109375 198.789062 C 198.453125 198.652344 202.808594 199.070312 207.132812 199.679688 C 206.996094 196.488281 206.867188 193.234375 206.757812 190.175781 C 204.859375 190.152344 202.957031 190.121094 201.0625 190.175781 C 198.914062 190.242188 196.761719 190.273438 194.605469 190.296875 C 194.65625 193.144531 194.425781 195.96875 194.109375 198.789062 Z M 179.335938 179.664062 L 179.335938 173.640625 C 179.335938 173.558594 179.34375 173.484375 179.359375 173.410156 C 178.105469 173.550781 176.851562 173.714844 175.601562 173.90625 C 175.375 173.941406 175.171875 173.910156 174.988281 173.847656 C 174.738281 175.722656 174.457031 177.699219 174.167969 179.800781 C 175.890625 179.742188 177.613281 179.703125 179.335938 179.664062 Z M 189.566406 181.808594 C 186.9375 181.867188 184.3125 181.910156 181.695312 181.960938 L 181.695312 188.351562 C 187.875 187.914062 194.074219 188.082031 200.261719 187.851562 C 202.386719 187.777344 204.53125 187.824219 206.675781 187.859375 C 206.601562 185.664062 206.546875 183.625 206.507812 181.828125 C 200.898438 181.28125 195.175781 181.683594 189.566406 181.808594 Z M 181.695312 179.613281 C 184.601562 179.554688 187.511719 179.503906 190.433594 179.429688 C 195.75 179.292969 201.152344 178.984375 206.46875 179.46875 C 206.460938 178.933594 206.457031 178.425781 206.457031 177.972656 C 206.457031 176.722656 206.464844 175.023438 206.480469 173.011719 C 198.175781 172.722656 189.863281 172.460938 181.609375 173.1875 C 181.660156 173.320312 181.695312 173.46875 181.695312 173.640625 Z M 202.894531 155.835938 C 202.878906 160.6875 202.859375 165.625 202.316406 170.445312 C 202.308594 170.480469 202.300781 170.507812 202.292969 170.542969 C 203.695312 170.582031 205.09375 170.628906 206.496094 170.675781 C 206.527344 166.378906 206.582031 161.097656 206.632812 155.796875 C 205.386719 155.839844 204.140625 155.847656 202.894531 155.835938 Z M 199.957031 170.445312 C 200.5 165.613281 200.523438 160.660156 200.535156 155.800781 C 198.121094 155.746094 195.707031 155.664062 193.292969 155.652344 C 192.652344 155.648438 192.117188 155.113281 192.113281 154.472656 C 192.109375 152.667969 192.074219 150.863281 192.042969 149.058594 C 188.144531 149.554688 184.183594 149.765625 180.257812 149.863281 C 178.5625 149.90625 176.871094 150.03125 175.179688 150.175781 C 175.671875 157.164062 175.945312 162.367188 175.875 164.542969 C 175.804688 166.761719 175.582031 169.089844 175.277344 171.589844 C 183.46875 170.359375 191.707031 170.289062 199.957031 170.480469 C 199.957031 170.46875 199.957031 170.460938 199.957031 170.445312 Z M 178.40625 147.582031 C 182.9375 147.335938 187.503906 147.304688 192.011719 146.707031 C 191.984375 144.34375 191.988281 141.984375 192.09375 139.625 C 191.5625 139.734375 191.027344 139.84375 190.496094 139.957031 C 185.308594 141.082031 180.058594 143.210938 174.734375 144.152344 C 174.835938 145.441406 174.929688 146.6875 175.015625 147.890625 C 176.148438 147.78125 177.28125 147.644531 178.40625 147.582031 Z M 194.460938 153.304688 C 198.519531 153.367188 202.605469 153.609375 206.65625 153.457031 C 206.714844 147.332031 206.773438 141.386719 206.804688 137.144531 C 202.6875 137.789062 198.566406 138.394531 194.46875 139.160156 C 194.234375 143.871094 194.417969 148.589844 194.460938 153.304688 Z M 190.839844 137.476562 C 196.132812 136.375 201.484375 135.609375 206.824219 134.773438 C 206.828125 133.855469 206.832031 133.078125 206.832031 132.472656 C 206.832031 132.15625 206.835938 131.851562 206.84375 131.554688 C 195.949219 133.167969 184.992188 134.375 174.085938 135.941406 C 174.253906 137.960938 174.40625 139.921875 174.554688 141.816406 C 180.046875 140.851562 185.507812 138.589844 190.839844 137.476562 Z M 207.789062 121.882812 C 203.589844 123.195312 199.324219 124.289062 195.050781 125.347656 L 195.050781 130.816406 C 199.039062 130.296875 203.023438 129.757812 207 129.160156 C 207.261719 126.5625 207.753906 124.386719 207.988281 121.824219 C 207.921875 121.84375 207.847656 121.863281 207.789062 121.882812 Z M 192.695312 125.929688 C 192.515625 125.976562 192.335938 126.019531 192.15625 126.066406 C 187.964844 127.097656 183.8125 128.339844 179.621094 129.335938 C 177.582031 129.820312 175.613281 130.261719 173.664062 130.792969 C 173.746094 131.738281 173.820312 132.675781 173.898438 133.601562 C 180.15625 132.710938 186.425781 131.933594 192.695312 131.125 Z M 174.363281 122.179688 C 175.628906 120.085938 176.566406 117.820312 177.582031 115.597656 C 179.082031 112.316406 180.792969 107.808594 183.800781 105.304688 C 183.773438 105.246094 183.75 105.1875 183.734375 105.125 C 183.289062 103.398438 183.132812 101.675781 183.121094 99.945312 C 179.089844 100.199219 175.046875 100.285156 171.015625 100.507812 C 171.722656 108.296875 172.4375 116.382812 173.101562 124.105469 C 173.539062 123.472656 173.964844 122.832031 174.363281 122.179688 Z M 193.210938 119.539062 C 191.925781 115.597656 193.492188 110.457031 192.738281 106.578125 C 192.726562 106.53125 192.730469 106.488281 192.722656 106.445312 C 190.777344 106.332031 188.832031 106.21875 186.886719 106.105469 C 186.8125 106.15625 186.730469 106.203125 186.636719 106.238281 C 184.507812 107.089844 183.167969 109.761719 182.128906 111.65625 C 180.90625 113.886719 179.875 116.222656 178.824219 118.539062 C 177.917969 120.53125 176.796875 122.359375 175.632812 124.15625 C 181.382812 122.351562 187.265625 120.972656 193.148438 119.578125 C 193.171875 119.566406 193.1875 119.550781 193.210938 119.539062 Z M 195.253906 113.054688 C 195.214844 114.867188 194.992188 117.144531 195.59375 119 C 199.734375 118.007812 203.867188 116.976562 207.941406 115.757812 C 207.855469 114.921875 207.738281 114.035156 207.578125 113.078125 C 207.304688 111.480469 207.058594 109.386719 206.832031 106.964844 C 202.925781 106.957031 199.019531 106.792969 195.113281 106.582031 C 195.433594 108.722656 195.296875 110.894531 195.253906 113.054688 Z M 183.175781 97.585938 C 183.308594 95.066406 183.621094 92.535156 183.683594 89.988281 C 181.589844 89.792969 179.5 89.53125 177.417969 89.179688 C 176.902344 89.09375 176.566406 88.519531 176.550781 88.042969 C 176.359375 81.863281 176.484375 75.652344 176.328125 69.460938 C 173.601562 69.492188 170.871094 69.523438 168.144531 69.542969 C 168.859375 77.078125 169.8125 87.257812 170.808594 98.183594 C 174.925781 97.945312 179.054688 97.851562 183.175781 97.585938 Z M 185.824219 103.6875 C 192.75 104.074219 199.691406 104.589844 206.625 104.609375 C 206.273438 100.296875 205.980469 95.195312 205.734375 89.953125 C 199.167969 90.398438 192.582031 90.613281 186.035156 90.175781 C 185.894531 94.695312 184.914062 99.214844 185.824219 103.6875 Z M 178.8125 83.167969 C 178.832031 84.457031 178.847656 85.746094 178.882812 87.03125 C 187.707031 88.421875 196.691406 88.234375 205.628906 87.621094 C 205.546875 85.726562 205.472656 83.828125 205.402344 81.953125 C 196.542969 82.472656 187.691406 83.109375 178.8125 83.167969 Z M 191.316406 69.566406 C 191.210938 69.472656 191.117188 69.371094 191.050781 69.238281 C 189.417969 69.28125 187.789062 69.320312 186.167969 69.339844 C 183.664062 69.371094 181.160156 69.402344 178.65625 69.433594 C 178.757812 73.222656 178.761719 77.015625 178.789062 80.808594 C 183.03125 80.785156 187.265625 80.621094 191.496094 80.40625 C 191.355469 76.792969 191.664062 73.175781 191.316406 69.566406 Z M 193.851562 80.28125 C 197.671875 80.066406 201.496094 79.824219 205.316406 79.597656 C 205.1875 75.882812 205.078125 72.320312 204.992188 69.160156 C 201.222656 69.007812 197.425781 69.078125 193.636719 69.171875 C 194.042969 72.867188 193.71875 76.574219 193.851562 80.28125 Z M 204.714844 56.761719 L 191.394531 56.761719 C 192.515625 59.953125 192.828125 63.4375 193.109375 66.824219 C 197.050781 66.734375 201.007812 66.671875 204.933594 66.816406 C 204.777344 60.816406 204.714844 56.761719 204.714844 56.761719 Z M 175.390625 56.761719 L 166.925781 56.761719 C 166.925781 56.761719 167.3125 60.742188 167.921875 67.183594 C 170.699219 67.167969 173.476562 67.136719 176.25 67.105469 C 176.117188 63.644531 175.863281 60.195312 175.390625 56.761719 Z M 178.578125 67.078125 C 180.765625 67.050781 182.949219 67.023438 185.136719 66.996094 C 187.003906 66.972656 188.878906 66.925781 190.757812 66.882812 C 190.492188 63.46875 190.203125 59.898438 188.886719 56.761719 L 177.746094 56.761719 C 178.195312 60.191406 178.441406 63.628906 178.578125 67.078125 Z M 270.976562 86.441406 C 269.261719 85.238281 267.550781 84.03125 265.835938 82.828125 C 266.058594 82.523438 266.277344 82.222656 266.5 81.921875 C 268.199219 83.191406 269.894531 84.460938 271.59375 85.734375 C 271.386719 85.96875 271.179688 86.207031 270.976562 86.441406 Z M 118.242188 160.207031 C 118.726562 160.441406 119.128906 160.582031 119.46875 160.8125 C 119.808594 161.050781 120.082031 161.382812 120.472656 161.753906 C 118.574219 164.453125 116.734375 167.0625 114.777344 169.839844 C 114.136719 169.503906 113.488281 169.167969 112.667969 168.738281 C 114.574219 165.8125 116.371094 163.066406 118.242188 160.207031 Z M 242.984375 265.644531 C 241.960938 268.023438 241.105469 270 240.226562 272.035156 C 236.160156 268.375 235.996094 268.003906 238.222656 265.125 C 239.917969 262.925781 241.183594 265.34375 242.984375 265.644531 Z M 259.242188 298.25 C 259.539062 296.082031 259.660156 293.980469 260.199219 291.988281 C 260.382812 291.316406 261.5625 290.703125 262.402344 290.476562 C 263.359375 290.214844 264.441406 290.417969 265.449219 290.417969 C 265.910156 294.527344 264.3125 296.554688 259.242188 298.25 Z M 134.90625 93.507812 C 133.785156 92.707031 133.023438 92.15625 132.003906 91.421875 C 134.464844 87.710938 136.847656 84.125 139.34375 80.371094 C 140.136719 81.128906 140.8125 81.769531 141.703125 82.617188 C 139.492188 86.160156 137.292969 89.679688 134.90625 93.507812 Z M 112.546875 183.492188 C 115.070312 183.621094 117.601562 183.699219 120.113281 183.925781 C 120.683594 183.976562 121.585938 184.46875 121.679688 184.902344 C 122.210938 187.316406 122.535156 189.773438 122.929688 192.214844 C 122.679688 192.363281 122.429688 192.511719 122.179688 192.664062 C 118.867188 189.804688 115.558594 186.949219 112.246094 184.09375 C 112.347656 183.890625 112.445312 183.691406 112.546875 183.492188 Z M 86.015625 185.585938 C 84.554688 190.738281 83.136719 195.742188 81.652344 200.976562 C 79.941406 201.15625 78.96875 200.582031 79.4375 198.359375 C 80.171875 194.855469 80.765625 191.316406 81.484375 187.808594 C 82.132812 184.640625 82.171875 184.652344 86.015625 185.585938 Z M 260.839844 278.871094 C 263.253906 279.089844 265.363281 279.285156 267.609375 279.492188 C 267.429688 281.160156 267.355469 282.46875 267.140625 283.75 C 266.3125 288.703125 266.109375 288.828125 260.839844 288.074219 C 260.839844 285.144531 260.839844 282.21875 260.839844 278.871094 Z M 234.132812 166.402344 C 233.898438 165.503906 233.320312 164.542969 233.480469 163.726562 C 234.480469 158.65625 235.496094 153.574219 236.875 148.597656 C 237.171875 147.515625 238.957031 146.847656 240.058594 145.988281 C 240.386719 146.25 240.714844 146.511719 241.046875 146.777344 C 239.148438 153.25 237.25 159.722656 235.351562 166.195312 C 234.945312 166.265625 234.539062 166.332031 234.132812 166.402344 Z M 124.554688 184.546875 C 129.027344 184.617188 129.265625 184.832031 129.769531 188.679688 C 130.066406 190.933594 130.476562 193.175781 130.753906 195.433594 C 130.871094 196.40625 130.769531 197.40625 130.769531 198.820312 C 127.171875 196.65625 124.335938 194.894531 125.070312 190.460938 C 125.371094 188.632812 124.765625 186.660156 124.554688 184.546875 Z M 297.28125 192.8125 C 299.792969 194.066406 302.355469 194.757812 304.011719 196.371094 C 305.101562 197.4375 304.890625 199.835938 305.339844 202.035156 C 302.179688 202.355469 299.53125 202.625 296.476562 202.9375 C 296.742188 199.59375 296.988281 196.476562 297.28125 192.8125 Z M 137.898438 310.097656 C 135.785156 310.019531 134.855469 309.074219 135.03125 306.800781 C 135.46875 301.117188 135.730469 295.421875 136.074219 289.734375 C 136.105469 289.210938 136.082031 288.550781 136.382812 288.214844 C 136.898438 287.636719 137.648438 287.269531 138.304688 286.8125 C 138.601562 287.429688 139.183594 288.058594 139.152344 288.660156 C 138.789062 295.75 138.339844 302.835938 137.898438 310.097656 Z M 235.882812 102.03125 C 235.445312 96.371094 234.988281 90.867188 234.597656 85.355469 C 234.410156 82.691406 236.3125 82.535156 238.675781 82.320312 C 238.894531 84.386719 239.183594 86.339844 239.300781 88.304688 C 239.46875 91.285156 239.402344 94.285156 239.644531 97.257812 C 239.960938 101.089844 240.050781 101.085938 235.882812 102.03125 Z M 224.574219 255.007812 C 230.46875 247.703125 236.300781 240.472656 242.1875 233.171875 C 243.082031 234.84375 242.992188 236.167969 241.71875 237.804688 C 237.621094 243.074219 233.730469 248.507812 229.808594 253.910156 C 228.445312 255.789062 226.976562 256.851562 224.574219 255.007812 Z M 213.605469 72.042969 C 214.484375 76.550781 215.324219 80.84375 216.210938 85.390625 C 216.289062 85.25 216.242188 85.460938 216.113281 85.539062 C 210.84375 88.761719 209.898438 88.3125 209.1875 82.164062 C 208.945312 80.066406 208.886719 77.949219 208.671875 75.84375 C 208.335938 72.535156 208.386719 72.421875 211.621094 72.050781 C 212.222656 71.984375 212.835938 72.042969 213.605469 72.042969 Z M 220.007812 101.09375 C 221.890625 109.046875 220.832031 111.160156 213.023438 114.472656 C 212.472656 110.765625 211.9375 107.167969 211.390625 103.523438 C 214.289062 102.707031 217.148438 101.902344 220.007812 101.09375 Z M 162.96875 226.34375 C 161.207031 224.933594 159.425781 223.535156 157.691406 222.082031 C 157.394531 221.832031 157.058594 221.308594 157.128906 220.988281 C 158.160156 216.046875 159.257812 211.117188 160.34375 206.160156 C 162.628906 206.082031 163.28125 207.03125 163.273438 209.15625 C 163.25 213.835938 163.539062 218.519531 163.6875 223.199219 C 163.714844 224.136719 163.691406 225.078125 163.691406 226.015625 C 163.453125 226.125 163.210938 226.234375 162.96875 226.34375 Z M 223.085938 70.363281 C 223.875 74.722656 224.605469 78.742188 225.335938 82.804688 C 223.113281 83.425781 221.113281 83.984375 218.539062 84.699219 C 217.792969 80.339844 217.066406 76.097656 216.296875 71.621094 C 218.710938 71.175781 220.734375 70.800781 223.085938 70.363281 Z M 220.210938 89.449219 C 220.210938 91.996094 220.285156 94.429688 220.160156 96.855469 C 220.128906 97.488281 219.597656 98.421875 219.058594 98.644531 C 216.476562 99.714844 213.8125 100.589844 210.402344 101.8125 C 210.402344 98.769531 210.269531 96.261719 210.480469 93.785156 C 210.542969 93.015625 211.386719 91.921875 212.109375 91.671875 C 214.652344 90.792969 217.296875 90.21875 220.210938 89.449219 Z M 161.832031 162.789062 C 160.136719 162.332031 158.441406 162.011719 156.847656 161.417969 C 149.863281 158.828125 142.925781 156.109375 135.933594 153.542969 C 133.671875 152.714844 132.828125 151.480469 134.019531 148.863281 C 135.554688 149.480469 137.117188 150.125 138.6875 150.746094 C 145.445312 153.402344 152.167969 156.15625 158.984375 158.644531 C 160.96875 159.367188 162.195312 160.144531 161.832031 162.789062 Z M 144.835938 287.355469 C 144.835938 291.5625 144.835938 295.683594 144.835938 299.804688 C 144.835938 304.011719 144.835938 308.214844 144.835938 312.441406 C 140.683594 312.113281 140.226562 311.730469 140.390625 308.164062 C 140.6875 301.757812 141.082031 295.355469 141.484375 288.949219 C 141.605469 287.03125 141.675781 287.039062 144.835938 287.355469 Z M 275.398438 233.859375 C 273.484375 236.6875 271.734375 239.417969 269.832031 242.035156 C 268.71875 243.566406 264.519531 243.695312 261.4375 242.382812 C 263.691406 238.339844 265.941406 234.316406 268.351562 229.996094 C 270.777344 231.324219 273.042969 232.566406 275.398438 233.859375 Z M 84.171875 232.15625 C 84.171875 235.332031 84.171875 238.125 84.171875 241.199219 C 78.234375 241.792969 72.363281 242.78125 66.5 241.875 C 66.484375 241.492188 66.464844 241.113281 66.441406 240.734375 C 72.230469 237.933594 78.015625 235.132812 84.171875 232.15625 Z M 142.929688 80.386719 C 142.074219 79.609375 141.308594 78.917969 140.222656 77.933594 C 143.890625 72.34375 147.480469 66.75 151.222656 61.257812 C 152.203125 59.820312 153.820312 59.472656 155.34375 60.636719 C 156.953125 61.859375 156.339844 62.949219 155.246094 64.328125 C 151.109375 69.542969 147.128906 74.878906 142.929688 80.386719 Z M 79.21875 258.9375 C 79.492188 257.222656 79.699219 255.953125 79.921875 254.582031 C 85.503906 254.308594 90.992188 254.042969 96.945312 253.753906 C 96.796875 256.085938 96.65625 258.296875 96.472656 261.207031 C 90.675781 260.445312 85.105469 259.710938 79.21875 258.9375 Z M 122.269531 231.164062 C 125.058594 231.496094 127.296875 231.761719 129.589844 232.039062 C 129.304688 236.207031 129.042969 240.128906 128.757812 244.050781 C 128.429688 248.589844 128.347656 248.640625 123.285156 247.859375 C 122.953125 242.417969 122.617188 236.890625 122.269531 231.164062 Z M 243.03125 288.277344 C 245.1875 289.730469 246.769531 290.664062 248.171875 291.8125 C 248.691406 292.238281 249.101562 293.195312 249.042969 293.871094 C 248.746094 297.535156 248.332031 301.195312 247.816406 304.839844 C 247.746094 305.335938 246.9375 305.824219 246.371094 306.128906 C 245.074219 306.832031 243.714844 307.414062 241.675781 308.382812 C 242.136719 301.539062 242.5625 295.257812 243.03125 288.277344 Z M 96.914062 241.113281 C 93.234375 241.113281 90.113281 241.113281 86.875 241.113281 C 86.875 238.058594 86.820312 235.09375 86.921875 232.132812 C 86.941406 231.578125 87.449219 230.804688 87.945312 230.546875 C 90.261719 229.339844 92.660156 228.273438 95.285156 227.039062 C 95.832031 231.746094 96.347656 236.214844 96.914062 241.113281 Z M 104.085938 198.644531 C 99.191406 195.535156 94.257812 192.484375 89.445312 189.253906 C 88.800781 188.824219 88.429688 187.476562 88.539062 186.636719 C 88.601562 186.191406 89.96875 185.652344 90.765625 185.628906 C 93.832031 185.53125 96.910156 185.535156 99.972656 185.703125 C 100.726562 185.746094 101.925781 186.421875 102.082031 187.027344 C 103.027344 190.640625 103.730469 194.316406 104.511719 197.96875 C 104.371094 198.195312 104.230469 198.421875 104.085938 198.644531 Z M 80.296875 109.914062 C 84.617188 104.828125 88.929688 99.738281 93.59375 94.242188 C 94.972656 98.707031 96.132812 102.46875 97.453125 106.742188 C 91.78125 108.007812 86.28125 109.230469 80.777344 110.453125 C 80.621094 110.273438 80.457031 110.09375 80.296875 109.914062 Z M 99.519531 282.675781 C 104.78125 283.960938 109.996094 285.234375 115.570312 286.59375 C 115.019531 289.851562 114.414062 293.421875 113.714844 297.53125 C 111.136719 295.660156 108.800781 294.03125 106.542969 292.304688 C 104.660156 290.867188 102.921875 289.242188 101.015625 287.835938 C 99.332031 286.597656 98.542969 285.167969 99.519531 282.675781 Z M 98.34375 109.1875 C 98.878906 110.558594 99.511719 112.167969 100.300781 114.191406 C 91.425781 116.394531 82.734375 118.554688 73.632812 120.816406 C 75.625 116.878906 77.238281 113.648438 82.011719 112.996094 C 87.363281 112.265625 92.582031 110.574219 98.34375 109.1875 Z M 292.773438 218.796875 C 291.0625 224.222656 289.480469 229.691406 287.539062 235.027344 C 287.113281 236.195312 285.515625 237.136719 284.246094 237.761719 C 280.769531 239.472656 277.183594 240.957031 273.640625 242.53125 C 273.410156 242.1875 273.183594 241.84375 272.957031 241.5 C 279.316406 233.777344 285.671875 226.054688 292.035156 218.328125 C 292.28125 218.488281 292.527344 218.644531 292.773438 218.796875 Z M 240.28125 106.074219 C 240.28125 110.851562 240.328125 115.148438 240.226562 119.441406 C 240.210938 120.074219 239.648438 120.996094 239.089844 121.253906 C 236.25 122.582031 233.332031 123.734375 229.839844 125.199219 C 230.207031 121.589844 230.957031 118.472656 230.726562 115.429688 C 230.398438 111.101562 232.683594 109.152344 236.148438 107.773438 C 237.4375 107.261719 238.707031 106.722656 240.28125 106.074219 Z M 297.351562 144.3125 C 296.03125 143.796875 294.90625 143.324219 293.753906 142.914062 C 291.671875 142.171875 289.695312 141.542969 291.480469 138.589844 C 291.835938 138 291.105469 136.375 290.433594 135.625 C 289.222656 134.277344 287.671875 133.234375 285.992188 131.839844 C 286.898438 130.105469 287.847656 128.289062 288.816406 126.425781 C 293.511719 128.90625 297.996094 131.277344 302.796875 133.816406 C 301.023438 137.234375 299.1875 140.773438 297.351562 144.3125 Z M 208.140625 69.820312 C 207.664062 65.511719 207.21875 61.453125 206.695312 56.761719 C 211.539062 57.808594 216.046875 58.75 220.53125 59.800781 C 220.960938 59.902344 221.355469 60.621094 221.550781 61.132812 C 221.765625 61.691406 221.722656 62.34375 221.800781 62.957031 C 222.460938 68.253906 222.460938 68.210938 217 68.714844 C 214.140625 68.976562 211.300781 69.421875 208.140625 69.820312 Z M 269.625 227.675781 C 273.347656 222.03125 276.863281 216.699219 280.734375 210.832031 C 282.566406 214.5 284.117188 217.507812 285.542969 220.574219 C 285.730469 220.972656 285.4375 221.777344 285.117188 222.207031 C 282.648438 225.507812 280.117188 228.761719 277.484375 232.1875 C 274.886719 230.695312 272.488281 229.320312 269.625 227.675781 Z M 287.40625 218.695312 C 285.859375 215.46875 284.234375 212.078125 282.464844 208.390625 C 286.273438 203.375 290.265625 198.113281 294.558594 192.460938 C 294.558594 195.25 294.664062 197.410156 294.53125 199.558594 C 294.371094 202.101562 293.550781 204.679688 293.824219 207.152344 C 294.421875 212.519531 292.714844 216.394531 287.40625 218.695312 Z M 275.292969 138.328125 C 269.910156 128.804688 267.902344 121.597656 268.753906 114.679688 C 274.042969 117.398438 279.21875 120.058594 284.746094 122.902344 C 281.578125 128.074219 278.53125 133.050781 275.292969 138.328125 Z M 68.160156 244.855469 C 77.886719 244.273438 87.148438 243.71875 96.660156 243.148438 C 96.660156 245.863281 96.660156 248.347656 96.660156 251.300781 C 88.644531 251.429688 80.683594 251.582031 72.71875 251.644531 C 72.183594 251.648438 71.4375 251.085938 71.144531 250.582031 C 70.136719 248.859375 69.285156 247.042969 68.160156 244.855469 Z M 84.023438 201.738281 C 84.964844 198.441406 85.957031 194.976562 86.871094 191.769531 C 92.785156 194.917969 98.292969 197.933594 103.886719 200.773438 C 105.378906 201.53125 106.207031 202.414062 106.460938 204.0625 C 106.863281 206.644531 107.425781 209.199219 108.011719 212.21875 C 99.953125 208.699219 92.214844 205.320312 84.023438 201.738281 Z M 302.664062 190.84375 C 300.359375 189.292969 298.363281 187.953125 296.222656 186.515625 C 301.117188 177.125 305.933594 167.878906 310.78125 158.574219 C 314.785156 159.953125 318.03125 161.613281 318.074219 166.558594 C 318.101562 169.59375 318.78125 172.621094 319.25 176.328125 C 317.144531 174.902344 315.496094 173.925781 314 172.75 C 312.210938 171.347656 311.246094 171.863281 310.441406 173.796875 C 308.507812 178.425781 306.488281 183.015625 304.46875 187.605469 C 304.046875 188.558594 303.457031 189.433594 302.664062 190.84375 Z M 115.453125 250.542969 C 113.035156 250.789062 112.28125 250.070312 112.433594 247.726562 C 112.746094 242.988281 113.21875 238.226562 113.011719 233.503906 C 112.851562 229.914062 111.875 226.335938 110.933594 222.839844 C 110.757812 222.179688 109.042969 221.554688 108.054688 221.582031 C 106.914062 221.613281 105.796875 222.386719 104.992188 222.707031 C 108.386719 235.59375 107.277344 248.601562 107.386719 262.019531 C 114.359375 261.546875 121.222656 261.078125 128.238281 260.597656 C 128.238281 257.191406 128.238281 253.785156 128.238281 249.875 C 123.84375 250.082031 119.628906 250.121094 115.453125 250.542969 Z M 73.265625 254.6875 C 74.417969 256.289062 75.269531 257.472656 76.121094 258.65625 C 76.363281 258.5625 76.605469 258.46875 76.84375 258.371094 C 77.089844 257.152344 77.335938 255.9375 77.589844 254.6875 C 76.089844 254.6875 74.902344 254.6875 73.265625 254.6875 Z M 252.246094 221.910156 C 250.011719 223.863281 248.496094 222.613281 246.738281 221.53125 C 247.304688 220.671875 247.8125 219.902344 248.488281 218.871094 C 249.742188 219.886719 250.859375 220.789062 252.246094 221.910156 Z M 253.109375 73.925781 C 250.949219 74.472656 248.796875 75.023438 245.761719 75.792969 C 246.871094 73.660156 247.597656 72.261719 248.511719 70.5 C 250.191406 71.40625 251.714844 72.234375 253.238281 73.058594 C 253.195312 73.347656 253.152344 73.636719 253.109375 73.925781 Z M 241.640625 67.164062 C 242.957031 67.761719 243.898438 68.171875 244.824219 68.621094 C 245.28125 68.847656 245.703125 69.140625 246.324219 69.511719 C 245.140625 71.828125 244.007812 74.042969 242.878906 76.257812 C 242.648438 76.238281 242.421875 76.222656 242.195312 76.203125 C 242.019531 73.355469 241.847656 70.503906 241.640625 67.164062 Z M 162.242188 145.003906 C 160.550781 144.53125 159.164062 144.148438 157.742188 143.75 C 158.835938 140.65625 159.839844 137.800781 160.847656 134.949219 C 161.050781 134.957031 161.25 134.964844 161.449219 134.976562 C 161.707031 138.210938 161.960938 141.449219 162.242188 145.003906 Z M 279.089844 146.148438 C 284.445312 148.816406 284.445312 148.816406 282.472656 152.703125 C 280.738281 151.988281 278.988281 151.265625 276.953125 150.429688 C 277.640625 149.054688 278.351562 147.632812 279.089844 146.148438 Z M 209.320312 144.902344 C 208.710938 137.855469 208.710938 137.855469 212.597656 136.730469 C 212.917969 139.417969 213.230469 142.027344 213.574219 144.902344 C 211.960938 144.902344 210.714844 144.902344 209.320312 144.902344 Z M 65.3125 231.785156 C 65.6875 231.320312 66.066406 230.855469 66.441406 230.390625 C 70.585938 225.25 70.585938 225.25 77.375 228.238281 C 73.214844 229.695312 69.433594 231.019531 65.652344 232.34375 C 65.539062 232.160156 65.425781 231.972656 65.3125 231.785156 Z M 277.242188 160.472656 C 275.097656 165.449219 274.929688 165.496094 269.484375 162.957031 C 270.933594 157.929688 270.933594 157.929688 277.242188 160.472656 Z M 284.695312 154.402344 C 285.28125 152.914062 285.757812 151.707031 286.351562 150.195312 C 288.523438 151.066406 290.574219 151.882812 292.984375 152.84375 C 291.816406 154.441406 290.832031 155.789062 289.671875 157.382812 C 288.054688 156.414062 286.503906 155.484375 284.695312 154.402344 Z M 214.699219 135.625 C 215.972656 135.132812 217.089844 134.703125 218.625 134.105469 C 218.625 137.457031 218.765625 140.425781 218.519531 143.359375 C 218.460938 144.058594 217.105469 144.644531 215.882812 145.675781 C 215.425781 141.785156 215.078125 138.839844 214.699219 135.625 Z M 62.703125 231.8125 C 61.671875 228.496094 60.824219 225.769531 59.78125 222.417969 C 62.753906 223.40625 65.179688 224.214844 68.035156 225.164062 C 66.265625 227.367188 64.664062 229.363281 62.703125 231.8125 Z M 228.257812 304.542969 C 227.664062 304.96875 227.050781 305.785156 226.484375 305.753906 C 220.972656 305.441406 215.464844 305.011719 209.960938 304.53125 C 209.453125 304.488281 208.992188 303.871094 208.507812 303.523438 C 209.195312 303.230469 209.898438 302.644531 210.558594 302.6875 C 215.535156 303.007812 220.5 303.457031 225.46875 303.839844 C 226.242188 303.902344 227.023438 303.851562 227.800781 303.851562 C 227.953125 304.082031 228.105469 304.3125 228.257812 304.542969 Z M 254.050781 203.320312 C 252.21875 202.347656 250.714844 201.546875 249.238281 200.761719 C 251.398438 194.25 251.777344 195.097656 256.695312 196.992188 C 255.847656 199.019531 255.003906 201.039062 254.050781 203.320312 Z M 283.984375 168.753906 C 281.753906 167.707031 279.871094 166.828125 277.628906 165.78125 C 278.367188 164.242188 279.042969 162.828125 279.75 161.355469 C 282.097656 162.179688 284.144531 162.898438 286.519531 163.738281 C 285.683594 165.394531 284.886719 166.96875 283.984375 168.753906 Z M 280.464844 193.136719 C 279.136719 192.109375 278.066406 191.277344 276.730469 190.242188 C 278.339844 188.136719 279.667969 185.992188 281.445312 184.320312 C 281.984375 183.8125 283.75 184.609375 285.390625 184.878906 C 283.527344 188 282.070312 190.445312 280.464844 193.136719 Z M 116.4375 298.578125 C 120.632812 299.3125 124.820312 300.039062 129.296875 300.820312 C 129.09375 302.445312 128.886719 304.128906 128.617188 306.335938 C 124.207031 303.820312 120.15625 301.507812 116.109375 299.195312 C 116.21875 298.992188 116.328125 298.785156 116.4375 298.578125 Z M 283.996094 106.542969 C 278.949219 104.324219 278.949219 104.324219 280.679688 99.59375 C 281.125 98.378906 281.550781 97.15625 282 95.90625 C 286.152344 98.605469 286.351562 99.683594 283.996094 106.542969 Z M 207.996094 313.523438 C 213.875 313.523438 219.78125 313.523438 225.691406 313.523438 C 225.734375 313.808594 225.78125 314.097656 225.828125 314.382812 C 221.992188 315.34375 218.160156 316.304688 214.320312 317.265625 C 214.152344 317.308594 213.976562 317.3125 213.804688 317.34375 C 209.167969 318.214844 209.167969 318.214844 207.996094 313.523438 Z M 283.636719 109.257812 C 282.640625 112.152344 281.714844 114.851562 280.839844 117.386719 C 280.460938 117.488281 280.363281 117.554688 280.292969 117.527344 C 275.105469 115.785156 275.105469 115.785156 276.878906 110.625 C 277.304688 109.382812 277.714844 108.136719 278.230469 106.597656 C 279.988281 107.460938 281.609375 108.257812 283.636719 109.257812 Z M 287.730469 186.550781 C 289.457031 187.8125 290.910156 188.878906 292.441406 190 C 292.160156 190.558594 292 191.0625 291.691406 191.457031 C 289.972656 193.632812 288.21875 195.785156 286.300781 198.160156 C 285.011719 196.96875 283.832031 195.875 282.597656 194.734375 C 284.367188 191.910156 286.015625 189.285156 287.730469 186.550781 Z M 228.074219 296.167969 C 222.585938 295.78125 217.257812 295.453125 211.941406 295 C 210.632812 294.890625 208.632812 295.199219 209.316406 292.5 C 215.15625 292.5 221.015625 292.4375 226.871094 292.542969 C 228.402344 292.574219 228.476562 293.074219 228.074219 296.167969 Z M 253.878906 219.722656 C 249.660156 217.058594 249.515625 216.816406 251.574219 212.929688 C 252.503906 211.167969 253.859375 209.628906 255.175781 207.769531 C 256.789062 208.386719 258.304688 208.96875 260.15625 209.675781 C 258.011719 213.105469 255.984375 216.351562 253.878906 219.722656 Z M 71.191406 199.875 C 70.710938 201.238281 70.359375 202.222656 69.863281 203.621094 C 65.722656 202.167969 61.570312 201.011719 57.75 199.167969 C 56.722656 198.671875 56.699219 196.085938 56.03125 193.855469 C 61.488281 196.019531 66.234375 197.902344 71.191406 199.875 Z M 314.28125 201.648438 C 318.59375 203.621094 318.921875 204.253906 318.0625 208.398438 C 317.054688 213.277344 316.078125 218.164062 315.089844 223.042969 C 314.820312 223.015625 314.550781 222.988281 314.28125 222.957031 C 314.28125 215.917969 314.28125 208.875 314.28125 201.648438 Z M 147.351562 141.496094 C 145.976562 141.433594 144.671875 141.375 142.910156 141.292969 C 143.269531 136.960938 143.617188 132.734375 143.992188 128.226562 C 146.089844 128.808594 147.894531 129.308594 149.730469 129.816406 C 148.933594 133.730469 148.171875 137.472656 147.351562 141.496094 Z M 110.335938 167.742188 C 105.152344 164.867188 99.90625 161.957031 94.53125 158.976562 C 95.019531 157.964844 95.347656 157.28125 95.640625 156.683594 C 100.503906 158.558594 105.261719 160.265625 109.90625 162.238281 C 113 163.546875 113.042969 164.671875 110.335938 167.742188 Z M 159.308594 131.765625 C 158.175781 135.070312 157.105469 138.03125 156.160156 141.027344 C 155.316406 143.691406 153.488281 142.773438 151.691406 142.492188 C 149.585938 142.164062 150.078125 140.839844 150.367188 139.554688 C 150.914062 137.082031 151.511719 134.617188 152.050781 132.140625 C 152.355469 130.71875 153.144531 130.296875 154.523438 130.664062 C 156.039062 131.066406 157.578125 131.371094 159.308594 131.765625 Z M 229.269531 143.769531 C 227.914062 135.480469 229.753906 133.636719 238.316406 134.453125 C 238.144531 136.84375 238.023438 139.25 237.75 141.640625 C 237.703125 142.066406 237.070312 142.691406 236.628906 142.769531 C 234.234375 143.175781 231.816406 143.4375 229.269531 143.769531 Z M 303.894531 163.734375 C 302.519531 163.085938 301.449219 162.574219 300.714844 162.226562 C 304.210938 155.339844 307.59375 148.664062 311.152344 141.660156 C 312.613281 144.277344 313.265625 146.328125 311.71875 148.960938 C 308.960938 153.648438 306.601562 158.566406 303.894531 163.734375 Z M 298.902344 160.300781 C 296.914062 159.132812 295.863281 158.246094 297.1875 155.992188 C 300.921875 149.640625 304.386719 143.121094 307.957031 136.671875 C 308.167969 136.300781 308.410156 135.945312 308.6875 135.5 C 310.144531 137.210938 309.898438 138.714844 308.972656 140.53125 C 306.140625 146.089844 303.523438 151.753906 300.78125 157.355469 C 300.285156 158.363281 299.570312 159.265625 298.902344 160.300781 Z M 56.464844 201.023438 C 61.03125 202.640625 65.066406 204.0625 69.46875 205.621094 C 68.519531 207.449219 67.734375 209.195312 66.707031 210.785156 C 66.425781 211.222656 65.324219 211.496094 64.765625 211.320312 C 62.421875 210.585938 60.121094 209.695312 57.851562 208.746094 C 57.394531 208.558594 56.90625 207.894531 56.851562 207.402344 C 56.640625 205.410156 56.59375 203.40625 56.464844 201.023438 Z M 286.125 120.585938 C 284.695312 119.832031 283.71875 119.3125 282.890625 118.875 C 284.597656 113.25 286.238281 107.828125 288.042969 101.894531 C 289.644531 103.90625 291.132812 105.671875 292.480469 107.542969 C 292.734375 107.902344 292.609375 108.753906 292.359375 109.21875 C 290.351562 112.972656 288.273438 116.691406 286.125 120.585938 Z M 293.808594 266.5625 C 290.300781 270.75 287.125 274.542969 283.945312 278.332031 C 283.675781 278.25 283.40625 278.164062 283.132812 278.078125 C 283.410156 272.488281 283.683594 266.890625 283.953125 261.296875 C 284.25 261.128906 284.546875 260.960938 284.839844 260.792969 C 287.714844 262.644531 290.59375 264.492188 293.808594 266.5625 Z M 246.988281 203.199219 C 249.152344 204.476562 251.101562 205.625 252.992188 206.738281 C 250.207031 211.398438 247.535156 215.867188 244.839844 220.378906 C 244.03125 219.816406 243.558594 219.484375 243.078125 219.152344 C 239.101562 216.398438 239.074219 215.964844 241.707031 211.957031 C 243.519531 209.199219 245.125 206.304688 246.988281 203.199219 Z M 288.386719 257.699219 C 291.667969 252.914062 294.777344 248.375 298.074219 243.5625 C 299.617188 246.164062 300.960938 248.394531 302.261719 250.648438 C 302.515625 251.089844 302.886719 251.789062 302.714844 252.101562 C 301.144531 254.9375 299.488281 257.730469 297.785156 260.492188 C 297.648438 260.710938 296.941406 260.757812 296.582031 260.632812 C 294.027344 259.757812 291.492188 258.820312 288.386719 257.699219 Z M 232.261719 80.988281 C 231.433594 74.746094 230.652344 68.851562 229.804688 62.441406 C 232.632812 63.523438 235.230469 64.410156 237.714844 65.546875 C 238.285156 65.8125 238.679688 66.902344 238.78125 67.664062 C 239.15625 70.449219 239.273438 73.269531 239.683594 76.046875 C 239.941406 77.761719 239.257812 78.765625 237.804688 79.292969 C 236.09375 79.914062 234.320312 80.367188 232.261719 80.988281 Z M 210.890625 174.054688 C 211.097656 173.894531 211.160156 173.800781 211.234375 173.789062 C 217.242188 172.824219 217.472656 173.046875 217.558594 179.039062 C 217.605469 182.550781 217.675781 186.066406 217.953125 189.566406 C 218.101562 191.4375 217.746094 192.566406 215.710938 192.890625 C 214.171875 193.132812 212.675781 193.605469 210.890625 194.046875 C 210.890625 187.121094 210.890625 180.535156 210.890625 174.054688 Z M 242.144531 90.703125 C 241.875 88.125 241.855469 86.171875 241.421875 84.3125 C 240.898438 82.054688 241.914062 81.105469 243.847656 80.539062 C 247.632812 79.429688 251.390625 78.222656 255.191406 77.179688 C 255.808594 77.011719 256.738281 77.296875 257.285156 77.695312 C 258.683594 78.722656 259.941406 79.929688 261.824219 81.558594 C 254.816406 84.8125 248.660156 87.671875 242.144531 90.703125 Z M 146.230469 262.796875 C 146.980469 259.417969 147.664062 256.347656 148.375 253.164062 C 152.691406 253.863281 156.757812 254.46875 160.792969 255.230469 C 161.34375 255.332031 162.160156 256.21875 162.144531 256.722656 C 162.097656 258.652344 161.851562 260.585938 161.46875 262.480469 C 161.382812 262.914062 160.515625 263.332031 159.929688 263.507812 C 155.375 264.894531 150.929688 264.132812 146.230469 262.796875 Z M 160.660156 285.320312 C 160.457031 289.398438 160.273438 293.0625 160.082031 296.859375 C 155.984375 297.417969 152.117188 297.941406 148.128906 298.480469 C 148.128906 294.957031 148.070312 291.71875 148.183594 288.488281 C 148.207031 287.910156 148.878906 286.9375 149.367188 286.855469 C 152.988281 286.261719 156.640625 285.84375 160.660156 285.320312 Z M 55.910156 181.332031 C 55.378906 173.6875 57.699219 159.042969 61.320312 150.148438 C 61.882812 160.300781 62.445312 170.457031 63.023438 180.855469 C 60.246094 181.042969 58.15625 181.183594 55.910156 181.332031 Z M 103.667969 176.050781 C 101.496094 176.050781 99.664062 175.910156 97.867188 176.085938 C 95.441406 176.324219 94.347656 175.421875 93.65625 173.015625 C 92.167969 167.8125 90.28125 162.71875 88.507812 157.441406 C 92.761719 159.980469 97.035156 162.496094 101.253906 165.105469 C 101.757812 165.417969 102.136719 166.207031 102.25 166.828125 C 102.777344 169.851562 103.195312 172.894531 103.667969 176.050781 Z M 159.878906 299.414062 C 159.222656 305.316406 158.601562 310.84375 157.945312 316.746094 C 154.730469 315.851562 151.773438 315.085938 148.863281 314.167969 C 148.378906 314.015625 147.796875 313.210938 147.777344 312.691406 C 147.648438 309.257812 147.617188 305.820312 147.6875 302.390625 C 147.695312 301.921875 148.398438 301.140625 148.875 301.058594 C 152.410156 300.449219 155.96875 299.976562 159.878906 299.414062 Z M 213.054688 225.332031 C 212.148438 215.597656 211.257812 206.050781 210.363281 196.453125 C 213.183594 195.828125 215.371094 195.34375 217.746094 194.816406 C 217.789062 195.714844 217.859375 196.394531 217.855469 197.078125 C 217.824219 204.539062 217.839844 212.007812 217.71875 219.46875 C 217.648438 223.703125 217.546875 223.703125 213.054688 225.332031 Z M 285.992188 256.9375 C 284.445312 255.992188 282.753906 254.957031 280.839844 253.785156 C 286.492188 244.445312 291.023438 234.882812 293.246094 224.347656 C 293.507812 224.371094 293.769531 224.398438 294.027344 224.425781 C 294.136719 225.203125 294.207031 225.988281 294.355469 226.757812 C 295.21875 231.148438 296.179688 235.519531 296.914062 239.929688 C 297.074219 240.886719 296.707031 242.164062 296.136719 242.980469 C 292.914062 247.570312 289.558594 252.066406 285.992188 256.9375 Z M 304.800781 249.257812 C 298.929688 241.398438 297.550781 232.851562 296.574219 223.742188 C 299.773438 223.148438 302.921875 222.566406 306.222656 221.953125 C 307.148438 227.9375 308.628906 233.648438 308.671875 239.371094 C 308.699219 242.507812 306.296875 245.664062 304.800781 249.257812 Z M 233.101562 279.085938 C 235.496094 281.253906 237.953125 283.363281 240.246094 285.632812 C 240.742188 286.125 240.84375 287.21875 240.796875 288.019531 C 240.425781 294.671875 240.003906 301.324219 239.511719 307.96875 C 239.464844 308.597656 238.964844 309.484375 238.433594 309.734375 C 236.472656 310.65625 234.410156 311.359375 232.316406 312.171875 C 232.316406 301.070312 232.316406 290.238281 232.316406 279.40625 C 232.578125 279.300781 232.839844 279.191406 233.101562 279.085938 Z M 222.347656 254.058594 C 220.628906 253.351562 219.105469 252.722656 217.171875 251.925781 C 218.824219 249.28125 220.3125 246.769531 221.929688 244.347656 C 224.226562 240.898438 226.640625 237.527344 228.976562 234.105469 C 230.820312 231.40625 232.667969 228.707031 234.40625 225.9375 C 234.941406 225.085938 234.957031 223.90625 235.5 223.066406 C 236.101562 222.136719 237.347656 220.613281 237.761719 220.777344 C 238.867188 221.203125 240.183594 222.242188 240.511719 223.3125 C 241.707031 227.226562 240.945312 230.589844 238.0625 233.945312 C 232.582031 240.324219 227.664062 247.1875 222.347656 254.058594 Z M 57.234375 210.90625 C 69.144531 214.75 80.785156 218.511719 93.140625 222.503906 C 87.695312 224.40625 83.328125 227.703125 77.632812 225.851562 C 71.957031 224.003906 66.207031 222.390625 60.515625 220.605469 C 59.945312 220.425781 59.214844 219.847656 59.082031 219.320312 C 58.375 216.542969 57.835938 213.722656 57.234375 210.90625 Z M 252.996094 118.101562 C 250.667969 126.195312 248.421875 134.019531 246.136719 141.960938 C 244.128906 141.960938 242.210938 141.960938 239.765625 141.960938 C 239.996094 139.6875 240.105469 137.371094 240.5 135.101562 C 240.894531 132.859375 240.136719 132.007812 237.890625 132.09375 C 235.1875 132.195312 232.480469 132.117188 229.6875 132.117188 C 229.0625 129.003906 229.425781 128.433594 232.492188 127.109375 C 239.175781 124.226562 245.820312 121.257812 252.996094 118.101562 Z M 116.085938 158.867188 C 115.390625 160.078125 114.832031 161.050781 114.222656 162.105469 C 108.464844 159.515625 102.789062 157.054688 97.210938 154.394531 C 95.648438 153.648438 94.75 153.917969 93.90625 155.222656 C 93.4375 155.953125 92.988281 156.695312 92.546875 157.398438 C 88.210938 155.875 85.308594 153.292969 84.472656 148.605469 C 83.90625 145.441406 82.855469 142.363281 82.019531 139.25 C 82.246094 139.015625 82.476562 138.777344 82.703125 138.542969 C 93.785156 145.289062 104.867188 152.035156 116.085938 158.867188 Z M 158.714844 237.3125 C 157.652344 242.445312 156.726562 246.886719 155.757812 251.550781 C 153.601562 251.128906 151.519531 250.84375 149.507812 250.292969 C 147.515625 249.746094 146.398438 249.941406 146.03125 252.339844 C 145.511719 255.71875 144.625 259.035156 143.832031 262.667969 C 142.265625 262.554688 140.660156 262.441406 138.894531 262.3125 C 138.894531 261.300781 138.746094 260.492188 138.921875 259.765625 C 140.695312 252.425781 142.53125 245.101562 144.324219 237.765625 C 144.742188 236.050781 145.699219 235.664062 147.414062 235.9375 C 151.023438 236.507812 154.671875 236.835938 158.714844 237.3125 Z M 227.574219 221.792969 C 228.121094 220.796875 228.199219 219.4375 228.191406 218.25 C 228.117188 210.328125 227.664062 202.394531 227.921875 194.484375 C 228.167969 186.847656 228.753906 179.175781 229.910156 171.628906 C 230.519531 167.652344 229.269531 165.632812 226.082031 163.941406 C 224.054688 162.871094 222.207031 161.472656 219.566406 159.757812 C 220.023438 185.839844 221.183594 211.078125 219.21875 236.277344 C 222.019531 231.457031 224.882812 226.675781 227.574219 221.792969 Z M 311.957031 156.421875 C 313.394531 157.109375 314.605469 157.691406 316.410156 158.558594 C 315.769531 155.972656 315.28125 154.003906 314.621094 151.347656 C 313.570312 153.355469 312.828125 154.769531 311.957031 156.421875 Z M 237.507812 276.785156 C 239.410156 274.109375 239.277344 273.714844 235.351562 270.859375 C 233.292969 274.316406 233.625 275.195312 237.507812 276.785156 Z M 217.460938 260.332031 C 218.480469 259.066406 219.53125 257.769531 220.761719 256.242188 C 218.992188 255.429688 217.675781 254.820312 216.398438 254.230469 C 213.625 257.980469 213.695312 258.394531 217.460938 260.332031 Z M 235.550781 200.5625 C 238.308594 201.832031 238.308594 201.832031 241.675781 196.40625 C 240.132812 196.070312 238.609375 195.742188 236.789062 195.347656 C 236.320312 197.308594 235.929688 198.960938 235.550781 200.5625 Z M 230.644531 193.375 C 229.238281 198.25 229.726562 199.300781 233.78125 199.839844 C 235.703125 194.496094 235.417969 193.925781 230.644531 193.375 Z M 265.058594 184.914062 C 267.554688 185.875 270.054688 186.839844 272.710938 187.859375 C 273.179688 187 273.589844 186.257812 274.046875 185.421875 C 269.828125 182.292969 266.152344 182.046875 265.058594 184.914062 Z M 156.101562 176.542969 C 156.101562 178.09375 156.101562 178.878906 156.101562 179.660156 C 156.101562 180.492188 156.101562 181.328125 156.101562 182.113281 C 161.699219 183.144531 161.816406 183.089844 162.269531 179.195312 C 160.25 178.328125 158.359375 177.515625 156.101562 176.542969 Z M 294.445312 149.78125 C 295.066406 148.585938 295.609375 147.53125 296.175781 146.441406 C 293.695312 145.507812 291.445312 144.660156 289.128906 143.789062 C 288.652344 144.929688 288.28125 145.8125 287.765625 147.035156 C 289.960938 147.9375 292.105469 148.820312 294.445312 149.78125 Z M 216.339844 226.726562 C 215.335938 227.675781 213.957031 228.460938 213.441406 229.625 C 212.964844 230.707031 213.230469 232.238281 213.503906 233.496094 C 213.878906 235.203125 214.199219 237.179688 216.875 237.222656 C 216.875 233.914062 216.875 230.695312 216.875 227.476562 C 216.695312 227.226562 216.519531 226.976562 216.339844 226.726562 Z M 125.734375 281.105469 C 127.542969 281.105469 129.066406 281.105469 130.71875 281.105469 C 131.007812 278.832031 131.292969 276.605469 131.601562 274.152344 C 130.15625 274.152344 128.964844 274.152344 127.566406 274.152344 C 126.945312 276.507812 126.371094 278.683594 125.734375 281.105469 Z M 120.378906 273.492188 C 120.507812 275.425781 120.398438 277.421875 120.878906 279.261719 C 121.082031 280.042969 122.527344 280.5 123.675781 281.289062 C 124.460938 278.429688 125.070312 276.199219 125.8125 273.492188 C 123.910156 273.492188 122.144531 273.492188 120.378906 273.492188 Z M 96.265625 129.332031 C 98.757812 130.792969 100.824219 132.003906 103.230469 133.417969 C 104.402344 130.59375 105.414062 128.152344 106.675781 125.105469 C 102.933594 126.625 99.785156 127.902344 96.265625 129.332031 Z M 210.09375 126.144531 C 212.019531 124.90625 213.75 123.546875 215.6875 122.621094 C 218.390625 121.328125 219.023438 119.324219 218.382812 116.460938 C 211.34375 119.835938 209.316406 122.132812 210.09375 126.144531 Z M 226.039062 143.976562 C 226.039062 141.539062 226.039062 139.308594 226.039062 136.925781 C 224.285156 136.925781 222.621094 136.925781 220.945312 136.925781 C 220.945312 139.480469 220.945312 141.808594 220.945312 144.449219 C 222.703125 144.285156 224.304688 144.136719 226.039062 143.976562 Z M 269.167969 149.128906 C 270.414062 146.730469 271.644531 144.355469 272.96875 141.804688 C 271.398438 140.984375 270.109375 140.3125 268.867188 139.667969 C 264.648438 144.226562 264.695312 145.574219 269.167969 149.128906 Z M 238.925781 250.878906 C 241.070312 249.101562 243.308594 247.242188 244.789062 244.945312 C 245.40625 243.984375 244.238281 241.867188 243.867188 240.277344 C 243.839844 240.144531 243.71875 240.027344 243.703125 239.996094 C 241.25 243.125 238.785156 246.269531 235.828125 250.042969 C 237.128906 250.421875 238.503906 251.226562 238.925781 250.878906 Z M 79.648438 184.730469 C 77.785156 184.007812 77.105469 184.636719 76.804688 186.183594 C 76.160156 189.460938 75.558594 192.761719 74.648438 195.972656 C 73.992188 198.285156 74.898438 199.035156 77.203125 199.257812 C 78.039062 194.292969 78.847656 189.488281 79.648438 184.730469 Z M 303.109375 129.824219 C 303.589844 130.03125 304.488281 130.132812 304.730469 129.863281 C 305.136719 129.410156 305.523438 128.453125 305.304688 128.007812 C 303.960938 125.246094 302.441406 122.570312 300.605469 119.167969 C 299.550781 122.363281 298.789062 124.671875 297.90625 127.34375 C 299.800781 128.261719 301.429688 129.101562 303.109375 129.824219 Z M 139.710938 91.878906 C 142.339844 90.539062 144.988281 89.242188 147.578125 87.828125 C 147.984375 87.609375 148.359375 86.855469 148.324219 86.382812 C 148.15625 84.101562 147.839844 81.832031 147.5 78.894531 C 144.496094 83.5 141.894531 87.492188 139.292969 91.488281 C 139.433594 91.617188 139.570312 91.746094 139.710938 91.878906 Z M 136.542969 179.769531 C 138.222656 180.039062 139.640625 180.265625 141.023438 180.488281 C 143.691406 171.078125 144.148438 173.355469 137.902344 170.953125 C 137.835938 170.925781 137.734375 170.992188 137.394531 171.082031 C 137.109375 173.976562 136.832031 176.816406 136.542969 179.769531 Z M 147.582031 231.804688 C 144.710938 229.261719 141.867188 226.6875 138.933594 224.21875 C 138.558594 223.898438 137.597656 223.90625 137.105469 224.15625 C 135.902344 224.765625 134.816406 225.609375 133.6875 226.359375 C 133.671875 226.664062 133.65625 226.96875 133.640625 227.273438 C 138.128906 229.074219 142.609375 230.871094 147.097656 232.671875 C 147.257812 232.382812 147.421875 232.09375 147.582031 231.804688 Z M 287.65625 140.550781 C 289.300781 137.316406 288.769531 136.132812 284.847656 134.996094 C 283.613281 137.894531 282.371094 140.8125 281.027344 143.957031 C 282.402344 144.585938 283.714844 145.183594 285.316406 145.917969 C 286.199219 143.878906 286.835938 142.167969 287.65625 140.550781 Z M 286.683594 161.054688 C 287.175781 161.230469 287.988281 160.53125 289.199219 160 C 284.871094 157.609375 281.382812 155.550781 277.773438 153.75 C 275.816406 152.769531 274.261719 153.4375 273.605469 156.050781 C 278.003906 157.757812 282.3125 159.484375 286.683594 161.054688 Z M 106.296875 97.144531 C 106.78125 99.78125 107.21875 102.148438 107.664062 104.554688 C 109.5 104.011719 111.195312 103.601562 112.800781 102.980469 C 113.273438 102.800781 113.828125 101.976562 113.789062 101.492188 C 113.640625 99.789062 113.246094 98.101562 112.917969 96.234375 C 110.671875 96.542969 108.652344 96.820312 106.296875 97.144531 Z M 295.792969 169.613281 C 294.101562 171.410156 292.671875 173.699219 291.976562 176.046875 C 291.742188 176.828125 294.035156 178.359375 295.484375 179.867188 C 297.253906 176.472656 298.667969 173.757812 300.488281 170.261719 C 298.578125 169.953125 296.363281 169.007812 295.792969 169.613281 Z M 256.40625 204.507812 C 258.378906 205.308594 260.214844 206.054688 262.097656 206.816406 C 263.652344 204.402344 265.128906 202.09375 266.703125 199.648438 C 264.105469 198.894531 261.78125 198.21875 259.308594 197.5 C 258.332031 199.859375 257.410156 202.089844 256.40625 204.507812 Z M 162.101562 175.230469 C 162.101562 172.078125 162.160156 169.246094 162.050781 166.417969 C 162.027344 165.898438 161.40625 165.160156 160.886719 164.957031 C 159.617188 164.453125 158.242188 164.203125 156.695312 163.796875 C 155.476562 174.652344 154.984375 172.179688 162.101562 175.230469 Z M 247.03125 262 C 247.28125 261.832031 247.53125 261.660156 247.785156 261.488281 C 247.28125 256.929688 246.777344 252.363281 246.238281 247.492188 C 243.925781 249.542969 241.917969 251.328125 239.609375 253.378906 C 242.066406 256.230469 244.546875 259.117188 247.03125 262 Z M 237.675781 203.859375 C 235.003906 202.898438 232.679688 202.0625 230.269531 201.199219 C 230.269531 206.242188 230.269531 210.902344 230.269531 216.308594 C 232.984375 211.746094 235.292969 207.867188 237.675781 203.859375 Z M 66.355469 137.585938 C 63.425781 139.132812 62.445312 146.386719 64.410156 151.636719 C 66.1875 150.984375 67.96875 150.335938 69.824219 149.65625 C 68.609375 145.4375 67.488281 141.523438 66.355469 137.585938 Z M 65.152344 171.1875 C 65.578125 173.691406 65.742188 176.238281 66.035156 178.765625 C 66.222656 180.40625 67.058594 181.074219 68.726562 180.585938 C 69.527344 180.351562 70.367188 180.246094 71.507812 180.019531 C 70.503906 175.707031 69.542969 171.582031 68.554688 167.339844 C 65.628906 167.023438 64.679688 168.371094 65.152344 171.1875 Z M 231.847656 178.914062 C 233.859375 179.628906 235.546875 180.230469 237.246094 180.835938 C 239.414062 173.113281 238.65625 171.167969 232.476562 168.777344 C 232.261719 172.246094 232.054688 175.601562 231.847656 178.914062 Z M 128.21875 226.277344 C 123.777344 222.609375 119.335938 218.941406 114.894531 215.273438 C 114.664062 215.363281 114.4375 215.453125 114.207031 215.539062 C 114.457031 217.289062 114.515625 219.09375 115.019531 220.761719 C 115.351562 221.863281 116.105469 223.238281 117.046875 223.675781 C 119.539062 224.824219 122.21875 225.582031 124.851562 226.394531 C 125.839844 226.695312 126.917969 226.710938 127.953125 226.859375 C 128.042969 226.664062 128.128906 226.472656 128.21875 226.277344 Z M 289.019531 170.273438 C 288.265625 171.574219 288.300781 172.730469 289.953125 173.410156 C 291.410156 171.363281 292.421875 168.636719 294.34375 167.613281 C 296.195312 166.628906 298.988281 167.398438 301.367188 167.398438 C 301.425781 167.660156 301.484375 167.917969 301.542969 168.175781 C 301.9375 167.371094 302.335938 166.566406 302.578125 166.074219 C 299.863281 164.183594 297.390625 162.460938 294.710938 160.59375 C 292.734375 163.941406 290.851562 167.09375 289.019531 170.273438 Z M 110.175781 198.636719 C 111.273438 203.445312 110.554688 208.902344 115.820312 211.460938 C 117.363281 210.148438 118.832031 208.898438 120.714844 207.296875 C 117.035156 204.273438 113.605469 201.457031 110.175781 198.636719 Z M 217.871094 123.773438 C 214.703125 127.113281 207.761719 127.457031 209.648438 135.058594 C 212.347656 133.957031 215.078125 132.894531 217.753906 131.707031 C 218.164062 131.523438 218.527344 130.777344 218.546875 130.277344 C 218.636719 128.207031 218.585938 126.128906 218.585938 124.054688 C 218.347656 123.960938 218.109375 123.867188 217.871094 123.773438 Z M 297.972656 121.03125 C 299.867188 117.59375 298.507812 115.128906 295.992188 112.625 C 294.089844 116.300781 292.253906 119.847656 290.316406 123.59375 C 292.417969 124.609375 294.210938 125.480469 296.21875 126.449219 C 296.832031 124.484375 297.109375 122.59375 297.972656 121.03125 Z M 164.550781 239.976562 C 164.585938 239.410156 163.488281 238.496094 162.753906 238.273438 C 162.304688 238.136719 161.210938 238.878906 160.992188 239.453125 C 160.402344 240.996094 160.097656 242.652344 159.730469 244.277344 C 159.179688 246.707031 158.675781 249.144531 158.140625 251.640625 C 160 252.003906 161.375 252.273438 163.367188 252.664062 C 163.8125 248.21875 164.304688 244.105469 164.550781 239.976562 Z M 250.644531 149.851562 C 252.765625 145.277344 254.585938 140.636719 256.363281 135.976562 C 257.738281 132.375 257.714844 132.367188 253.511719 130.507812 C 252.367188 137.074219 248.492188 142.953125 250.644531 149.851562 Z M 137.875 110.320312 C 133.832031 104.496094 132.847656 104.203125 125.675781 106.699219 C 125.675781 108.695312 125.675781 110.769531 125.675781 113.035156 C 129.757812 112.128906 133.796875 111.230469 137.875 110.320312 Z M 83.617188 177.265625 C 83.3125 175.726562 83.183594 174.125 82.675781 172.660156 C 80.335938 165.898438 77.917969 159.164062 75.441406 152.453125 C 75.214844 151.835938 74.359375 151.449219 73.796875 150.957031 C 73.679688 151.640625 73.300781 152.40625 73.484375 152.988281 C 76.007812 160.847656 78.582031 168.691406 81.246094 176.503906 C 81.449219 177.097656 82.453125 177.417969 83.085938 177.867188 C 83.265625 177.667969 83.441406 177.464844 83.617188 177.265625 Z M 227.394531 63.460938 C 227.058594 61.519531 226.042969 60.875 223.964844 61 C 225 67.355469 226.136719 73.476562 226.945312 79.640625 C 227.296875 82.308594 228.304688 82.488281 230.621094 81.136719 C 229.53125 75.207031 228.40625 69.34375 227.394531 63.460938 Z M 229.785156 257.542969 C 235.234375 259.636719 240.410156 261.632812 246.058594 263.804688 C 242.136719 259.445312 238.570312 255.488281 234.78125 251.277344 C 232.941406 253.582031 231.445312 255.460938 229.785156 257.542969 Z M 109.511719 114.726562 C 109.746094 115.53125 111.351562 116.753906 111.527344 116.632812 C 112.964844 115.625 116.003906 116.554688 115.882812 113.804688 C 115.753906 110.960938 114.976562 108.144531 114.421875 104.964844 C 112.097656 105.761719 110.144531 106.425781 107.941406 107.175781 C 108.457031 109.800781 108.808594 112.3125 109.511719 114.726562 Z M 139.953125 242.640625 C 140.859375 240.042969 141.652344 237.773438 142.4375 235.523438 C 139.515625 234.566406 136.816406 233.6875 133.761719 232.6875 C 133.1875 235.285156 132.644531 237.722656 132.003906 240.609375 C 134.738281 241.308594 137.351562 241.976562 139.953125 242.640625 Z M 154.386719 162.933594 C 152.222656 162.167969 150.21875 161.457031 148.203125 160.742188 C 144.835938 171.597656 144.421875 169.347656 153.027344 171.835938 C 153.105469 171.855469 153.199219 171.808594 153.582031 171.746094 C 153.851562 168.777344 154.113281 165.925781 154.386719 162.933594 Z M 153.585938 182.246094 C 153.695312 180.394531 153.902344 179.085938 153.796875 177.804688 C 153.734375 177.054688 153.332031 175.878906 152.804688 175.695312 C 150.289062 174.824219 147.679688 174.222656 144.984375 173.492188 C 144.257812 176.109375 143.632812 178.347656 142.878906 181.0625 C 146.605469 181.476562 149.988281 181.847656 153.585938 182.246094 Z M 240.597656 173.507812 C 240.167969 175.960938 239.722656 177.917969 239.539062 179.898438 C 239.492188 180.429688 240.109375 181.339844 240.632812 181.558594 C 243.476562 182.738281 246.386719 183.757812 249.3125 184.84375 C 250.109375 183.3125 250.664062 182.234375 251.449219 180.722656 C 247.757812 178.269531 244.289062 175.964844 240.597656 173.507812 Z M 71.59375 169.476562 C 72.355469 172.765625 73.335938 176.003906 74.214844 179.234375 C 76.085938 178.847656 77.871094 178.484375 79.929688 178.0625 C 78.269531 173.421875 76.683594 168.988281 75.078125 164.492188 C 71.890625 165.191406 71.023438 167.019531 71.59375 169.476562 Z M 260.921875 162.480469 C 262.445312 160.03125 263.675781 157.519531 265.390625 155.394531 C 268.476562 151.578125 268.03125 152.105469 265.273438 148.125 C 264.929688 147.632812 264.46875 147.214844 263.929688 146.613281 C 257.589844 156.023438 257.839844 154.878906 260.921875 162.480469 Z M 269.773438 255.199219 C 269.792969 254.734375 269.351562 254.015625 268.925781 253.800781 C 266.621094 252.636719 264.25 251.597656 261.828125 250.480469 C 260.121094 259.675781 260.992188 261.066406 268.527344 261.566406 C 268.679688 261.582031 268.84375 261.449219 269.253906 261.277344 C 269.433594 259.339844 269.6875 257.273438 269.773438 255.199219 Z M 258.28125 162.261719 C 257.246094 159.304688 256.691406 156.160156 256.132812 153.058594 C 255.683594 150.582031 255.546875 148.050781 255.269531 145.546875 C 254.347656 146.84375 253.972656 148.210938 253.320312 149.425781 C 251.886719 152.097656 251.996094 154.660156 252.988281 157.5 C 254.429688 161.628906 255.472656 165.898438 256.726562 170.246094 C 258.742188 167.855469 259.371094 165.378906 258.28125 162.261719 Z M 105.363281 90.738281 C 105.476562 91.070312 105.640625 91.414062 105.640625 91.75 C 105.660156 94.414062 107.058594 95.023438 109.40625 94.40625 C 110.316406 94.167969 111.277344 94.101562 112.636719 93.894531 C 111.671875 89.519531 110.753906 85.367188 109.820312 81.132812 C 103.671875 84.222656 103.351562 84.953125 105.363281 90.738281 Z M 207.667969 311.101562 C 214.449219 311.101562 220.929688 311.101562 227.613281 311.101562 C 227.660156 310.371094 227.730469 309.28125 227.800781 308.15625 C 221.308594 307.71875 215.113281 307.296875 208.621094 306.859375 C 208.339844 308.109375 208.082031 309.265625 207.667969 311.101562 Z M 208.835938 296.820312 C 208.769531 298.0625 208.71875 299.070312 208.636719 300.535156 C 215.195312 301.125 221.582031 301.707031 228.082031 302.292969 C 228.082031 300.585938 228.082031 299.652344 228.082031 298.25 C 221.652344 297.773438 215.324219 297.304688 208.835938 296.820312 Z M 122.984375 177.25 C 117.113281 173.921875 111.246094 170.597656 105.375 167.269531 C 105.171875 167.457031 104.96875 167.644531 104.761719 167.835938 C 105.1875 170.574219 105.304688 173.429688 106.253906 175.96875 C 106.5 176.625 109.371094 176.253906 111.027344 176.433594 C 114.964844 176.855469 118.894531 177.328125 122.828125 177.78125 C 122.878906 177.605469 122.933594 177.425781 122.984375 177.25 Z M 284.863281 241.128906 C 278.988281 242.84375 273.335938 244.488281 267.488281 246.195312 C 271.109375 248.101562 274.78125 250.035156 278.9375 252.21875 C 281.035156 248.292969 283.003906 244.605469 284.863281 241.128906 Z M 151.367188 187.617188 C 148.824219 187.316406 146.441406 187.035156 144.007812 186.746094 C 143.753906 190.496094 143.515625 193.953125 143.28125 197.414062 C 145.929688 197.886719 148.238281 198.296875 150.679688 198.730469 C 150.910156 194.957031 151.136719 191.339844 151.367188 187.617188 Z M 217.113281 155.117188 C 221.78125 158.089844 226.445312 161.066406 231.535156 164.308594 C 232.226562 160.988281 232.800781 158.207031 233.453125 155.078125 C 227.875 153.859375 222.496094 154.867188 217.113281 155.117188 Z M 269.492188 166.5 C 268.847656 166.417969 267.789062 166.855469 267.464844 167.386719 C 264.519531 172.261719 261.691406 177.210938 258.4375 182.816406 C 260.152344 182.816406 262.144531 183.359375 262.636719 182.730469 C 266.371094 177.972656 269.808594 172.984375 273.5625 167.757812 C 271.953125 167.234375 270.75 166.667969 269.492188 166.5 Z M 258.398438 151.28125 C 261.105469 146.96875 263.816406 142.652344 266.621094 138.195312 C 264.355469 136.691406 262.261719 135.296875 259.898438 133.722656 C 255.9375 139.535156 257.675781 145.417969 258.398438 151.28125 Z M 265.828125 117.664062 C 264.105469 121.960938 262.617188 126.25 261.195312 130.5625 C 261.066406 130.949219 261.242188 131.726562 261.539062 131.917969 C 264.992188 134.128906 268.492188 136.257812 271.980469 138.410156 C 269.320312 131.472656 266.035156 125.101562 265.828125 117.664062 Z M 137.855469 95.820312 C 142.921875 98.660156 147.367188 101.152344 152.289062 103.90625 C 151.089844 98.855469 150.0625 94.523438 148.957031 89.863281 C 145.355469 91.792969 141.933594 93.632812 137.855469 95.820312 Z M 147.789062 281.804688 C 147.792969 282.355469 148.425781 283.375 148.75 283.367188 C 151.890625 283.289062 155.027344 283.082031 158.152344 282.773438 C 158.5625 282.734375 159.117188 281.96875 159.234375 281.453125 C 159.667969 279.554688 159.949219 277.621094 160.3125 275.546875 C 156.015625 275.546875 152.277344 275.546875 148.089844 275.546875 C 147.960938 277.816406 147.773438 279.808594 147.789062 281.804688 Z M 74.238281 162.238281 C 73.148438 158.804688 72.074219 155.429688 70.949219 151.90625 C 69.074219 152.589844 67.496094 153.121094 65.957031 153.75 C 65.347656 154 64.339844 154.476562 64.347656 154.839844 C 64.398438 158.449219 64.628906 162.058594 64.785156 165.277344 C 68.171875 164.191406 71.078125 163.253906 74.238281 162.238281 Z M 234.972656 147.761719 C 226.21875 148.617188 217.875 149.433594 208.910156 150.3125 C 209.882812 151.148438 210.453125 151.996094 211.199219 152.203125 C 212.605469 152.59375 214.113281 152.75 215.585938 152.765625 C 221.609375 152.824219 227.636719 152.789062 234.074219 152.789062 C 234.308594 151.46875 234.628906 149.664062 234.972656 147.761719 Z M 281.890625 171.574219 C 280.246094 170.746094 278.8125 169.898438 277.28125 169.320312 C 276.730469 169.113281 275.613281 169.328125 275.304688 169.75 C 272.894531 173.050781 270.617188 176.449219 268.300781 179.824219 C 270.929688 180.773438 273.359375 181.652344 276.132812 182.652344 C 278 179.054688 279.894531 175.414062 281.890625 171.574219 Z M 120.074219 233.195312 C 119.921875 230.527344 118.605469 229.777344 116.046875 229.5625 C 115.632812 235.949219 115.222656 242.214844 114.796875 248.703125 C 117.324219 248.476562 119.398438 248.292969 121.585938 248.097656 C 121.039062 242.949219 120.347656 238.085938 120.074219 233.195312 Z M 145.6875 161.019531 C 145.800781 160.441406 145.21875 159.316406 144.683594 159.089844 C 142.28125 158.066406 139.78125 157.277344 137.035156 156.308594 C 136 159.207031 135.039062 161.882812 133.988281 164.820312 C 137.226562 166.289062 140.234375 167.65625 143.605469 169.183594 C 144.417969 166.105469 145.175781 163.589844 145.6875 161.019531 Z M 268.804688 264.019531 C 266.042969 263.757812 263.652344 263.527344 261.0625 263.277344 C 261.0625 267.929688 261.0625 272.164062 261.0625 276.292969 C 263.359375 276.683594 265.410156 277.035156 267.957031 277.46875 C 268.242188 272.945312 268.519531 268.554688 268.804688 264.019531 Z M 68.285156 212.371094 C 70.910156 213.269531 73.4375 214.132812 76.332031 215.125 C 77.710938 211.300781 79.023438 207.664062 80.390625 203.867188 C 77.824219 202.785156 75.667969 201.875 73.394531 200.914062 C 71.609375 204.917969 69.980469 208.574219 68.285156 212.371094 Z M 122.183594 157 C 122.121094 157.417969 122.367188 158.128906 122.695312 158.328125 C 125.664062 160.117188 128.683594 161.824219 132.015625 163.742188 C 132.9375 160.933594 133.75 158.714844 134.324219 156.4375 C 134.445312 155.976562 133.804688 155.011719 133.28125 154.753906 C 130.128906 153.195312 126.910156 151.773438 123.421875 150.171875 C 122.949219 152.703125 122.507812 154.84375 122.183594 157 Z M 84.320312 217.558594 C 84.859375 217.648438 85.800781 217.121094 86.097656 216.609375 C 87.769531 213.753906 89.296875 210.816406 91.078125 207.539062 C 88.175781 206.503906 85.429688 205.523438 82.574219 204.507812 C 81.058594 208.390625 79.660156 211.964844 78.066406 216.042969 C 80.285156 216.605469 82.28125 217.207031 84.320312 217.558594 Z M 264.851562 112.523438 C 263.070312 111.660156 261.460938 110.878906 259.488281 109.921875 C 258.039062 115.105469 256.703125 119.90625 255.347656 124.695312 C 254.226562 128.667969 254.214844 128.667969 258.730469 130.136719 C 260.746094 124.328125 262.769531 118.511719 264.851562 112.523438 Z M 132.953125 280.269531 C 132.925781 280.914062 133.617188 282.105469 134.097656 282.167969 C 137.871094 282.671875 141.671875 282.964844 145.589844 283.335938 C 145.742188 280.476562 145.878906 277.808594 146.039062 274.75 C 141.984375 274.75 138.0625 274.75 133.664062 274.75 C 133.417969 276.476562 133.027344 278.367188 132.953125 280.269531 Z M 158.464844 128.914062 C 160.695312 129.566406 161.582031 128.71875 161.574219 126.523438 C 161.566406 122.007812 161.59375 117.496094 161.59375 112.984375 C 161.59375 110.914062 160.449219 110.488281 158.820312 110.847656 C 156.816406 116.433594 154.875 121.839844 152.796875 127.632812 C 155.058594 128.136719 156.792969 128.425781 158.464844 128.914062 Z M 210.164062 171.75 C 212.753906 171.570312 214.8125 171.425781 217.46875 171.242188 C 217.46875 167.148438 217.515625 163.214844 217.421875 159.285156 C 217.410156 158.726562 216.878906 157.96875 216.371094 157.671875 C 214.328125 156.488281 212.199219 155.453125 210.164062 154.394531 C 210.164062 160.28125 210.164062 165.890625 210.164062 171.75 Z M 245.207031 159.808594 C 247.539062 154.945312 247.226562 150.296875 244.890625 145.035156 C 244.324219 146.046875 243.777344 146.734375 243.53125 147.515625 C 241.785156 153.035156 240.136719 158.585938 238.386719 164.101562 C 237.046875 168.324219 236.996094 168.308594 241.347656 170.40625 C 242.613281 166.851562 243.59375 163.175781 245.207031 159.808594 Z M 74.242188 184.707031 C 67.917969 185.351562 62.804688 187.921875 57.347656 191.707031 C 62.464844 193.636719 66.933594 195.320312 71.78125 197.148438 C 72.652344 192.734375 73.425781 188.832031 74.242188 184.707031 Z M 130.105469 292.800781 C 130.394531 290.992188 129.96875 289.636719 128.0625 289.191406 C 125.152344 288.507812 122.226562 287.882812 119.285156 287.355469 C 118.929688 287.292969 118.15625 287.902344 118.0625 288.3125 C 117.523438 290.667969 117.128906 293.058594 116.605469 295.855469 C 121.066406 296.691406 125.148438 297.460938 129.523438 298.28125 C 129.75 296.070312 129.84375 294.421875 130.105469 292.800781 Z M 310.960938 234.714844 C 312.554688 231.273438 313.960938 227.859375 312.339844 223.917969 C 311.792969 222.574219 311.667969 220.988281 311.640625 219.511719 C 311.546875 214.0625 311.582031 208.605469 311.550781 203.15625 C 311.527344 199.691406 311.21875 199.347656 307.261719 198.652344 C 308.183594 210.742188 309.089844 222.695312 310.003906 234.648438 C 310.324219 234.667969 310.640625 234.691406 310.960938 234.714844 Z M 253.351562 171.578125 C 251.902344 166.957031 250.75 162.246094 249.472656 157.574219 C 249.175781 157.601562 248.875 157.628906 248.574219 157.65625 C 246.902344 162.039062 245.199219 166.410156 243.609375 170.820312 C 243.449219 171.277344 243.808594 172.246094 244.226562 172.539062 C 246.953125 174.4375 249.761719 176.214844 252.515625 178.015625 C 255.035156 175.945312 254.066406 173.859375 253.351562 171.578125 Z M 147.429688 112.625 C 146.65625 112.742188 145.527344 113.671875 145.402344 114.375 C 144.828125 117.65625 144.460938 120.984375 144.246094 124.308594 C 144.203125 124.96875 145 125.988281 145.667969 126.3125 C 146.65625 126.796875 147.875 126.953125 149 126.953125 C 149.597656 126.953125 150.566406 126.464844 150.738281 125.972656 C 152.378906 121.351562 153.882812 116.679688 155.464844 111.910156 C 152.734375 112.128906 150.058594 112.21875 147.429688 112.625 Z M 131.328125 260.191406 C 131.335938 260.6875 131.972656 261.484375 132.457031 261.613281 C 133.761719 261.957031 135.140625 262.015625 136.394531 262.175781 C 137.371094 257.042969 138.289062 252.230469 139.199219 247.414062 C 139.441406 246.113281 139.449219 244.949219 137.734375 244.621094 C 135.859375 244.265625 133.996094 243.832031 131.273438 243.246094 C 131.273438 249.167969 131.246094 254.679688 131.328125 260.191406 Z M 248.808594 271.066406 C 248.867188 268.402344 247.875 267.003906 245.109375 266.988281 C 243.179688 270.847656 241.269531 274.671875 239.207031 278.792969 C 242.136719 281.402344 245.199219 284.132812 248.777344 287.324219 C 248.777344 281.417969 248.695312 276.242188 248.808594 271.066406 Z M 257.109375 184.816406 C 255.765625 187.402344 254.390625 190.050781 252.964844 192.792969 C 256.078125 193.71875 258.871094 194.457031 261.601562 195.382812 C 269.417969 198.035156 267.136719 198.242188 270.878906 191.5 C 270.949219 191.375 270.886719 191.171875 270.886719 190.835938 C 266.433594 188.890625 261.90625 186.910156 257.109375 184.816406 Z M 222.515625 257.132812 C 221.363281 258.664062 220.238281 260.164062 219.167969 261.585938 C 223.644531 265.371094 227.878906 268.957031 232.0625 272.5 C 233.585938 269.304688 235.023438 266.277344 236.472656 263.238281 C 231.785156 261.1875 227.226562 259.191406 222.515625 257.132812 Z M 122.042969 208.527344 C 120.171875 210.199219 118.644531 211.558594 116.769531 213.234375 C 120.808594 216.5625 124.53125 219.503906 128.105469 222.613281 C 131.367188 225.445312 131.300781 225.53125 134.800781 223.171875 C 135.230469 222.882812 135.621094 222.535156 136.476562 221.859375 C 131.5625 217.320312 126.875 212.992188 122.042969 208.527344 Z M 312.726562 175.289062 C 311.996094 176.84375 311.347656 178.171875 310.746094 179.519531 C 309.210938 182.96875 307.871094 186.519531 306.105469 189.84375 C 305.078125 191.78125 305.046875 192.839844 307.261719 193.539062 C 308.09375 193.800781 308.851562 194.382812 309.691406 194.511719 C 310.222656 194.59375 311.144531 194.265625 311.375 193.839844 C 314.011719 189 316.546875 184.105469 319.121094 179.203125 C 316.882812 177.832031 314.902344 176.617188 312.726562 175.289062 Z M 226.355469 112.351562 C 224.5625 113.589844 221.429688 114.753906 221.289062 116.1875 C 220.714844 122.148438 221.050781 128.199219 221.050781 134.304688 C 223.265625 134.183594 226.058594 135.183594 226.433594 132.183594 C 227.265625 125.480469 227.636719 118.722656 228.222656 111.667969 C 227.320312 111.988281 226.765625 112.066406 226.355469 112.351562 Z M 231.773438 181.242188 C 231.441406 184.691406 231.152344 187.714844 230.847656 190.84375 C 234.449219 191.910156 237.867188 193.019531 241.347656 193.863281 C 242.085938 194.046875 243.328125 193.519531 243.867188 192.90625 C 245.277344 191.3125 246.421875 189.488281 248.007812 187.292969 C 242.519531 185.246094 237.3125 183.304688 231.773438 181.242188 Z M 110.878906 265.199219 C 109.835938 265.066406 109.238281 264.96875 108.636719 264.917969 C 101.519531 264.3125 101.328125 264.304688 101.039062 271.386719 C 100.945312 273.695312 98.335938 276.648438 101.15625 278.25 C 103.160156 279.394531 106.105469 278.886719 108.632812 279.097656 C 108.875 279.117188 109.132812 279.003906 109.636719 278.902344 C 110.058594 274.257812 110.464844 269.769531 110.878906 265.199219 Z M 163.902344 195.636719 C 162.710938 186.585938 164.226562 188.5625 156.433594 187.800781 C 156.34375 187.792969 156.226562 187.761719 156.171875 187.804688 C 155.453125 188.347656 154.230469 188.816406 154.117188 189.476562 C 153.640625 192.234375 153.277344 195.050781 153.347656 197.835938 C 153.371094 198.832031 154.550781 200.183594 155.546875 200.6875 C 157.96875 201.902344 160.589844 202.714844 163.957031 204.007812 C 163.957031 200.898438 164.242188 198.226562 163.902344 195.636719 Z M 108.292969 215.488281 C 103.117188 213.210938 97.9375 210.925781 92.664062 208.605469 C 90.882812 211.863281 89.171875 214.988281 87.300781 218.414062 C 90.472656 219.3125 93.542969 221.136719 96.28125 220.734375 C 100.414062 220.117188 104.316406 217.949219 108.320312 216.441406 C 108.308594 216.125 108.300781 215.808594 108.292969 215.488281 Z M 223.382812 270.984375 C 221.734375 277.039062 220.085938 283.09375 218.339844 289.5 C 221.957031 289.5 225.0625 289.5 228.257812 289.5 C 228.753906 285.3125 229.261719 281.148438 229.714844 276.976562 C 229.753906 276.621094 229.46875 276.160156 229.210938 275.855469 C 227.636719 273.988281 226.023438 272.152344 224.425781 270.304688 C 224.078125 270.53125 223.730469 270.757812 223.382812 270.984375 Z M 300.941406 205.242188 C 295.949219 205.460938 295.941406 205.453125 295.921875 210.515625 C 295.90625 213.976562 295.917969 217.433594 295.917969 221.050781 C 299.191406 220.554688 301.875 220.21875 304.519531 219.683594 C 305.050781 219.574219 305.832031 218.683594 305.8125 218.183594 C 305.65625 213.898438 305.34375 209.621094 305.058594 204.992188 C 303.546875 205.085938 302.246094 205.1875 300.941406 205.242188 Z M 253.375 233.238281 C 252.816406 234.429688 252.398438 236.59375 253.023438 237.257812 C 254.554688 238.871094 256.738281 239.867188 258.949219 241.300781 C 261.878906 236 264.574219 231.121094 267.269531 226.246094 C 264.683594 224.648438 262.238281 223.136719 259.480469 221.429688 C 257.367188 225.460938 255.230469 229.285156 253.375 233.238281 Z M 140.949219 206.449219 C 140.949219 199.8125 140.949219 193.171875 140.949219 186.339844 C 137.933594 186.160156 134.738281 185.96875 131.507812 185.773438 C 131.835938 190.707031 132.140625 195.421875 132.484375 200.128906 C 132.507812 200.421875 132.804688 200.753906 133.058594 200.960938 C 135.417969 202.902344 137.796875 204.824219 140.171875 206.75 C 140.429688 206.648438 140.6875 206.550781 140.949219 206.449219 Z M 130.613281 202.636719 C 128.964844 204.039062 127.617188 205.160156 126.289062 206.308594 C 124.980469 207.445312 124.753906 208.488281 126.324219 209.710938 C 128.125 211.117188 129.800781 212.691406 131.476562 214.25 C 133.773438 216.390625 136.015625 218.589844 138.390625 220.863281 C 140.691406 218.789062 142.753906 216.929688 145.074219 214.84375 C 140.082031 210.628906 135.355469 206.640625 130.613281 202.636719 Z M 107.746094 117.652344 C 106.214844 110.09375 104.710938 102.527344 103.101562 94.988281 C 102.59375 92.617188 101.769531 90.3125 101.011719 87.703125 C 99.382812 89.175781 98.046875 90.207031 96.949219 91.453125 C 96.492188 91.972656 96.210938 93.042969 96.410156 93.691406 C 99.128906 102.589844 101.949219 111.460938 104.828125 120.601562 C 106.675781 120.28125 108.207031 119.921875 107.746094 117.652344 Z M 134.320312 178.976562 C 134.53125 176.25 134.824219 173.464844 134.910156 170.679688 C 134.925781 170.070312 134.351562 169.175781 133.796875 168.867188 C 130.132812 166.824219 126.398438 164.910156 122.492188 162.851562 C 120.535156 165.441406 118.644531 167.949219 116.660156 170.574219 C 121.636719 174.929688 131.09375 179.441406 134.320312 178.976562 Z M 143.234375 201.257812 C 142.613281 206.59375 143.386719 211.226562 148.664062 214.230469 C 150.859375 215.480469 152.601562 217.519531 155.027344 219.609375 C 156.066406 214.175781 156.960938 209.476562 157.914062 204.496094 C 153.097656 202.886719 148.480469 201.34375 143.648438 199.730469 C 143.363281 200.761719 143.261719 201.003906 143.234375 201.257812 Z M 265.363281 85.417969 C 264.035156 83.851562 262.847656 83.929688 261.066406 84.824219 C 256.117188 87.296875 251.085938 89.625 245.984375 91.761719 C 241.570312 93.613281 241.542969 93.464844 241.972656 98.355469 C 242.121094 99.976562 242.679688 100.640625 244.316406 99.933594 C 247.074219 98.734375 249.886719 97.648438 252.605469 96.363281 C 257.898438 93.859375 263.136719 91.25 268.96875 88.410156 C 267.214844 86.976562 266.136719 86.324219 265.363281 85.417969 Z M 209.679688 289.695312 C 211.417969 289.695312 212.742188 289.597656 214.046875 289.714844 C 215.800781 289.875 216.449219 289.191406 216.777344 287.441406 C 217.472656 283.730469 218.425781 280.066406 219.390625 276.414062 C 221.5625 268.171875 221.589844 268.179688 214.640625 263.191406 C 214.5 263.089844 214.324219 263.042969 213.671875 262.742188 C 212.332031 271.789062 211.015625 280.6875 209.679688 289.695312 Z M 250.5 115.605469 C 251.800781 114.910156 253.71875 114.328125 254.148438 113.222656 C 255.949219 108.609375 257.292969 103.816406 258.910156 98.753906 C 258.03125 98.925781 257.683594 98.929688 257.382812 99.058594 C 252.9375 101 248.484375 102.921875 244.074219 104.945312 C 243.574219 105.171875 243.054688 105.960938 243.019531 106.519531 C 242.75 110.71875 242.601562 114.925781 242.386719 119.769531 C 245.402344 118.230469 247.976562 116.960938 250.5 115.605469 Z M 106.171875 185.214844 C 106.617188 187.691406 107.0625 190.175781 107.738281 192.59375 C 108.101562 193.878906 108.65625 195.375 109.621094 196.179688 C 113.398438 199.332031 117.347656 202.28125 121.304688 205.207031 C 121.859375 205.617188 123.046875 205.863281 123.53125 205.550781 C 125.335938 204.375 126.972656 202.933594 128.699219 201.574219 C 121.238281 195.238281 114.09375 189.164062 106.40625 182.636719 C 106.292969 183.789062 106.054688 184.535156 106.171875 185.214844 Z M 125.765625 103.449219 C 126.074219 103.554688 126.238281 103.664062 126.402344 103.65625 C 126.75 103.640625 127.121094 103.628906 127.4375 103.503906 C 132.1875 101.582031 135.886719 102.785156 138.570312 107.164062 C 138.839844 107.605469 139.203125 108.03125 139.617188 108.339844 C 140.316406 108.851562 141.164062 109.746094 141.816406 109.644531 C 145.355469 109.089844 148.851562 108.273438 152.882812 107.441406 C 142.238281 101.699219 131.867188 96.808594 124.332031 87.324219 C 124.828125 92.925781 125.300781 98.21875 125.765625 103.449219 Z M 102.542969 122.160156 C 101.914062 120.074219 101.445312 118.511719 100.949219 116.875 C 100.152344 116.964844 99.535156 116.964844 98.953125 117.113281 C 91.378906 119.09375 83.886719 121.523438 76.207031 122.941406 C 70.914062 123.914062 69.558594 127.519531 67.761719 131.910156 C 79.558594 128.601562 90.933594 125.414062 102.542969 122.160156 Z M 85.574219 272.128906 C 88.496094 276.542969 93.082031 276.636719 97.785156 277.710938 C 98.210938 273.078125 98.605469 268.757812 98.996094 264.546875 C 91.914062 263.53125 85.082031 262.554688 77.457031 261.460938 C 80.503906 265.425781 83.257812 268.632812 85.574219 272.128906 Z M 149.835938 230.773438 C 152.773438 233.539062 156.390625 234.402344 160.101562 235.183594 C 161.554688 235.488281 162.980469 235.515625 163.570312 233.738281 C 164.105469 232.121094 164.007812 230.769531 162.449219 229.554688 C 158.847656 226.742188 155.375 223.757812 151.871094 220.820312 C 150.007812 219.253906 148.191406 217.632812 146.617188 216.265625 C 144.222656 218.320312 142.101562 220.144531 139.765625 222.15625 C 143.445312 225.285156 146.773438 227.890625 149.835938 230.773438 Z M 224.9375 87.410156 C 223.035156 87.945312 222.4375 89.058594 222.441406 90.839844 C 222.460938 96.964844 222.445312 103.089844 222.445312 109.652344 C 226.042969 107.511719 229.300781 105.601562 232.511719 103.617188 C 232.925781 103.359375 233.367188 102.683594 233.339844 102.230469 C 233.019531 96.542969 232.617188 90.863281 232.199219 84.636719 C 229.359375 85.742188 227.203125 86.777344 224.9375 87.410156 Z M 105.371094 259.378906 C 105.019531 250.144531 104.777344 240.898438 104.1875 231.679688 C 104.011719 228.929688 102.84375 226.246094 102.160156 223.640625 C 98.617188 224.152344 97.941406 225.835938 98.1875 228.441406 C 98.65625 233.433594 99.054688 238.4375 99.199219 243.445312 C 99.371094 249.222656 99.242188 255.011719 99.242188 261.046875 C 100.878906 261.15625 102.941406 261.296875 105.105469 261.441406 C 105.226562 260.570312 105.394531 259.972656 105.371094 259.378906 Z M 150.582031 74.867188 C 150.296875 75.25 150.070312 75.847656 150.144531 76.292969 C 151.609375 85.207031 153.097656 94.117188 154.644531 103.015625 C 155.0625 105.445312 156.8125 106.148438 159.539062 106.121094 C 158.507812 93.179688 157.488281 80.4375 156.425781 67.117188 C 154.273438 69.957031 152.398438 72.390625 150.582031 74.867188 Z M 125.914062 117.988281 C 125.6875 117.886719 125.464844 117.785156 125.238281 117.683594 C 124.726562 118.472656 124.105469 119.214844 123.722656 120.0625 C 121.144531 125.847656 118.511719 131.617188 116.101562 137.476562 C 114.429688 141.539062 113.035156 145.714844 111.65625 149.886719 C 111.449219 150.503906 111.753906 151.738281 112.242188 152.0625 C 114.710938 153.71875 117.316406 155.164062 120.097656 156.816406 C 122.074219 143.621094 123.996094 130.808594 125.914062 117.988281 Z M 119.242188 74.460938 C 117.199219 75.761719 115.527344 76.898438 113.785156 77.914062 C 112.523438 78.65625 112.289062 79.5 112.605469 80.957031 C 113.910156 87.054688 115.105469 93.171875 116.207031 99.304688 C 117.117188 104.367188 117.839844 109.457031 118.675781 114.722656 C 120.253906 114.382812 121.691406 114.066406 123.179688 113.746094 C 123.828125 100.308594 121.777344 87.519531 119.242188 74.460938 Z M 135.171875 114.671875 C 129.78125 115.292969 127.570312 118.105469 127.167969 123.714844 C 126.652344 130.953125 124.882812 138.105469 123.726562 145.308594 C 123.589844 146.167969 123.601562 147.617188 124.082031 147.910156 C 126.210938 149.195312 128.535156 150.160156 131.011719 151.347656 C 132.855469 138.757812 134.632812 126.65625 136.460938 114.191406 C 135.800781 114.441406 135.496094 114.632812 135.171875 114.671875 Z M 274.015625 111.132812 C 275.496094 106.808594 277.039062 102.503906 278.398438 98.140625 C 280.214844 92.3125 280.804688 94.015625 275.984375 89.640625 C 275.867188 89.535156 275.667969 89.515625 275.5625 89.480469 C 272.132812 91.46875 268.714844 93.394531 265.371094 95.441406 C 264.605469 95.910156 263.839844 96.714844 263.546875 97.535156 C 262.5 100.425781 261.597656 103.375 260.789062 106.34375 C 260.632812 106.910156 260.945312 108.03125 261.375 108.257812 C 265.105469 110.199219 268.914062 111.992188 272.910156 113.929688 C 273.324219 112.894531 273.710938 112.027344 274.015625 111.132812 Z M 146.761719 62.238281 C 146.589844 61.988281 146.421875 61.738281 146.25 61.488281 C 138.628906 65.015625 131.011719 68.558594 123.378906 72.0625 C 121.992188 72.699219 121.574219 73.613281 122.183594 75.003906 C 123.761719 78.605469 125.246094 82.257812 126.972656 85.785156 C 127.644531 87.15625 128.863281 88.257812 130.078125 89.789062 C 135.777344 80.378906 141.269531 71.308594 146.761719 62.238281 Z M 86.953125 161.125 C 83.644531 154.160156 81.070312 146.980469 79.652344 139.433594 C 79.140625 136.726562 77.328125 135.449219 75.285156 135.203125 C 73.328125 134.972656 71.203125 135.992188 69.1875 136.582031 C 68.925781 136.65625 68.648438 137.46875 68.746094 137.847656 C 69.664062 141.476562 70.660156 145.089844 71.628906 148.679688 C 72.5 148.625 72.871094 148.679688 73.179688 148.570312 C 75.832031 147.621094 77.15625 148.777344 77.707031 151.3125 C 78.101562 153.109375 78.265625 155.046875 79.066406 156.648438 C 82.128906 162.742188 84.109375 169.15625 85.492188 175.804688 C 85.601562 176.339844 86.671875 177.085938 87.234375 177.035156 C 88.859375 176.890625 90.457031 176.386719 92.601562 175.902344 C 90.671875 170.777344 89.167969 165.78125 86.953125 161.125 Z M 268.148438 292.804688 C 272.414062 288.960938 276.464844 285.351562 280.441406 281.660156 C 280.867188 281.265625 281.011719 280.40625 281.035156 279.75 C 281.253906 273.683594 281.457031 267.613281 281.542969 261.546875 C 281.550781 260.753906 281.042969 259.582031 280.414062 259.222656 C 277.921875 257.792969 275.285156 256.613281 272.546875 255.265625 C 271.070312 267.894531 269.644531 280.066406 268.148438 292.804688 Z M 141.710938 144.367188 C 141.21875 144.441406 140 143.191406 140.015625 142.582031 C 140.089844 139.691406 140.503906 136.8125 140.746094 133.921875 C 141.3125 127.121094 141.851562 120.316406 142.40625 113.40625 C 140.839844 113.003906 139.675781 113.035156 139.351562 115.058594 C 137.679688 125.355469 135.957031 135.644531 134.269531 145.851562 C 143.601562 151.09375 156.773438 156.09375 161.855469 156.261719 C 161.855469 153.488281 161.855469 150.722656 161.855469 147.464844 C 155.144531 146.621094 148.816406 143.269531 141.710938 144.367188 Z M 284.796875 200.070312 C 281.753906 197.675781 278.683594 195.265625 275.421875 192.699219 C 268.855469 200.753906 265.953125 210.375 260.695312 218.875 C 263.582031 220.746094 266.054688 222.351562 268.4375 223.898438 C 273.980469 215.820312 279.324219 208.042969 284.796875 200.070312 Z M 257.121094 297.316406 C 257.394531 295.757812 257.683594 294.183594 257.726562 292.609375 C 258.109375 279.613281 258.320312 266.605469 258.847656 253.613281 C 258.992188 250.0625 258.1875 247.625 254.597656 246.671875 C 253.425781 246.359375 251.820312 245.785156 251.070312 246.292969 C 250.261719 246.847656 249.839844 248.566406 249.9375 249.714844 C 250.179688 252.574219 250.90625 255.390625 251.261719 258.242188 C 251.773438 262.316406 252.421875 266.398438 252.484375 270.488281 C 252.65625 281.074219 252.542969 291.664062 252.542969 302.605469 C 256.488281 300.785156 256.511719 300.789062 257.121094 297.316406 Z M 117.601562 272.605469 C 117.632812 270.789062 118.601562 270.199219 120.386719 270.421875 C 123.441406 270.796875 126.515625 271.023438 129.582031 271.292969 C 136.410156 271.898438 143.234375 272.582031 150.074219 273.050781 C 153.355469 273.277344 156.664062 273.089844 159.921875 273.089844 C 159.921875 270.707031 159.921875 269 159.921875 267.503906 C 157.671875 267.503906 155.652344 267.6875 153.671875 267.472656 C 146.328125 266.660156 139.015625 265.484375 131.65625 264.902344 C 126.261719 264.476562 120.808594 264.761719 115.382812 264.730469 C 114.007812 264.71875 113.402344 265.332031 113.273438 266.78125 C 113.007812 269.753906 112.589844 272.722656 112.140625 275.675781 C 111.539062 279.628906 111.761719 279.945312 115.707031 279.976562 C 116.386719 279.980469 117.066406 279.867188 117.589844 279.824219 C 117.589844 277.296875 117.558594 274.949219 117.601562 272.605469 Z M 115.9375 121.464844 C 110.980469 122.414062 108.394531 125.5 106.949219 130.195312 C 105.113281 136.164062 104.269531 136.445312 98.996094 133.152344 C 96.070312 131.324219 93.46875 129.6875 89.746094 131.1875 C 87.027344 132.285156 83.988281 132.601562 80.828125 133.328125 C 90.175781 138.78125 99.164062 144.027344 107.757812 149.039062 C 111.804688 139.453125 115.828125 129.929688 120.183594 119.621094 C 118.273438 120.46875 117.15625 121.226562 115.9375 121.464844 Z M 319.675781 196.21875 C 319.417969 197.570312 319.160156 198.921875 318.902344 200.269531 C 313.488281 198.984375 312.539062 197.210938 314.949219 192.441406 C 316.394531 189.578125 318.09375 186.847656 319.675781 184.054688 C 319.675781 188.109375 319.675781 192.167969 319.675781 196.21875 " fill-opacity="1" fill-rule="nonzero"/></g><g clip-path="url(#49b3c4e4f0)"><path fill="#05386b" d="M 177.75 269.578125 L 197.242188 269.578125 L 197.242188 167.675781 L 177.75 177.421875 Z M 258.464844 278.476562 L 225.628906 278.476562 L 225.628906 110.898438 L 177.75 134.839844 L 177.75 167.472656 L 206.140625 153.277344 L 206.140625 278.476562 L 168.851562 278.476562 L 168.851562 181.871094 L 149.363281 191.613281 L 149.363281 278.476562 L 116.527344 278.476562 L 116.527344 269.578125 L 140.464844 269.578125 L 140.464844 186.113281 L 168.851562 171.921875 L 168.851562 129.339844 L 234.527344 96.5 L 234.527344 269.578125 L 258.464844 269.578125 L 258.464844 278.476562 " fill-opacity="1" fill-rule="nonzero"/></g></svg>