<svg xmlns="http://www.w3.org/2000/svg" xmlns:xlink="http://www.w3.org/1999/xlink" width="1200" zoomAndPan="magnify" viewBox="0 0 900 225" height="300" preserveAspectRatio="xMidYMid meet" version="1.0"><defs><g/><clipPath id="f067a44ef5"><path d="M 573 41.902344 L 875.613281 41.902344 L 875.613281 178.570312 L 573 178.570312 Z M 573 41.902344 " clip-rule="nonzero"/></clipPath><clipPath id="8a7ab77bcb"><path d="M 660.609375 41.902344 L 869.203125 41.902344 C 871.355469 41.902344 873.339844 43.054688 874.402344 44.925781 C 875.46875 46.792969 875.449219 49.085938 874.355469 50.9375 L 804.121094 169.535156 C 800.804688 175.136719 794.78125 178.570312 788.273438 178.570312 L 579.675781 178.570312 C 577.527344 178.570312 575.542969 177.417969 574.476562 175.550781 C 573.410156 173.683594 573.429688 171.386719 574.527344 169.535156 L 644.757812 50.9375 C 648.074219 45.335938 654.101562 41.902344 660.609375 41.902344 Z M 660.609375 41.902344 " clip-rule="nonzero"/></clipPath><clipPath id="a3116764a2"><path d="M 20.296875 17.1875 L 212.316406 17.1875 L 212.316406 206.867188 L 20.296875 206.867188 Z M 20.296875 17.1875 " clip-rule="nonzero"/></clipPath><clipPath id="60cdafc818"><path d="M 65.066406 46.160156 L 168.101562 46.160156 L 168.101562 179 L 65.066406 179 Z M 65.066406 46.160156 " clip-rule="nonzero"/></clipPath></defs><rect x="-90" width="1080" fill="#ffffff" y="-22.5" height="270" fill-opacity="1"/><rect x="-90" width="1080" fill="#ffffff" y="-22.5" height="270" fill-opacity="1"/><g clip-path="url(#f067a44ef5)"><g clip-path="url(#8a7ab77bcb)"><path fill="#05386b" d="M 569.175781 41.902344 L 879.882812 41.902344 L 879.882812 178.570312 L 569.175781 178.570312 Z M 569.175781 41.902344 " fill-opacity="1" fill-rule="nonzero"/></g></g><g fill="#05386b" fill-opacity="1"><g transform="translate(223.196535, 155.54991)"><g><path d="M 8.0625 -80.5625 L 43.15625 -80.5625 C 53.4375 -80.5625 61.414062 -78.125 67.09375 -73.25 C 72.769531 -68.382812 75.609375 -61.460938 75.609375 -52.484375 C 75.609375 -43.046875 72.769531 -35.71875 67.09375 -30.5 C 61.414062 -25.28125 53.4375 -22.671875 43.15625 -22.671875 L 28.546875 -22.671875 L 28.546875 0 L 8.0625 0 Z M 28.546875 -64.453125 L 28.546875 -38.78125 L 42.125 -38.78125 C 46.65625 -38.78125 50.144531 -39.894531 52.59375 -42.125 C 55.050781 -44.351562 56.28125 -47.578125 56.28125 -51.796875 C 56.28125 -55.929688 55.050781 -59.070312 52.59375 -61.21875 C 50.144531 -63.375 46.65625 -64.453125 42.125 -64.453125 Z M 28.546875 -64.453125 "/></g></g></g><g fill="#05386b" fill-opacity="1"><g transform="translate(294.898839, 155.54991)"><g><path d="M 71.125 -64.453125 L 28.546875 -64.453125 L 28.546875 -48.453125 L 66.984375 -48.453125 L 66.984375 -32.34375 L 28.546875 -32.34375 L 28.546875 -16.109375 L 72.390625 -16.109375 L 72.390625 0 L 8.0625 0 L 8.0625 -80.5625 L 71.125 -80.5625 Z M 71.125 -64.453125 "/></g></g></g><g fill="#05386b" fill-opacity="1"><g transform="translate(365.910602, 155.54991)"><g><path d="M 69.625 -64.109375 L 45.34375 -64.109375 L 45.34375 0 L 24.859375 0 L 24.859375 -64.109375 L 0.8125 -64.109375 L 0.8125 -80.6875 L 69.625 -80.6875 Z M 69.625 -64.109375 "/></g></g></g><g fill="#05386b" fill-opacity="1"><g transform="translate(429.671497, 155.54991)"><g><path d="M 61.578125 -14.84375 L 26.359375 -14.84375 L 20.484375 0 L -0.578125 0 L 34.1875 -80.5625 L 55.25 -80.5625 L 89.203125 0 L 67.328125 0 Z M 55.59375 -30.390625 L 44.078125 -60.1875 L 32.34375 -30.390625 Z M 55.59375 -30.390625 "/></g></g></g><g fill="#05386b" fill-opacity="1"><g transform="translate(511.732198, 155.54991)"><g><path d="M 60.546875 0 L 39.25 -31.65625 L 28.546875 -19.796875 L 28.546875 0 L 8.0625 0 L 8.0625 -80.5625 L 28.546875 -80.5625 L 28.546875 -45.6875 L 59.390625 -80.5625 L 83.09375 -80.5625 L 53.171875 -47.1875 L 85.046875 0 Z M 60.546875 0 "/></g></g></g><g fill="#edf5e1" fill-opacity="1"><g transform="translate(624.657406, 140.467968)"><g><path d="M 67.21875 -62.03125 L 67.21875 -5.640625 C 67.21875 3.109375 64.128906 10.09375 57.953125 15.3125 C 51.773438 20.53125 43.660156 23.140625 33.609375 23.140625 C 23.328125 23.140625 14.117188 20.414062 5.984375 14.96875 L 12.890625 1.5 C 18.878906 5.644531 25.285156 7.71875 32.109375 7.71875 C 36.867188 7.71875 40.609375 6.566406 43.328125 4.265625 C 46.054688 1.960938 47.421875 -1.144531 47.421875 -5.0625 L 47.421875 -11.625 C 43.203125 -6.101562 37.253906 -3.34375 29.578125 -3.34375 C 21.671875 -3.34375 15.242188 -6.101562 10.296875 -11.625 C 5.347656 -17.144531 2.875 -24.394531 2.875 -33.375 C 2.875 -42.125 5.289062 -49.203125 10.125 -54.609375 C 14.957031 -60.015625 21.289062 -62.71875 29.125 -62.71875 C 37.019531 -62.800781 43.117188 -60.039062 47.421875 -54.4375 L 47.421875 -62.03125 Z M 34.53125 -17.71875 C 38.363281 -17.71875 41.46875 -19.117188 43.84375 -21.921875 C 46.226562 -24.722656 47.421875 -28.347656 47.421875 -32.796875 C 47.421875 -37.328125 46.226562 -40.992188 43.84375 -43.796875 C 41.46875 -46.597656 38.363281 -48 34.53125 -48 C 30.613281 -48 27.445312 -46.597656 25.03125 -43.796875 C 22.613281 -40.992188 21.40625 -37.328125 21.40625 -32.796875 C 21.40625 -28.347656 22.613281 -24.722656 25.03125 -21.921875 C 27.445312 -19.117188 30.613281 -17.71875 34.53125 -17.71875 Z M 34.53125 -17.71875 "/></g></g></g><g fill="#edf5e1" fill-opacity="1"><g transform="translate(692.561635, 140.467968)"><g><path d="M 36.71875 -62.71875 C 46.84375 -62.71875 55.007812 -59.820312 61.21875 -54.03125 C 67.4375 -48.238281 70.546875 -40.582031 70.546875 -31.0625 C 70.546875 -21.550781 67.4375 -13.878906 61.21875 -8.046875 C 55.007812 -2.222656 46.84375 0.6875 36.71875 0.6875 C 26.507812 0.6875 18.296875 -2.222656 12.078125 -8.046875 C 5.867188 -13.878906 2.765625 -21.550781 2.765625 -31.0625 C 2.765625 -40.582031 5.867188 -48.238281 12.078125 -54.03125 C 18.296875 -59.820312 26.507812 -62.71875 36.71875 -62.71875 Z M 36.71875 -46.953125 C 32.570312 -46.953125 29.210938 -45.457031 26.640625 -42.46875 C 24.066406 -39.476562 22.78125 -35.601562 22.78125 -30.84375 C 22.78125 -26.007812 24.066406 -22.113281 26.640625 -19.15625 C 29.210938 -16.207031 32.570312 -14.734375 36.71875 -14.734375 C 40.78125 -14.734375 44.097656 -16.207031 46.671875 -19.15625 C 49.242188 -22.113281 50.53125 -26.007812 50.53125 -30.84375 C 50.53125 -35.601562 49.242188 -39.476562 46.671875 -42.46875 C 44.097656 -45.457031 40.78125 -46.953125 36.71875 -46.953125 Z M 36.71875 -46.953125 "/></g></g></g><g fill="#edf5e1" fill-opacity="1"><g transform="translate(759.314934, 140.467968)"><g><path d="M 43.15625 0 L 22.78125 0 L -0.578125 -62.03125 L 19.90625 -62.03125 L 33.265625 -18.1875 L 46.734375 -62.03125 L 66.53125 -62.03125 Z M 43.15625 0 "/></g></g></g><g clip-path="url(#a3116764a2)"><path fill="#edf5e1" d="M 130.023438 178.664062 C 130.179688 177.351562 130.371094 176.234375 130.617188 175.402344 C 130.75 174.945312 130.882812 174.488281 131.019531 174.03125 C 122.007812 177.269531 113.707031 182.113281 105.164062 186.417969 C 105.144531 187.164062 105.121094 187.898438 105.101562 188.621094 C 113.390625 185.257812 121.722656 182 130.023438 178.664062 Z M 129.5 189.558594 C 128.09375 189.617188 126.679688 189.585938 125.265625 189.535156 C 124.382812 195.09375 124.320312 200.976562 125.078125 206.605469 C 127.871094 206.4375 129.800781 206.269531 129.800781 206.117188 C 129.800781 205.800781 129.429688 197.617188 129.5 189.558594 Z M 123.546875 189.476562 C 122.800781 189.449219 122.058594 189.429688 121.316406 189.425781 C 120.707031 189.421875 120.410156 188.882812 120.488281 188.335938 C 120.664062 187.152344 120.980469 185.460938 120.761719 184.199219 C 119.449219 184.722656 118.132812 185.246094 116.820312 185.765625 C 116.820312 185.777344 116.824219 185.78125 116.824219 185.789062 C 117.71875 192.675781 117.347656 200.007812 116.457031 207.019531 C 118.84375 206.917969 121.261719 206.8125 123.371094 206.699219 C 122.625 201.007812 122.6875 195.117188 123.546875 189.476562 Z M 115.179688 186.421875 C 114.53125 186.679688 113.882812 186.941406 113.234375 187.199219 C 112.476562 193.886719 111.269531 200.539062 110.664062 207.242188 C 111.925781 207.195312 113.304688 207.144531 114.726562 207.089844 C 115.601562 200.285156 115.976562 193.136719 115.179688 186.421875 Z M 109.820312 199.136719 C 108.144531 199.121094 106.464844 199.019531 104.796875 199.054688 C 104.632812 204.21875 104.519531 207.453125 104.519531 207.453125 C 104.519531 207.453125 106.3125 207.394531 108.9375 207.304688 C 109.183594 204.570312 109.53125 201.847656 109.90625 199.128906 C 109.878906 199.128906 109.851562 199.136719 109.820312 199.136719 Z M 109.820312 197.417969 C 109.941406 197.417969 110.042969 197.441406 110.136719 197.476562 C 110.585938 194.292969 111.054688 191.109375 111.429688 187.917969 C 109.300781 188.769531 107.175781 189.625 105.050781 190.484375 C 104.980469 192.976562 104.910156 195.285156 104.847656 197.351562 C 106.5 197.320312 108.15625 197.402344 109.820312 197.417969 Z M 122.308594 187.722656 C 124.707031 187.785156 127.128906 187.96875 129.523438 187.851562 C 129.566406 185.265625 129.660156 182.753906 129.839844 180.578125 C 127.355469 181.574219 124.871094 182.566406 122.382812 183.554688 C 122.691406 184.816406 122.511719 186.351562 122.308594 187.722656 Z M 131.609375 172.011719 C 131.667969 171.808594 131.730469 171.605469 131.789062 171.40625 C 130.347656 171.308594 128.90625 171.207031 127.460938 171.191406 C 126.863281 171.183594 126.535156 170.648438 126.632812 170.101562 C 126.863281 168.832031 126.945312 167.554688 126.980469 166.269531 C 123.945312 168.820312 120.996094 171.515625 117.695312 173.597656 C 113.84375 176.027344 109.925781 178.273438 105.894531 180.386719 C 105.699219 180.492188 105.503906 180.601562 105.308594 180.710938 C 105.277344 181.988281 105.246094 183.242188 105.214844 184.472656 C 113.902344 180.058594 122.371094 175.171875 131.609375 172.011719 Z M 128.453125 169.496094 C 129.726562 169.539062 131 169.636719 132.273438 169.71875 C 133.125 166.714844 133.886719 163.75 134.320312 160.984375 C 132.335938 162.078125 130.496094 163.417969 128.710938 164.847656 C 128.699219 166.402344 128.652344 167.953125 128.453125 169.496094 Z M 113.203125 149.65625 C 112.671875 149.632812 112.140625 149.609375 111.605469 149.585938 C 111.144531 149.570312 110.742188 149.207031 110.746094 148.726562 C 110.769531 146.789062 110.914062 144.855469 110.941406 142.917969 C 109.226562 142.855469 107.507812 142.816406 105.792969 142.8125 C 105.871094 152.128906 105.683594 164.328125 105.429688 175.617188 C 109.820312 172.726562 113.792969 169.042969 117.722656 165.742188 C 119.027344 164.648438 120.386719 163.628906 121.773438 162.640625 C 118.433594 158.644531 113.9375 154.933594 113.203125 149.65625 Z M 123.148438 161.671875 C 124.074219 161.03125 125.003906 160.394531 125.933594 159.757812 C 123.167969 156.945312 121.566406 153.035156 119.132812 149.9375 C 117.734375 149.867188 116.335938 149.796875 114.941406 149.734375 C 115.695312 154.4375 120.011719 158.03125 123.148438 161.671875 Z M 127.355469 158.773438 C 129.839844 157.039062 132.265625 155.238281 134.449219 153.128906 C 134.363281 152.378906 134.257812 151.585938 134.136719 150.765625 C 129.859375 150.539062 125.582031 150.289062 121.308594 150.054688 C 123.269531 152.960938 124.824219 156.382812 127.355469 158.773438 Z M 129.863281 144.035156 C 124.128906 143.746094 118.394531 143.253906 112.660156 142.992188 C 112.632812 144.632812 112.53125 146.269531 112.484375 147.90625 C 117.96875 148.132812 123.441406 148.453125 128.917969 148.761719 C 129.234375 147.183594 129.550781 145.613281 129.863281 144.035156 Z M 130.648438 148.855469 C 131.722656 148.914062 132.796875 148.976562 133.871094 149.035156 C 133.621094 147.449219 133.335938 145.804688 133.058594 144.179688 C 132.570312 144.160156 132.085938 144.136719 131.597656 144.117188 C 131.28125 145.695312 130.964844 147.277344 130.648438 148.855469 Z M 124.769531 139.851562 C 120.671875 139.585938 116.625 139.429688 112.515625 139.582031 C 110.261719 139.667969 108.007812 139.777344 105.757812 139.84375 C 105.761719 140.253906 105.769531 140.667969 105.773438 141.09375 C 114.773438 141.113281 123.769531 142.117188 132.765625 142.449219 C 132.644531 141.726562 132.527344 141.019531 132.417969 140.324219 C 129.867188 140.175781 127.320312 140.015625 124.769531 139.851562 Z M 112.886719 137.851562 C 116.867188 137.710938 120.796875 137.875 124.769531 138.132812 C 127.230469 138.292969 129.695312 138.445312 132.15625 138.59375 C 131.972656 137.316406 131.832031 136.128906 131.75 135.085938 C 127.746094 134.523438 123.773438 133.621094 119.730469 133.335938 C 119.257812 133.300781 118.882812 132.964844 118.871094 132.476562 C 118.765625 127.191406 119.992188 122.007812 120.226562 116.746094 C 115.28125 123.082031 110.644531 129.699219 105.667969 136.023438 C 105.6875 136.691406 105.707031 137.398438 105.722656 138.125 C 108.109375 138.054688 110.496094 137.9375 112.886719 137.851562 Z M 119.71875 114.625 C 119.742188 114.597656 119.765625 114.578125 119.789062 114.554688 C 117.089844 114.59375 114.394531 114.660156 111.707031 114.882812 C 111.242188 114.921875 110.847656 114.460938 110.847656 114.023438 L 110.847656 108.484375 C 109.515625 108.515625 108.183594 108.550781 106.847656 108.597656 C 106.007812 114.945312 105.203125 122.839844 105.574219 133.375 C 110.367188 127.183594 114.878906 120.753906 119.71875 114.625 Z M 120.683594 129.203125 C 120.628906 130.03125 120.59375 130.859375 120.589844 131.691406 C 124.300781 132.027344 127.96875 132.832031 131.65625 133.355469 C 131.632812 132.871094 131.605469 132.335938 131.582031 131.761719 C 127.957031 130.859375 124.375 129.789062 120.683594 129.203125 Z M 121.316406 125.207031 C 121.230469 125.199219 121.152344 125.179688 121.078125 125.152344 C 120.984375 125.933594 120.894531 126.714844 120.820312 127.496094 C 124.441406 128.039062 127.953125 129.070312 131.496094 129.96875 C 131.453125 129.074219 131.410156 128.117188 131.363281 127.113281 C 128.054688 126.273438 124.734375 125.488281 121.316406 125.207031 Z M 121.515625 122.433594 C 121.480469 122.4375 121.449219 122.429688 121.414062 122.425781 C 121.371094 122.78125 121.328125 123.136719 121.28125 123.492188 C 121.296875 123.492188 121.304688 123.488281 121.316406 123.492188 C 124.707031 123.769531 128.003906 124.515625 131.285156 125.332031 C 131.25 124.605469 131.21875 123.855469 131.183594 123.101562 C 127.976562 122.640625 124.742188 122.324219 121.515625 122.433594 Z M 121.617188 120.714844 C 124.78125 120.613281 127.957031 120.917969 131.109375 121.363281 C 131.011719 119.035156 130.914062 116.664062 130.835938 114.433594 C 129.449219 114.417969 128.066406 114.394531 126.683594 114.433594 C 125.117188 114.484375 123.550781 114.503906 121.980469 114.523438 C 122.015625 116.597656 121.847656 118.65625 121.617188 120.714844 Z M 110.847656 106.773438 L 110.847656 102.382812 C 110.847656 102.324219 110.855469 102.269531 110.867188 102.214844 C 109.953125 102.316406 109.039062 102.433594 108.125 102.574219 C 107.960938 102.601562 107.8125 102.578125 107.679688 102.53125 C 107.496094 103.902344 107.292969 105.339844 107.082031 106.875 C 108.335938 106.832031 109.59375 106.800781 110.847656 106.773438 Z M 118.304688 108.335938 C 116.386719 108.378906 114.476562 108.410156 112.566406 108.449219 L 112.566406 113.105469 C 117.070312 112.785156 121.59375 112.90625 126.101562 112.742188 C 127.648438 112.6875 129.214844 112.722656 130.777344 112.746094 C 130.722656 111.148438 130.679688 109.660156 130.652344 108.351562 C 126.5625 107.953125 122.394531 108.242188 118.304688 108.335938 Z M 112.566406 106.734375 C 114.6875 106.691406 116.808594 106.65625 118.9375 106.601562 C 122.8125 106.5 126.75 106.277344 130.625 106.628906 C 130.621094 106.242188 130.617188 105.871094 130.617188 105.539062 C 130.617188 104.628906 130.621094 103.390625 130.632812 101.925781 C 124.582031 101.710938 118.523438 101.523438 112.503906 102.054688 C 112.542969 102.148438 112.566406 102.257812 112.566406 102.382812 Z M 128.019531 89.40625 C 128.011719 92.9375 127.992188 96.539062 127.597656 100.054688 C 127.59375 100.078125 127.585938 100.101562 127.582031 100.125 C 128.601562 100.152344 129.625 100.1875 130.644531 100.21875 C 130.667969 97.089844 130.707031 93.238281 130.746094 89.375 C 129.839844 89.40625 128.929688 89.414062 128.019531 89.40625 Z M 125.878906 100.054688 C 126.273438 96.53125 126.292969 92.921875 126.300781 89.378906 C 124.542969 89.339844 122.78125 89.277344 121.019531 89.269531 C 120.554688 89.269531 120.164062 88.878906 120.164062 88.410156 C 120.160156 87.09375 120.132812 85.777344 120.113281 84.464844 C 117.269531 84.824219 114.378906 84.980469 111.519531 85.050781 C 110.285156 85.082031 109.050781 85.171875 107.816406 85.277344 C 108.175781 90.371094 108.378906 94.164062 108.328125 95.753906 C 108.273438 97.367188 108.109375 99.066406 107.890625 100.890625 C 113.859375 99.992188 119.867188 99.9375 125.878906 100.082031 C 125.878906 100.070312 125.878906 100.0625 125.878906 100.054688 Z M 110.167969 83.386719 C 113.472656 83.210938 116.800781 83.1875 120.085938 82.75 C 120.066406 81.027344 120.070312 79.308594 120.148438 77.585938 C 119.757812 77.667969 119.371094 77.746094 118.984375 77.832031 C 115.199219 78.652344 111.375 80.203125 107.496094 80.890625 C 107.566406 81.828125 107.636719 82.738281 107.699219 83.613281 C 108.523438 83.53125 109.351562 83.433594 110.167969 83.386719 Z M 121.875 87.558594 C 124.832031 87.605469 127.808594 87.78125 130.761719 87.671875 C 130.804688 83.207031 130.847656 78.871094 130.871094 75.78125 C 127.871094 76.25 124.863281 76.691406 121.878906 77.25 C 121.707031 80.683594 121.84375 84.121094 121.875 87.558594 Z M 119.230469 76.023438 C 123.089844 75.21875 126.992188 74.664062 130.882812 74.050781 C 130.886719 73.382812 130.890625 72.816406 130.890625 72.375 C 130.890625 72.144531 130.890625 71.921875 130.898438 71.703125 C 122.957031 72.882812 114.972656 73.761719 107.023438 74.902344 C 107.144531 76.375 107.257812 77.804688 107.363281 79.183594 C 111.367188 78.484375 115.347656 76.832031 119.230469 76.023438 Z M 131.585938 64.65625 C 128.527344 65.613281 125.417969 66.410156 122.304688 67.179688 L 122.304688 71.167969 C 125.210938 70.789062 128.117188 70.394531 131.011719 69.960938 C 131.203125 68.066406 131.5625 66.480469 131.730469 64.613281 C 131.683594 64.628906 131.632812 64.640625 131.585938 64.65625 Z M 120.585938 67.605469 C 120.453125 67.640625 120.324219 67.671875 120.191406 67.703125 C 117.140625 68.457031 114.113281 69.363281 111.058594 70.089844 C 109.570312 70.441406 108.132812 70.765625 106.714844 71.152344 C 106.773438 71.839844 106.828125 72.523438 106.882812 73.199219 C 111.445312 72.550781 116.015625 71.980469 120.585938 71.390625 Z M 107.222656 64.871094 C 108.148438 63.347656 108.828125 61.695312 109.570312 60.074219 C 110.664062 57.683594 111.910156 54.398438 114.101562 52.574219 C 114.082031 52.53125 114.066406 52.488281 114.054688 52.441406 C 113.730469 51.183594 113.617188 49.925781 113.605469 48.667969 C 110.667969 48.851562 107.722656 48.914062 104.785156 49.078125 C 105.296875 54.753906 105.820312 60.644531 106.304688 66.273438 C 106.621094 65.816406 106.933594 65.347656 107.222656 64.871094 Z M 120.960938 62.945312 C 120.023438 60.074219 121.167969 56.328125 120.617188 53.5 C 120.609375 53.464844 120.613281 53.4375 120.605469 53.402344 C 119.1875 53.320312 117.769531 53.238281 116.351562 53.15625 C 116.296875 53.195312 116.238281 53.226562 116.167969 53.253906 C 114.617188 53.871094 113.640625 55.820312 112.886719 57.203125 C 111.992188 58.828125 111.242188 60.53125 110.476562 62.21875 C 109.816406 63.671875 109 65.003906 108.148438 66.3125 C 112.339844 64.996094 116.628906 63.992188 120.917969 62.976562 C 120.933594 62.964844 120.945312 62.957031 120.960938 62.945312 Z M 122.453125 58.222656 C 122.421875 59.542969 122.257812 61.203125 122.699219 62.554688 C 125.71875 61.832031 128.730469 61.082031 131.699219 60.191406 C 131.636719 59.582031 131.550781 58.933594 131.433594 58.238281 C 131.234375 57.074219 131.054688 55.546875 130.890625 53.78125 C 128.042969 53.777344 125.195312 53.65625 122.347656 53.503906 C 122.582031 55.0625 122.484375 56.648438 122.453125 58.222656 Z M 113.648438 46.945312 C 113.746094 45.109375 113.972656 43.265625 114.015625 41.40625 C 112.492188 41.265625 110.96875 41.074219 109.449219 40.816406 C 109.074219 40.753906 108.828125 40.335938 108.820312 39.988281 C 108.675781 35.484375 108.769531 30.957031 108.65625 26.445312 C 106.667969 26.46875 104.679688 26.492188 102.691406 26.503906 C 103.210938 31.996094 103.90625 39.417969 104.632812 47.378906 C 107.632812 47.207031 110.644531 47.136719 113.648438 46.945312 Z M 115.578125 51.390625 C 120.625 51.675781 125.683594 52.050781 130.738281 52.0625 C 130.484375 48.921875 130.269531 45.203125 130.089844 41.382812 C 125.304688 41.707031 120.503906 41.863281 115.734375 41.546875 C 115.628906 44.839844 114.914062 48.132812 115.578125 51.390625 Z M 110.46875 36.4375 C 110.480469 37.375 110.492188 38.316406 110.519531 39.253906 C 116.949219 40.265625 123.5 40.128906 130.015625 39.679688 C 129.953125 38.300781 129.898438 36.917969 129.847656 35.550781 C 123.390625 35.929688 116.9375 36.394531 110.46875 36.4375 Z M 119.582031 26.523438 C 119.503906 26.457031 119.433594 26.378906 119.386719 26.285156 C 118.199219 26.3125 117.011719 26.34375 115.828125 26.355469 C 114.003906 26.382812 112.179688 26.402344 110.355469 26.425781 C 110.425781 29.1875 110.429688 31.953125 110.449219 34.71875 C 113.542969 34.699219 116.628906 34.582031 119.710938 34.425781 C 119.609375 31.789062 119.832031 29.152344 119.582031 26.523438 Z M 121.425781 34.332031 C 124.214844 34.175781 127 34 129.785156 33.835938 C 129.691406 31.128906 129.613281 28.53125 129.550781 26.226562 C 126.800781 26.113281 124.035156 26.167969 121.273438 26.234375 C 121.566406 28.929688 121.332031 31.632812 121.425781 34.332031 Z M 129.34375 17.1875 L 119.636719 17.1875 C 120.453125 19.515625 120.683594 22.054688 120.886719 24.523438 C 123.761719 24.457031 126.644531 24.410156 129.503906 24.515625 C 129.394531 20.144531 129.34375 17.1875 129.34375 17.1875 Z M 107.972656 17.1875 L 101.800781 17.1875 C 101.800781 17.1875 102.082031 20.089844 102.527344 24.785156 C 104.554688 24.773438 106.578125 24.753906 108.597656 24.730469 C 108.5 22.207031 108.316406 19.691406 107.972656 17.1875 Z M 110.296875 24.707031 C 111.890625 24.6875 113.484375 24.667969 115.074219 24.648438 C 116.4375 24.632812 117.804688 24.597656 119.175781 24.566406 C 118.980469 22.078125 118.769531 19.476562 117.8125 17.1875 L 109.691406 17.1875 C 110.019531 19.6875 110.195312 22.195312 110.296875 24.707031 Z M 177.644531 38.824219 C 176.394531 37.945312 175.144531 37.066406 173.898438 36.1875 C 174.058594 35.96875 174.21875 35.746094 174.382812 35.527344 C 175.621094 36.453125 176.855469 37.378906 178.09375 38.304688 C 177.945312 38.476562 177.792969 38.652344 177.644531 38.824219 Z M 66.316406 92.589844 C 66.667969 92.761719 66.964844 92.863281 67.210938 93.03125 C 67.457031 93.207031 67.65625 93.445312 67.941406 93.71875 C 66.558594 95.683594 65.214844 97.585938 63.792969 99.613281 C 63.324219 99.367188 62.851562 99.121094 62.253906 98.808594 C 63.644531 96.675781 64.953125 94.675781 66.316406 92.589844 Z M 157.242188 169.445312 C 156.496094 171.175781 155.871094 172.617188 155.230469 174.101562 C 152.269531 171.433594 152.148438 171.164062 153.769531 169.0625 C 155.007812 167.464844 155.929688 169.222656 157.242188 169.445312 Z M 169.089844 193.207031 C 169.308594 191.628906 169.398438 190.097656 169.789062 188.644531 C 169.921875 188.15625 170.785156 187.710938 171.394531 187.542969 C 172.09375 187.355469 172.882812 187.5 173.617188 187.5 C 173.953125 190.496094 172.789062 191.972656 169.089844 193.207031 Z M 78.460938 43.972656 C 77.648438 43.390625 77.09375 42.988281 76.347656 42.453125 C 78.144531 39.746094 79.878906 37.136719 81.695312 34.398438 C 82.273438 34.949219 82.769531 35.417969 83.417969 36.035156 C 81.804688 38.617188 80.203125 41.183594 78.460938 43.972656 Z M 62.164062 109.5625 C 64.007812 109.65625 65.847656 109.714844 67.683594 109.878906 C 68.097656 109.917969 68.753906 110.273438 68.824219 110.589844 C 69.207031 112.351562 69.445312 114.140625 69.734375 115.921875 C 69.550781 116.03125 69.371094 116.136719 69.1875 116.246094 C 66.773438 114.164062 64.359375 112.082031 61.945312 110 C 62.019531 109.855469 62.09375 109.707031 62.164062 109.5625 Z M 42.828125 111.089844 C 41.761719 114.84375 40.726562 118.492188 39.648438 122.308594 C 38.398438 122.4375 37.691406 122.019531 38.03125 120.398438 C 38.570312 117.84375 39 115.265625 39.523438 112.707031 C 39.996094 110.402344 40.023438 110.40625 42.828125 111.089844 Z M 170.253906 179.082031 C 172.015625 179.246094 173.554688 179.386719 175.191406 179.539062 C 175.0625 180.753906 175.007812 181.707031 174.851562 182.640625 C 174.246094 186.25 174.097656 186.34375 170.253906 185.792969 C 170.253906 183.65625 170.253906 181.523438 170.253906 179.082031 Z M 150.789062 97.105469 C 150.617188 96.453125 150.199219 95.753906 150.316406 95.15625 C 151.042969 91.460938 151.785156 87.757812 152.789062 84.128906 C 153.003906 83.339844 154.304688 82.851562 155.109375 82.226562 C 155.347656 82.417969 155.589844 82.609375 155.828125 82.800781 C 154.445312 87.519531 153.0625 92.238281 151.675781 96.957031 C 151.382812 97.007812 151.085938 97.054688 150.789062 97.105469 Z M 70.917969 110.332031 C 74.179688 110.382812 74.351562 110.539062 74.71875 113.34375 C 74.9375 114.988281 75.234375 116.621094 75.433594 118.269531 C 75.519531 118.976562 75.449219 119.703125 75.449219 120.734375 C 72.824219 119.15625 70.757812 117.875 71.292969 114.640625 C 71.511719 113.3125 71.074219 111.871094 70.917969 110.332031 Z M 196.816406 116.355469 C 198.648438 117.269531 200.515625 117.773438 201.722656 118.953125 C 202.519531 119.730469 202.363281 121.476562 202.691406 123.078125 C 200.390625 123.3125 198.457031 123.511719 196.230469 123.734375 C 196.425781 121.300781 196.605469 119.027344 196.816406 116.355469 Z M 80.644531 201.847656 C 79.105469 201.789062 78.425781 201.101562 78.554688 199.441406 C 78.875 195.300781 79.0625 191.148438 79.316406 187 C 79.339844 186.621094 79.320312 186.140625 79.539062 185.894531 C 79.917969 185.476562 80.464844 185.207031 80.941406 184.871094 C 81.15625 185.324219 81.582031 185.78125 81.558594 186.21875 C 81.292969 191.386719 80.964844 196.550781 80.644531 201.847656 Z M 152.066406 50.1875 C 151.746094 46.0625 151.414062 42.046875 151.128906 38.03125 C 150.992188 36.089844 152.378906 35.976562 154.101562 35.820312 C 154.261719 37.324219 154.472656 38.75 154.554688 40.179688 C 154.679688 42.355469 154.628906 44.539062 154.808594 46.707031 C 155.039062 49.5 155.101562 49.496094 152.066406 50.1875 Z M 143.824219 161.691406 C 148.117188 156.363281 152.367188 151.097656 156.660156 145.777344 C 157.3125 146.992188 157.246094 147.960938 156.320312 149.148438 C 153.332031 152.992188 150.496094 156.953125 147.636719 160.890625 C 146.644531 162.261719 145.574219 163.035156 143.824219 161.691406 Z M 135.828125 28.328125 C 136.46875 31.613281 137.078125 34.742188 137.726562 38.054688 C 137.78125 37.957031 137.75 38.109375 137.65625 38.167969 C 133.8125 40.515625 133.125 40.1875 132.605469 35.707031 C 132.429688 34.175781 132.390625 32.632812 132.230469 31.097656 C 131.984375 28.6875 132.023438 28.605469 134.378906 28.335938 C 134.816406 28.285156 135.265625 28.328125 135.828125 28.328125 Z M 140.496094 49.503906 C 141.867188 55.300781 141.097656 56.839844 135.402344 59.257812 C 135 56.554688 134.609375 53.929688 134.214844 51.273438 C 136.328125 50.679688 138.410156 50.09375 140.496094 49.503906 Z M 98.917969 140.796875 C 97.632812 139.769531 96.335938 138.75 95.070312 137.691406 C 94.855469 137.511719 94.609375 137.125 94.660156 136.894531 C 95.414062 133.292969 96.214844 129.699219 97.003906 126.085938 C 98.671875 126.027344 99.144531 126.722656 99.140625 128.269531 C 99.121094 131.679688 99.332031 135.09375 99.441406 138.503906 C 99.464844 139.1875 99.445312 139.875 99.445312 140.558594 C 99.269531 140.640625 99.09375 140.71875 98.917969 140.796875 Z M 142.738281 27.105469 C 143.3125 30.28125 143.84375 33.210938 144.378906 36.171875 C 142.757812 36.625 141.300781 37.03125 139.425781 37.554688 C 138.878906 34.375 138.347656 31.28125 137.789062 28.019531 C 139.546875 27.695312 141.023438 27.421875 142.738281 27.105469 Z M 140.640625 41.015625 C 140.640625 42.871094 140.695312 44.644531 140.605469 46.414062 C 140.582031 46.875 140.195312 47.554688 139.800781 47.714844 C 137.921875 48.5 135.980469 49.136719 133.492188 50.027344 C 133.492188 47.808594 133.394531 45.980469 133.546875 44.175781 C 133.59375 43.617188 134.210938 42.816406 134.738281 42.632812 C 136.589844 41.996094 138.519531 41.574219 140.640625 41.015625 Z M 98.089844 94.472656 C 96.851562 94.140625 95.617188 93.90625 94.457031 93.472656 C 89.363281 91.585938 84.308594 89.601562 79.210938 87.734375 C 77.5625 87.128906 76.949219 86.230469 77.816406 84.320312 C 78.9375 84.773438 80.074219 85.242188 81.222656 85.691406 C 86.144531 87.628906 91.046875 89.636719 96.015625 91.453125 C 97.460938 91.980469 98.351562 92.546875 98.089844 94.472656 Z M 85.703125 185.269531 C 85.703125 188.335938 85.703125 191.339844 85.703125 194.34375 C 85.703125 197.410156 85.703125 200.472656 85.703125 203.554688 C 82.675781 203.3125 82.339844 203.035156 82.460938 200.4375 C 82.675781 195.765625 82.964844 191.097656 83.257812 186.429688 C 83.347656 185.035156 83.398438 185.039062 85.703125 185.269531 Z M 180.867188 146.277344 C 179.472656 148.335938 178.195312 150.328125 176.808594 152.234375 C 176 153.351562 172.9375 153.445312 170.691406 152.488281 C 172.335938 149.539062 173.972656 146.609375 175.730469 143.460938 C 177.5 144.429688 179.152344 145.335938 180.867188 146.277344 Z M 41.484375 145.035156 C 41.484375 147.347656 41.484375 149.386719 41.484375 151.625 C 37.15625 152.058594 32.875 152.78125 28.601562 152.117188 C 28.589844 151.839844 28.574219 151.5625 28.5625 151.285156 C 32.777344 149.246094 36.996094 147.203125 41.484375 145.035156 Z M 84.3125 34.410156 C 83.6875 33.84375 83.128906 33.339844 82.339844 32.621094 C 85.011719 28.546875 87.628906 24.46875 90.355469 20.46875 C 91.070312 19.417969 92.25 19.164062 93.363281 20.011719 C 94.535156 20.90625 94.085938 21.699219 93.289062 22.703125 C 90.273438 26.503906 87.371094 30.394531 84.3125 34.410156 Z M 37.871094 164.554688 C 38.074219 163.304688 38.222656 162.378906 38.386719 161.378906 C 42.457031 161.179688 46.457031 160.988281 50.792969 160.777344 C 50.683594 162.476562 50.585938 164.085938 50.449219 166.210938 C 46.226562 165.65625 42.164062 165.117188 37.871094 164.554688 Z M 69.253906 144.308594 C 71.285156 144.554688 72.917969 144.746094 74.589844 144.949219 C 74.378906 147.984375 74.191406 150.847656 73.980469 153.703125 C 73.742188 157.011719 73.683594 157.050781 69.992188 156.480469 C 69.75 152.515625 69.503906 148.484375 69.253906 144.308594 Z M 157.277344 185.941406 C 158.847656 187 160 187.679688 161.019531 188.515625 C 161.402344 188.828125 161.699219 189.527344 161.660156 190.015625 C 161.441406 192.6875 161.140625 195.359375 160.765625 198.011719 C 160.710938 198.375 160.125 198.730469 159.710938 198.953125 C 158.765625 199.464844 157.773438 199.890625 156.289062 200.59375 C 156.625 195.605469 156.933594 191.027344 157.277344 185.941406 Z M 50.773438 151.5625 C 48.089844 151.5625 45.8125 151.5625 43.453125 151.5625 C 43.453125 149.335938 43.414062 147.175781 43.488281 145.015625 C 43.503906 144.613281 43.871094 144.050781 44.234375 143.863281 C 45.921875 142.980469 47.671875 142.207031 49.585938 141.304688 C 49.980469 144.734375 50.359375 147.992188 50.773438 151.5625 Z M 56 120.609375 C 52.429688 118.339844 48.835938 116.117188 45.324219 113.765625 C 44.855469 113.449219 44.585938 112.46875 44.667969 111.855469 C 44.710938 111.53125 45.710938 111.136719 46.289062 111.121094 C 48.523438 111.046875 50.769531 111.050781 53 111.175781 C 53.550781 111.207031 54.425781 111.699219 54.539062 112.140625 C 55.226562 114.773438 55.738281 117.453125 56.308594 120.117188 C 56.207031 120.28125 56.101562 120.445312 56 120.609375 Z M 38.660156 55.933594 C 41.804688 52.222656 44.953125 48.515625 48.351562 44.507812 C 49.355469 47.761719 50.203125 50.503906 51.164062 53.621094 C 47.027344 54.542969 43.019531 55.433594 39.011719 56.324219 C 38.894531 56.195312 38.777344 56.0625 38.660156 55.933594 Z M 52.667969 181.859375 C 56.507812 182.792969 60.308594 183.722656 64.371094 184.710938 C 63.96875 187.089844 63.527344 189.691406 63.019531 192.683594 C 61.136719 191.320312 59.4375 190.132812 57.789062 188.875 C 56.417969 187.828125 55.148438 186.644531 53.761719 185.621094 C 52.53125 184.714844 51.957031 183.675781 52.667969 181.859375 Z M 51.8125 55.402344 C 52.203125 56.402344 52.664062 57.574219 53.242188 59.050781 C 46.769531 60.65625 40.433594 62.230469 33.800781 63.878906 C 35.253906 61.007812 36.429688 58.65625 39.910156 58.179688 C 43.808594 57.644531 47.613281 56.414062 51.8125 55.402344 Z M 193.53125 135.296875 C 192.285156 139.25 191.132812 143.238281 189.71875 147.128906 C 189.40625 147.980469 188.242188 148.664062 187.320312 149.117188 C 184.785156 150.367188 182.167969 151.449219 179.585938 152.597656 C 179.421875 152.34375 179.253906 152.09375 179.085938 151.84375 C 183.722656 146.214844 188.359375 140.585938 192.992188 134.957031 C 193.171875 135.070312 193.351562 135.183594 193.53125 135.296875 Z M 155.269531 53.132812 C 155.269531 56.613281 155.304688 59.746094 155.230469 62.878906 C 155.222656 63.335938 154.808594 64.007812 154.402344 64.199219 C 152.335938 65.164062 150.207031 66.007812 147.660156 67.074219 C 147.929688 64.441406 148.476562 62.167969 148.308594 59.953125 C 148.066406 56.796875 149.734375 55.375 152.257812 54.371094 C 153.195312 54 154.125 53.605469 155.269531 53.132812 Z M 196.871094 81.003906 C 195.90625 80.628906 195.085938 80.285156 194.25 79.984375 C 192.730469 79.445312 191.289062 78.988281 192.589844 76.835938 C 192.847656 76.402344 192.316406 75.21875 191.828125 74.671875 C 190.941406 73.691406 189.8125 72.929688 188.589844 71.914062 C 189.25 70.648438 189.941406 69.324219 190.648438 67.96875 C 194.070312 69.777344 197.339844 71.503906 200.839844 73.355469 C 199.546875 75.847656 198.207031 78.425781 196.871094 81.003906 Z M 131.84375 26.707031 C 131.496094 23.570312 131.171875 20.609375 130.792969 17.1875 C 134.320312 17.953125 137.605469 18.640625 140.875 19.40625 C 141.1875 19.480469 141.476562 20.003906 141.621094 20.375 C 141.773438 20.78125 141.746094 21.257812 141.800781 21.703125 C 142.28125 25.566406 142.28125 25.535156 138.300781 25.902344 C 136.21875 26.09375 134.144531 26.417969 131.84375 26.707031 Z M 176.660156 141.769531 C 179.371094 137.65625 181.933594 133.769531 184.757812 129.488281 C 186.09375 132.164062 187.222656 134.355469 188.261719 136.589844 C 188.398438 136.882812 188.1875 137.46875 187.949219 137.78125 C 186.152344 140.1875 184.308594 142.558594 182.390625 145.054688 C 180.492188 143.96875 178.746094 142.964844 176.660156 141.769531 Z M 189.621094 135.222656 C 188.492188 132.871094 187.308594 130.398438 186.015625 127.710938 C 188.792969 124.054688 191.703125 120.222656 194.832031 116.097656 C 194.832031 118.132812 194.910156 119.710938 194.8125 121.273438 C 194.695312 123.125 194.097656 125.007812 194.300781 126.808594 C 194.734375 130.71875 193.492188 133.546875 189.621094 135.222656 Z M 180.792969 76.644531 C 176.867188 69.699219 175.40625 64.445312 176.027344 59.40625 C 179.882812 61.386719 183.652344 63.328125 187.683594 65.398438 C 185.371094 69.167969 183.148438 72.796875 180.792969 76.644531 Z M 29.8125 154.289062 C 36.902344 153.863281 43.652344 153.460938 50.585938 153.046875 C 50.585938 155.023438 50.585938 156.835938 50.585938 158.988281 C 44.746094 159.082031 38.941406 159.191406 33.136719 159.238281 C 32.746094 159.242188 32.203125 158.832031 31.988281 158.464844 C 31.25 157.207031 30.632812 155.882812 29.8125 154.289062 Z M 41.375 122.863281 C 42.0625 120.457031 42.785156 117.933594 43.449219 115.597656 C 47.761719 117.890625 51.773438 120.089844 55.855469 122.160156 C 56.941406 122.710938 57.546875 123.355469 57.730469 124.554688 C 58.023438 126.4375 58.433594 128.300781 58.859375 130.5 C 52.984375 127.9375 47.347656 125.472656 41.375 122.863281 Z M 200.742188 114.921875 C 199.0625 113.792969 197.605469 112.816406 196.046875 111.765625 C 199.613281 104.921875 203.125 98.183594 206.660156 91.398438 C 209.578125 92.40625 211.945312 93.617188 211.976562 97.21875 C 211.996094 99.433594 212.488281 101.640625 212.832031 104.339844 C 211.296875 103.300781 210.09375 102.589844 209.003906 101.734375 C 207.699219 100.710938 207 101.085938 206.410156 102.496094 C 205 105.867188 203.53125 109.214844 202.058594 112.5625 C 201.75 113.253906 201.320312 113.894531 200.742188 114.921875 Z M 64.28125 158.4375 C 62.519531 158.617188 61.972656 158.089844 62.085938 156.382812 C 62.308594 152.929688 62.65625 149.457031 62.503906 146.015625 C 62.390625 143.402344 61.675781 140.792969 60.992188 138.242188 C 60.863281 137.761719 59.613281 137.304688 58.890625 137.328125 C 58.0625 137.347656 57.246094 137.910156 56.660156 138.144531 C 59.132812 147.539062 58.324219 157.019531 58.402344 166.800781 C 63.488281 166.457031 68.488281 166.113281 73.601562 165.765625 C 73.601562 163.28125 73.601562 160.796875 73.601562 157.949219 C 70.402344 158.101562 67.328125 158.128906 64.28125 158.4375 Z M 33.535156 161.457031 C 34.375 162.625 34.992188 163.488281 35.613281 164.351562 C 35.789062 164.28125 35.964844 164.210938 36.144531 164.144531 C 36.320312 163.253906 36.5 162.367188 36.683594 161.457031 C 35.59375 161.457031 34.726562 161.457031 33.535156 161.457031 Z M 163.992188 137.566406 C 162.363281 138.988281 161.257812 138.078125 159.976562 137.289062 C 160.390625 136.660156 160.757812 136.101562 161.253906 135.351562 C 162.167969 136.089844 162.980469 136.75 163.992188 137.566406 Z M 164.621094 29.699219 C 163.046875 30.097656 161.476562 30.5 159.265625 31.0625 C 160.074219 29.507812 160.601562 28.488281 161.269531 27.203125 C 162.496094 27.863281 163.605469 28.46875 164.71875 29.066406 C 164.683594 29.277344 164.652344 29.488281 164.621094 29.699219 Z M 156.261719 24.769531 C 157.21875 25.207031 157.910156 25.507812 158.582031 25.835938 C 158.914062 25.996094 159.222656 26.210938 159.675781 26.480469 C 158.8125 28.171875 157.988281 29.785156 157.164062 31.398438 C 156.996094 31.386719 156.832031 31.375 156.664062 31.363281 C 156.539062 29.285156 156.410156 27.207031 156.261719 24.769531 Z M 98.386719 81.507812 C 97.15625 81.164062 96.144531 80.886719 95.109375 80.59375 C 95.90625 78.339844 96.636719 76.257812 97.371094 74.179688 C 97.519531 74.1875 97.664062 74.191406 97.8125 74.199219 C 97.996094 76.558594 98.183594 78.917969 98.386719 81.507812 Z M 183.558594 82.34375 C 187.464844 84.285156 187.464844 84.285156 186.023438 87.121094 C 184.761719 86.597656 183.484375 86.074219 182 85.460938 C 182.5 84.460938 183.019531 83.425781 183.558594 82.34375 Z M 132.707031 81.4375 C 132.261719 76.300781 132.261719 76.300781 135.09375 75.480469 C 135.328125 77.4375 135.554688 79.339844 135.804688 81.4375 C 134.628906 81.4375 133.71875 81.4375 132.707031 81.4375 Z M 27.734375 144.761719 C 28.011719 144.421875 28.285156 144.085938 28.5625 143.746094 C 31.582031 140 31.582031 140 36.53125 142.179688 C 33.496094 143.242188 30.742188 144.207031 27.984375 145.171875 C 27.902344 145.035156 27.820312 144.898438 27.734375 144.761719 Z M 182.210938 92.78125 C 180.648438 96.410156 180.527344 96.445312 176.558594 94.597656 C 177.613281 90.929688 177.613281 90.929688 182.210938 92.78125 Z M 187.644531 88.359375 C 188.070312 87.273438 188.417969 86.394531 188.851562 85.292969 C 190.433594 85.925781 191.929688 86.523438 193.6875 87.222656 C 192.835938 88.386719 192.117188 89.371094 191.269531 90.53125 C 190.09375 89.828125 188.960938 89.148438 187.644531 88.359375 Z M 136.625 74.671875 C 137.550781 74.316406 138.367188 74 139.484375 73.566406 C 139.484375 76.007812 139.589844 78.171875 139.410156 80.3125 C 139.367188 80.820312 138.378906 81.246094 137.488281 81.996094 C 137.15625 79.160156 136.902344 77.015625 136.625 74.671875 Z M 25.832031 144.785156 C 25.082031 142.363281 24.464844 140.378906 23.703125 137.9375 C 25.871094 138.65625 27.640625 139.246094 29.71875 139.9375 C 28.433594 141.542969 27.265625 143 25.832031 144.785156 Z M 146.507812 197.796875 C 146.074219 198.105469 145.628906 198.703125 145.214844 198.679688 C 141.195312 198.453125 137.183594 198.140625 133.171875 197.789062 C 132.800781 197.757812 132.464844 197.308594 132.113281 197.054688 C 132.613281 196.839844 133.125 196.414062 133.605469 196.445312 C 137.234375 196.675781 140.851562 197.003906 144.476562 197.285156 C 145.039062 197.328125 145.605469 197.292969 146.171875 197.292969 C 146.285156 197.460938 146.394531 197.628906 146.507812 197.796875 Z M 165.308594 124.015625 C 163.972656 123.304688 162.875 122.722656 161.796875 122.152344 C 163.375 117.402344 163.652344 118.023438 167.234375 119.402344 C 166.617188 120.878906 166.003906 122.351562 165.308594 124.015625 Z M 187.128906 98.820312 C 185.5 98.058594 184.128906 97.417969 182.496094 96.652344 C 183.03125 95.53125 183.523438 94.5 184.039062 93.429688 C 185.753906 94.03125 187.242188 94.554688 188.976562 95.164062 C 188.363281 96.371094 187.785156 97.519531 187.128906 98.820312 Z M 184.558594 116.59375 C 183.59375 115.84375 182.8125 115.238281 181.839844 114.480469 C 183.011719 112.949219 183.980469 111.386719 185.273438 110.167969 C 185.667969 109.796875 186.957031 110.378906 188.152344 110.574219 C 186.792969 112.851562 185.730469 114.632812 184.558594 116.59375 Z M 65.003906 193.449219 C 68.058594 193.984375 71.113281 194.515625 74.375 195.082031 C 74.226562 196.265625 74.078125 197.496094 73.878906 199.101562 C 70.664062 197.269531 67.714844 195.585938 64.761719 193.898438 C 64.839844 193.75 64.921875 193.601562 65.003906 193.449219 Z M 187.136719 53.472656 C 183.457031 51.855469 183.457031 51.855469 184.714844 48.410156 C 185.042969 47.523438 185.351562 46.632812 185.679688 45.722656 C 188.707031 47.691406 188.851562 48.476562 187.136719 53.472656 Z M 131.738281 204.34375 C 136.023438 204.34375 140.328125 204.34375 144.636719 204.34375 C 144.667969 204.550781 144.703125 204.761719 144.734375 204.96875 C 141.941406 205.671875 139.144531 206.371094 136.347656 207.070312 C 136.226562 207.101562 136.097656 207.101562 135.972656 207.125 C 132.59375 207.761719 132.59375 207.761719 131.738281 204.34375 Z M 186.871094 55.453125 C 186.148438 57.5625 185.46875 59.53125 184.835938 61.378906 C 184.558594 61.453125 184.484375 61.5 184.433594 61.480469 C 180.652344 60.210938 180.65625 60.210938 181.945312 56.449219 C 182.257812 55.546875 182.558594 54.636719 182.933594 53.515625 C 184.214844 54.144531 185.394531 54.726562 186.871094 55.453125 Z M 189.855469 111.792969 C 191.113281 112.710938 192.171875 113.488281 193.289062 114.304688 C 193.085938 114.710938 192.96875 115.082031 192.742188 115.367188 C 191.492188 116.953125 190.210938 118.523438 188.8125 120.253906 C 187.875 119.386719 187.015625 118.589844 186.113281 117.757812 C 187.40625 115.699219 188.605469 113.785156 189.855469 111.792969 Z M 146.375 191.691406 C 142.371094 191.410156 138.488281 191.171875 134.613281 190.839844 C 133.660156 190.761719 132.203125 190.984375 132.699219 189.019531 C 136.957031 189.019531 141.226562 188.972656 145.496094 189.050781 C 146.613281 189.074219 146.667969 189.4375 146.375 191.691406 Z M 165.183594 135.972656 C 162.105469 134.03125 162.003906 133.855469 163.5 131.019531 C 164.179688 129.734375 165.167969 128.613281 166.128906 127.257812 C 167.304688 127.707031 168.40625 128.132812 169.757812 128.648438 C 168.195312 131.148438 166.71875 133.511719 165.183594 135.972656 Z M 32.023438 121.503906 C 31.671875 122.496094 31.417969 123.214844 31.054688 124.234375 C 28.035156 123.175781 25.011719 122.332031 22.226562 120.988281 C 21.472656 120.628906 21.457031 118.742188 20.972656 117.117188 C 24.949219 118.695312 28.40625 120.066406 32.023438 121.503906 Z M 209.210938 122.796875 C 212.351562 124.234375 212.59375 124.695312 211.964844 127.71875 C 211.230469 131.273438 210.519531 134.832031 209.796875 138.390625 C 209.601562 138.371094 209.40625 138.351562 209.210938 138.328125 C 209.210938 133.195312 209.210938 128.066406 209.210938 122.796875 Z M 87.535156 78.953125 C 86.535156 78.90625 85.582031 78.863281 84.296875 78.804688 C 84.558594 75.648438 84.8125 72.566406 85.085938 69.28125 C 86.613281 69.703125 87.929688 70.066406 89.269531 70.441406 C 88.6875 73.289062 88.132812 76.019531 87.535156 78.953125 Z M 60.554688 98.082031 C 56.773438 95.988281 52.953125 93.867188 49.03125 91.691406 C 49.390625 90.957031 49.628906 90.460938 49.84375 90.019531 C 53.386719 91.390625 56.855469 92.632812 60.242188 94.070312 C 62.496094 95.023438 62.527344 95.84375 60.554688 98.082031 Z M 96.25 71.859375 C 95.425781 74.269531 94.644531 76.425781 93.957031 78.609375 C 93.339844 80.550781 92.007812 79.882812 90.699219 79.679688 C 89.164062 79.4375 89.523438 78.472656 89.730469 77.535156 C 90.132812 75.734375 90.566406 73.9375 90.960938 72.132812 C 91.183594 71.097656 91.757812 70.789062 92.761719 71.054688 C 93.867188 71.351562 94.988281 71.574219 96.25 71.859375 Z M 147.246094 80.609375 C 146.257812 74.566406 147.597656 73.222656 153.839844 73.816406 C 153.714844 75.5625 153.625 77.316406 153.425781 79.058594 C 153.390625 79.367188 152.929688 79.824219 152.609375 79.878906 C 150.863281 80.175781 149.101562 80.367188 147.246094 80.609375 Z M 201.636719 95.160156 C 200.636719 94.6875 199.855469 94.316406 199.320312 94.0625 C 201.867188 89.042969 204.335938 84.179688 206.929688 79.070312 C 207.992188 80.980469 208.46875 82.472656 207.339844 84.394531 C 205.332031 87.808594 203.613281 91.394531 201.636719 95.160156 Z M 198 92.65625 C 196.550781 91.808594 195.785156 91.164062 196.75 89.519531 C 199.472656 84.886719 201.996094 80.136719 204.601562 75.4375 C 204.753906 75.164062 204.929688 74.90625 205.132812 74.582031 C 206.195312 75.828125 206.015625 76.925781 205.339844 78.25 C 203.277344 82.300781 201.371094 86.429688 199.367188 90.511719 C 199.007812 91.246094 198.484375 91.902344 198 92.65625 Z M 21.289062 122.34375 C 24.617188 123.519531 27.558594 124.558594 30.765625 125.691406 C 30.074219 127.023438 29.503906 128.296875 28.753906 129.457031 C 28.546875 129.773438 27.746094 129.976562 27.339844 129.847656 C 25.628906 129.3125 23.953125 128.664062 22.296875 127.972656 C 21.964844 127.832031 21.609375 127.347656 21.570312 126.988281 C 21.414062 125.539062 21.382812 124.078125 21.289062 122.34375 Z M 188.6875 63.710938 C 187.644531 63.160156 186.929688 62.78125 186.328125 62.464844 C 187.574219 58.363281 188.769531 54.410156 190.082031 50.085938 C 191.253906 51.554688 192.335938 52.839844 193.316406 54.203125 C 193.503906 54.464844 193.414062 55.085938 193.230469 55.425781 C 191.769531 58.164062 190.253906 60.871094 188.6875 63.710938 Z M 194.285156 170.113281 C 191.730469 173.164062 189.414062 175.929688 187.097656 178.691406 C 186.902344 178.628906 186.703125 178.570312 186.507812 178.507812 C 186.707031 174.429688 186.90625 170.351562 187.105469 166.273438 C 187.320312 166.152344 187.535156 166.03125 187.75 165.90625 C 189.847656 167.257812 191.945312 168.605469 194.285156 170.113281 Z M 160.160156 123.925781 C 161.738281 124.859375 163.160156 125.695312 164.535156 126.507812 C 162.503906 129.902344 160.558594 133.160156 158.59375 136.449219 C 158.003906 136.039062 157.660156 135.796875 157.3125 135.554688 C 154.410156 133.546875 154.394531 133.230469 156.3125 130.308594 C 157.632812 128.300781 158.800781 126.191406 160.160156 123.925781 Z M 190.335938 163.652344 C 192.726562 160.164062 194.992188 156.855469 197.394531 153.347656 C 198.519531 155.242188 199.5 156.871094 200.449219 158.515625 C 200.632812 158.835938 200.90625 159.34375 200.78125 159.570312 C 199.636719 161.640625 198.425781 163.675781 197.1875 165.6875 C 197.085938 165.847656 196.570312 165.878906 196.308594 165.792969 C 194.445312 165.152344 192.597656 164.46875 190.335938 163.652344 Z M 149.425781 34.847656 C 148.824219 30.296875 148.253906 26.003906 147.632812 21.328125 C 149.695312 22.117188 151.589844 22.765625 153.398438 23.59375 C 153.816406 23.785156 154.105469 24.582031 154.179688 25.136719 C 154.453125 27.167969 154.539062 29.222656 154.835938 31.246094 C 155.023438 32.496094 154.523438 33.226562 153.464844 33.613281 C 152.21875 34.0625 150.925781 34.394531 149.425781 34.847656 Z M 133.847656 102.683594 C 134 102.566406 134.046875 102.5 134.097656 102.488281 C 138.480469 101.785156 138.648438 101.949219 138.707031 106.316406 C 138.742188 108.875 138.792969 111.4375 138.996094 113.988281 C 139.105469 115.355469 138.847656 116.179688 137.359375 116.414062 C 136.242188 116.589844 135.148438 116.933594 133.847656 117.257812 C 133.847656 112.207031 133.847656 107.40625 133.847656 102.683594 Z M 156.628906 41.929688 C 156.429688 40.050781 156.417969 38.625 156.101562 37.273438 C 155.722656 35.625 156.460938 34.933594 157.871094 34.519531 C 160.628906 33.710938 163.367188 32.832031 166.140625 32.070312 C 166.589844 31.949219 167.269531 32.15625 167.664062 32.449219 C 168.683594 33.195312 169.601562 34.078125 170.972656 35.261719 C 165.867188 37.636719 161.378906 39.71875 156.628906 41.929688 Z M 86.71875 167.367188 C 87.265625 164.90625 87.765625 162.667969 88.28125 160.347656 C 91.429688 160.855469 94.390625 161.296875 97.332031 161.851562 C 97.734375 161.925781 98.328125 162.570312 98.320312 162.941406 C 98.285156 164.347656 98.101562 165.757812 97.824219 167.136719 C 97.761719 167.453125 97.128906 167.757812 96.703125 167.886719 C 93.382812 168.898438 90.140625 168.34375 86.71875 167.367188 Z M 97.234375 183.785156 C 97.085938 186.757812 96.953125 189.425781 96.8125 192.195312 C 93.828125 192.601562 91.007812 192.984375 88.101562 193.378906 C 88.101562 190.808594 88.058594 188.449219 88.140625 186.09375 C 88.15625 185.671875 88.648438 184.960938 89.003906 184.902344 C 91.644531 184.46875 94.304688 184.167969 97.234375 183.785156 Z M 20.882812 107.988281 C 20.496094 102.414062 22.1875 91.742188 24.828125 85.257812 C 25.234375 92.660156 25.648438 100.058594 26.066406 107.640625 C 24.042969 107.777344 22.519531 107.878906 20.882812 107.988281 Z M 55.695312 104.140625 C 54.109375 104.140625 52.777344 104.035156 51.464844 104.164062 C 49.699219 104.339844 48.898438 103.679688 48.398438 101.929688 C 47.3125 98.132812 45.9375 94.421875 44.644531 90.574219 C 47.746094 92.425781 50.859375 94.261719 53.933594 96.160156 C 54.300781 96.390625 54.578125 96.964844 54.660156 97.417969 C 55.042969 99.621094 55.347656 101.835938 55.695312 104.140625 Z M 96.664062 194.058594 C 96.1875 198.359375 95.734375 202.390625 95.253906 206.691406 C 92.914062 206.039062 90.757812 205.480469 88.636719 204.8125 C 88.285156 204.699219 87.859375 204.113281 87.84375 203.734375 C 87.753906 201.234375 87.726562 198.726562 87.78125 196.226562 C 87.785156 195.886719 88.296875 195.316406 88.648438 195.257812 C 91.222656 194.8125 93.816406 194.46875 96.664062 194.058594 Z M 135.425781 140.058594 C 134.765625 132.964844 134.117188 126.007812 133.464844 119.011719 C 135.519531 118.554688 137.113281 118.199219 138.84375 117.816406 C 138.878906 118.472656 138.925781 118.96875 138.925781 119.464844 C 138.902344 124.902344 138.914062 130.347656 138.824219 135.785156 C 138.773438 138.871094 138.703125 138.871094 135.425781 140.058594 Z M 188.589844 163.097656 C 187.460938 162.40625 186.226562 161.652344 184.835938 160.800781 C 188.953125 153.988281 192.257812 147.023438 193.878906 139.34375 C 194.066406 139.359375 194.257812 139.378906 194.445312 139.398438 C 194.527344 139.964844 194.578125 140.539062 194.6875 141.097656 C 195.316406 144.296875 196.015625 147.484375 196.550781 150.699219 C 196.667969 151.398438 196.398438 152.328125 195.984375 152.921875 C 193.636719 156.269531 191.1875 159.546875 188.589844 163.097656 Z M 202.296875 157.5 C 198.019531 151.769531 197.015625 145.539062 196.300781 138.898438 C 198.636719 138.46875 200.929688 138.042969 203.335938 137.597656 C 204.007812 141.957031 205.089844 146.121094 205.121094 150.292969 C 205.140625 152.578125 203.390625 154.878906 202.296875 157.5 Z M 150.039062 179.242188 C 151.785156 180.820312 153.574219 182.359375 155.246094 184.011719 C 155.605469 184.371094 155.679688 185.167969 155.648438 185.75 C 155.375 190.601562 155.070312 195.449219 154.707031 200.292969 C 154.675781 200.75 154.3125 201.398438 153.925781 201.578125 C 152.492188 202.25 150.992188 202.765625 149.46875 203.355469 C 149.46875 195.265625 149.46875 187.371094 149.46875 179.476562 C 149.65625 179.398438 149.847656 179.320312 150.039062 179.242188 Z M 142.199219 161 C 140.945312 160.484375 139.835938 160.027344 138.425781 159.445312 C 139.628906 157.515625 140.714844 155.6875 141.894531 153.917969 C 143.570312 151.40625 145.328125 148.949219 147.03125 146.453125 C 148.375 144.488281 149.722656 142.519531 150.988281 140.503906 C 151.378906 139.882812 151.390625 139.019531 151.789062 138.40625 C 152.222656 137.730469 153.132812 136.621094 153.433594 136.738281 C 154.242188 137.050781 155.199219 137.804688 155.4375 138.585938 C 156.3125 141.441406 155.753906 143.894531 153.652344 146.339844 C 149.660156 150.988281 146.074219 155.988281 142.199219 161 Z M 21.847656 129.542969 C 30.527344 132.347656 39.015625 135.089844 48.019531 138 C 44.050781 139.386719 40.867188 141.789062 36.714844 140.4375 C 32.578125 139.089844 28.390625 137.914062 24.238281 136.617188 C 23.824219 136.484375 23.292969 136.0625 23.195312 135.679688 C 22.679688 133.652344 22.285156 131.597656 21.847656 129.542969 Z M 164.539062 61.898438 C 162.84375 67.800781 161.203125 73.503906 159.539062 79.289062 C 158.074219 79.289062 156.679688 79.289062 154.894531 79.289062 C 155.0625 77.636719 155.144531 75.945312 155.433594 74.292969 C 155.71875 72.65625 155.167969 72.035156 153.527344 72.097656 C 151.558594 72.171875 149.585938 72.117188 147.550781 72.117188 C 147.09375 69.84375 147.355469 69.429688 149.59375 68.464844 C 154.464844 66.363281 159.308594 64.203125 164.539062 61.898438 Z M 64.746094 91.613281 C 64.238281 92.496094 63.832031 93.203125 63.386719 93.976562 C 59.191406 92.085938 55.054688 90.292969 50.988281 88.351562 C 49.847656 87.808594 49.191406 88.007812 48.578125 88.957031 C 48.238281 89.488281 47.910156 90.03125 47.589844 90.542969 C 44.429688 89.433594 42.3125 87.550781 41.703125 84.132812 C 41.289062 81.828125 40.523438 79.585938 39.914062 77.3125 C 40.082031 77.144531 40.246094 76.96875 40.414062 76.800781 C 48.492188 81.714844 56.570312 86.632812 64.746094 91.613281 Z M 95.820312 148.792969 C 95.042969 152.53125 94.367188 155.773438 93.660156 159.171875 C 92.089844 158.863281 90.574219 158.65625 89.105469 158.253906 C 87.652344 157.855469 86.839844 157.996094 86.570312 159.746094 C 86.195312 162.207031 85.546875 164.625 84.96875 167.273438 C 83.828125 167.191406 82.65625 167.109375 81.371094 167.015625 C 81.371094 166.277344 81.261719 165.6875 81.390625 165.160156 C 82.683594 159.808594 84.019531 154.46875 85.328125 149.125 C 85.632812 147.875 86.332031 147.589844 87.582031 147.789062 C 90.210938 148.207031 92.871094 148.445312 95.820312 148.792969 Z M 146.007812 137.480469 C 146.410156 136.753906 146.464844 135.765625 146.457031 134.898438 C 146.40625 129.121094 146.074219 123.339844 146.261719 117.574219 C 146.441406 112.007812 146.867188 106.417969 147.710938 100.914062 C 148.15625 98.015625 147.246094 96.542969 144.921875 95.3125 C 143.445312 94.53125 142.097656 93.511719 140.171875 92.261719 C 140.503906 111.273438 141.351562 129.667969 139.917969 148.039062 C 141.960938 144.527344 144.046875 141.039062 146.007812 137.480469 Z M 207.515625 89.832031 C 208.566406 90.332031 209.445312 90.757812 210.761719 91.386719 C 210.292969 89.503906 209.941406 88.070312 209.457031 86.132812 C 208.691406 87.59375 208.148438 88.625 207.515625 89.832031 Z M 153.25 177.5625 C 154.636719 175.613281 154.539062 175.328125 151.679688 173.242188 C 150.175781 175.761719 150.421875 176.40625 153.25 177.5625 Z M 138.636719 165.570312 C 139.378906 164.648438 140.148438 163.703125 141.042969 162.589844 C 139.753906 161.996094 138.792969 161.550781 137.863281 161.125 C 135.84375 163.859375 135.894531 164.160156 138.636719 165.570312 Z M 151.820312 122.003906 C 153.832031 122.929688 153.832031 122.929688 156.285156 118.976562 C 155.164062 118.730469 154.050781 118.492188 152.726562 118.203125 C 152.386719 119.632812 152.097656 120.839844 151.820312 122.003906 Z M 148.246094 116.765625 C 147.222656 120.320312 147.578125 121.085938 150.53125 121.480469 C 151.933594 117.585938 151.726562 117.167969 148.246094 116.765625 Z M 173.332031 110.601562 C 175.152344 111.300781 176.972656 112.003906 178.90625 112.746094 C 179.25 112.121094 179.550781 111.578125 179.882812 110.96875 C 176.808594 108.6875 174.128906 108.507812 173.332031 110.601562 Z M 93.914062 104.5 C 93.914062 105.628906 93.914062 106.199219 93.914062 106.769531 C 93.914062 107.378906 93.914062 107.984375 93.914062 108.558594 C 97.992188 109.308594 98.078125 109.269531 98.410156 106.429688 C 96.9375 105.796875 95.558594 105.207031 93.914062 104.5 Z M 194.75 84.992188 C 195.203125 84.121094 195.601562 83.351562 196.011719 82.558594 C 194.203125 81.875 192.566406 81.257812 190.875 80.621094 C 190.527344 81.457031 190.257812 82.097656 189.882812 82.988281 C 191.484375 83.648438 193.046875 84.289062 194.75 84.992188 Z M 137.820312 141.074219 C 137.089844 141.769531 136.082031 142.339844 135.707031 143.191406 C 135.359375 143.976562 135.550781 145.09375 135.753906 146.011719 C 136.027344 147.257812 136.257812 148.695312 138.210938 148.726562 C 138.210938 146.316406 138.210938 143.96875 138.210938 141.625 C 138.078125 141.441406 137.949219 141.257812 137.820312 141.074219 Z M 71.777344 180.710938 C 73.09375 180.710938 74.207031 180.710938 75.410156 180.710938 C 75.621094 179.054688 75.828125 177.433594 76.054688 175.644531 C 75 175.644531 74.132812 175.644531 73.113281 175.644531 C 72.660156 177.359375 72.242188 178.949219 71.777344 180.710938 Z M 67.875 175.164062 C 67.96875 176.570312 67.886719 178.027344 68.238281 179.367188 C 68.386719 179.9375 69.441406 180.269531 70.277344 180.847656 C 70.847656 178.761719 71.292969 177.136719 71.835938 175.164062 C 70.449219 175.164062 69.160156 175.164062 67.875 175.164062 Z M 50.296875 70.085938 C 52.113281 71.152344 53.621094 72.035156 55.375 73.0625 C 56.226562 71.007812 56.964844 69.226562 57.886719 67.003906 C 55.15625 68.113281 52.863281 69.042969 50.296875 70.085938 Z M 133.265625 67.761719 C 134.671875 66.859375 135.933594 65.871094 137.34375 65.195312 C 139.316406 64.253906 139.773438 62.792969 139.308594 60.703125 C 134.179688 63.164062 132.699219 64.839844 133.265625 67.761719 Z M 144.890625 80.761719 C 144.890625 78.984375 144.890625 77.359375 144.890625 75.621094 C 143.613281 75.621094 142.398438 75.621094 141.175781 75.621094 C 141.175781 77.484375 141.175781 79.179688 141.175781 81.105469 C 142.457031 80.984375 143.625 80.878906 144.890625 80.761719 Z M 176.328125 84.515625 C 177.234375 82.765625 178.132812 81.035156 179.097656 79.175781 C 177.953125 78.578125 177.011719 78.089844 176.109375 77.621094 C 173.03125 80.945312 173.066406 81.925781 176.328125 84.515625 Z M 154.28125 158.679688 C 155.847656 157.382812 157.476562 156.03125 158.558594 154.355469 C 159.007812 153.65625 158.15625 152.113281 157.886719 150.953125 C 157.863281 150.855469 157.777344 150.773438 157.765625 150.75 C 155.976562 153.027344 154.179688 155.320312 152.023438 158.070312 C 152.972656 158.347656 153.976562 158.933594 154.28125 158.679688 Z M 38.1875 110.464844 C 36.828125 109.9375 36.332031 110.398438 36.113281 111.523438 C 35.644531 113.914062 35.207031 116.320312 34.542969 118.660156 C 34.0625 120.347656 34.722656 120.894531 36.40625 121.054688 C 37.011719 117.433594 37.605469 113.933594 38.1875 110.464844 Z M 201.066406 70.441406 C 201.417969 70.59375 202.070312 70.667969 202.246094 70.472656 C 202.542969 70.144531 202.824219 69.445312 202.667969 69.121094 C 201.6875 67.109375 200.582031 65.15625 199.242188 62.675781 C 198.472656 65.003906 197.917969 66.6875 197.273438 68.636719 C 198.65625 69.304688 199.839844 69.917969 201.066406 70.441406 Z M 81.964844 42.785156 C 83.882812 41.8125 85.8125 40.863281 87.699219 39.835938 C 87.996094 39.671875 88.269531 39.125 88.246094 38.777344 C 88.121094 37.117188 87.890625 35.464844 87.640625 33.320312 C 85.453125 36.679688 83.558594 39.589844 81.664062 42.5 C 81.761719 42.59375 81.863281 42.691406 81.964844 42.785156 Z M 79.65625 106.847656 C 80.882812 107.046875 81.914062 107.210938 82.921875 107.371094 C 84.867188 100.515625 85.199219 102.175781 80.648438 100.421875 C 80.597656 100.402344 80.523438 100.449219 80.277344 100.519531 C 80.070312 102.625 79.867188 104.695312 79.65625 106.847656 Z M 87.703125 144.777344 C 85.609375 142.921875 83.539062 141.046875 81.398438 139.246094 C 81.125 139.015625 80.425781 139.019531 80.066406 139.203125 C 79.191406 139.648438 78.398438 140.261719 77.574219 140.808594 C 77.5625 141.03125 77.554688 141.253906 77.542969 141.476562 C 80.8125 142.789062 84.078125 144.097656 87.347656 145.410156 C 87.464844 145.199219 87.585938 144.988281 87.703125 144.777344 Z M 189.804688 78.261719 C 191 75.90625 190.613281 75.042969 187.753906 74.214844 C 186.855469 76.328125 185.949219 78.453125 184.972656 80.746094 C 185.972656 81.203125 186.929688 81.640625 188.097656 82.175781 C 188.738281 80.6875 189.203125 79.441406 189.804688 78.261719 Z M 189.09375 93.207031 C 189.453125 93.335938 190.042969 92.828125 190.929688 92.4375 C 187.773438 90.695312 185.230469 89.195312 182.597656 87.882812 C 181.171875 87.171875 180.039062 87.65625 179.5625 89.558594 C 182.765625 90.804688 185.910156 92.0625 189.09375 93.207031 Z M 57.609375 46.625 C 57.964844 48.542969 58.28125 50.269531 58.605469 52.023438 C 59.945312 51.628906 61.179688 51.332031 62.351562 50.878906 C 62.695312 50.746094 63.101562 50.144531 63.070312 49.792969 C 62.960938 48.550781 62.675781 47.320312 62.4375 45.960938 C 60.800781 46.183594 59.328125 46.386719 57.609375 46.625 Z M 195.734375 99.445312 C 194.5 100.757812 193.460938 102.425781 192.949219 104.136719 C 192.78125 104.703125 194.453125 105.820312 195.507812 106.921875 C 196.796875 104.445312 197.828125 102.46875 199.15625 99.921875 C 197.761719 99.695312 196.148438 99.003906 195.734375 99.445312 Z M 167.023438 124.882812 C 168.464844 125.464844 169.800781 126.007812 171.171875 126.566406 C 172.304688 124.804688 173.382812 123.121094 174.53125 121.339844 C 172.636719 120.789062 170.945312 120.296875 169.140625 119.773438 C 168.429688 121.492188 167.753906 123.117188 167.023438 124.882812 Z M 98.285156 103.542969 C 98.285156 101.242188 98.328125 99.179688 98.246094 97.117188 C 98.234375 96.738281 97.777344 96.199219 97.402344 96.050781 C 96.472656 95.683594 95.472656 95.503906 94.347656 95.207031 C 93.457031 103.117188 93.097656 101.316406 98.285156 103.542969 Z M 160.191406 166.785156 C 160.371094 166.664062 160.554688 166.539062 160.738281 166.414062 C 160.371094 163.089844 160.003906 159.761719 159.613281 156.210938 C 157.929688 157.707031 156.464844 159.007812 154.78125 160.503906 C 156.574219 162.582031 158.382812 164.683594 160.191406 166.785156 Z M 153.371094 124.410156 C 151.425781 123.707031 149.730469 123.097656 147.976562 122.46875 C 147.976562 126.144531 147.976562 129.539062 147.976562 133.484375 C 149.953125 130.160156 151.632812 127.332031 153.371094 124.410156 Z M 28.496094 76.101562 C 26.359375 77.230469 25.644531 82.515625 27.078125 86.34375 C 28.375 85.871094 29.671875 85.394531 31.023438 84.902344 C 30.140625 81.824219 29.320312 78.972656 28.496094 76.101562 Z M 27.621094 100.59375 C 27.929688 102.421875 28.050781 104.277344 28.261719 106.117188 C 28.398438 107.3125 29.007812 107.800781 30.226562 107.445312 C 30.808594 107.273438 31.421875 107.195312 32.253906 107.03125 C 31.519531 103.886719 30.820312 100.882812 30.101562 97.789062 C 27.96875 97.558594 27.273438 98.542969 27.621094 100.59375 Z M 149.125 106.226562 C 150.589844 106.75 151.820312 107.183594 153.058594 107.625 C 154.636719 102 154.085938 100.578125 149.582031 98.835938 C 149.425781 101.363281 149.273438 103.8125 149.125 106.226562 Z M 73.589844 140.75 C 70.351562 138.074219 67.113281 135.402344 63.875 132.730469 C 63.710938 132.792969 63.542969 132.859375 63.375 132.921875 C 63.558594 134.195312 63.597656 135.511719 63.96875 136.730469 C 64.210938 137.53125 64.761719 138.53125 65.445312 138.851562 C 67.261719 139.691406 69.214844 140.242188 71.136719 140.832031 C 71.855469 141.054688 72.640625 141.066406 73.398438 141.171875 C 73.460938 141.03125 73.523438 140.890625 73.589844 140.75 Z M 190.796875 99.925781 C 190.246094 100.875 190.269531 101.71875 191.476562 102.214844 C 192.539062 100.722656 193.277344 98.734375 194.675781 97.988281 C 196.027344 97.269531 198.0625 97.832031 199.796875 97.832031 C 199.839844 98.023438 199.882812 98.210938 199.925781 98.398438 C 200.214844 97.8125 200.503906 97.226562 200.679688 96.867188 C 198.699219 95.488281 196.898438 94.234375 194.945312 92.871094 C 193.503906 95.3125 192.132812 97.609375 190.796875 99.925781 Z M 60.4375 120.601562 C 61.238281 124.109375 60.714844 128.082031 64.550781 129.949219 C 65.675781 128.992188 66.746094 128.082031 68.121094 126.914062 C 65.4375 124.710938 62.9375 122.65625 60.4375 120.601562 Z M 138.9375 66.035156 C 136.625 68.46875 131.566406 68.71875 132.941406 74.257812 C 134.910156 73.457031 136.902344 72.683594 138.851562 71.816406 C 139.148438 71.683594 139.414062 71.140625 139.429688 70.777344 C 139.496094 69.265625 139.457031 67.75 139.457031 66.238281 C 139.285156 66.171875 139.109375 66.101562 138.9375 66.035156 Z M 197.320312 64.035156 C 198.703125 61.53125 197.714844 59.734375 195.878906 57.90625 C 194.492188 60.585938 193.15625 63.171875 191.742188 65.90625 C 193.273438 66.644531 194.582031 67.277344 196.042969 67.984375 C 196.492188 66.550781 196.691406 65.175781 197.320312 64.035156 Z M 100.070312 150.734375 C 100.09375 150.320312 99.296875 149.65625 98.761719 149.492188 C 98.433594 149.394531 97.636719 149.933594 97.476562 150.351562 C 97.046875 151.476562 96.824219 152.6875 96.558594 153.871094 C 96.15625 155.640625 95.789062 157.417969 95.398438 159.238281 C 96.753906 159.5 97.753906 159.699219 99.207031 159.984375 C 99.535156 156.742188 99.890625 153.746094 100.070312 150.734375 Z M 162.824219 85.039062 C 164.371094 81.707031 165.699219 78.324219 166.992188 74.925781 C 167.996094 72.304688 167.976562 72.296875 164.914062 70.941406 C 164.082031 75.730469 161.253906 80.015625 162.824219 85.039062 Z M 80.628906 56.226562 C 77.679688 51.984375 76.964844 51.769531 71.734375 53.589844 C 71.734375 55.042969 71.734375 56.554688 71.734375 58.207031 C 74.710938 57.546875 77.652344 56.890625 80.628906 56.226562 Z M 41.078125 105.023438 C 40.859375 103.902344 40.761719 102.738281 40.390625 101.667969 C 38.6875 96.738281 36.925781 91.828125 35.117188 86.9375 C 34.953125 86.488281 34.328125 86.207031 33.921875 85.847656 C 33.835938 86.34375 33.558594 86.902344 33.695312 87.328125 C 35.53125 93.058594 37.40625 98.773438 39.351562 104.46875 C 39.496094 104.902344 40.230469 105.136719 40.691406 105.464844 C 40.820312 105.316406 40.949219 105.167969 41.078125 105.023438 Z M 145.878906 22.074219 C 145.632812 20.65625 144.890625 20.1875 143.378906 20.28125 C 144.132812 24.910156 144.960938 29.371094 145.550781 33.867188 C 145.804688 35.8125 146.542969 35.941406 148.230469 34.957031 C 147.433594 30.632812 146.613281 26.359375 145.878906 22.074219 Z M 147.621094 163.539062 C 151.589844 165.066406 155.367188 166.519531 159.480469 168.101562 C 156.621094 164.925781 154.023438 162.039062 151.261719 158.96875 C 149.921875 160.652344 148.832031 162.019531 147.621094 163.539062 Z M 59.953125 59.441406 C 60.125 60.027344 61.296875 60.917969 61.421875 60.828125 C 62.472656 60.09375 64.6875 60.773438 64.597656 58.769531 C 64.503906 56.695312 63.9375 54.640625 63.53125 52.324219 C 61.835938 52.90625 60.417969 53.390625 58.808594 53.9375 C 59.1875 55.847656 59.441406 57.679688 59.953125 59.441406 Z M 82.140625 152.675781 C 82.800781 150.78125 83.378906 149.128906 83.953125 147.488281 C 81.820312 146.792969 79.855469 146.152344 77.628906 145.421875 C 77.210938 147.316406 76.816406 149.089844 76.347656 151.195312 C 78.339844 151.707031 80.246094 152.191406 82.140625 152.675781 Z M 92.664062 94.578125 C 91.085938 94.019531 89.625 93.503906 88.15625 92.980469 C 85.699219 100.894531 85.398438 99.25 91.671875 101.066406 C 91.726562 101.082031 91.796875 101.046875 92.078125 101 C 92.273438 98.835938 92.464844 96.757812 92.664062 94.578125 Z M 92.078125 108.65625 C 92.160156 107.304688 92.308594 106.351562 92.230469 105.417969 C 92.1875 104.871094 91.894531 104.015625 91.507812 103.882812 C 89.675781 103.242188 87.773438 102.804688 85.808594 102.273438 C 85.28125 104.183594 84.824219 105.8125 84.273438 107.792969 C 86.992188 108.09375 89.457031 108.367188 92.078125 108.65625 Z M 155.5 102.285156 C 155.1875 104.074219 154.863281 105.5 154.730469 106.941406 C 154.695312 107.332031 155.144531 107.996094 155.527344 108.15625 C 157.601562 109.015625 159.722656 109.753906 161.855469 110.546875 C 162.433594 109.429688 162.839844 108.648438 163.414062 107.542969 C 160.71875 105.753906 158.191406 104.074219 155.5 102.285156 Z M 32.316406 99.347656 C 32.871094 101.746094 33.585938 104.105469 34.226562 106.457031 C 35.589844 106.179688 36.890625 105.914062 38.390625 105.605469 C 37.179688 102.222656 36.027344 98.992188 34.855469 95.714844 C 32.53125 96.222656 31.898438 97.554688 32.316406 99.347656 Z M 170.316406 94.246094 C 171.425781 92.460938 172.324219 90.628906 173.574219 89.082031 C 175.824219 86.300781 175.5 86.683594 173.488281 83.785156 C 173.238281 83.421875 172.902344 83.121094 172.507812 82.683594 C 167.886719 89.539062 168.070312 88.707031 170.316406 94.246094 Z M 176.769531 161.832031 C 176.785156 161.492188 176.460938 160.964844 176.152344 160.808594 C 174.46875 159.960938 172.742188 159.203125 170.976562 158.390625 C 169.730469 165.09375 170.367188 166.105469 175.859375 166.472656 C 175.972656 166.480469 176.089844 166.386719 176.390625 166.261719 C 176.519531 164.847656 176.703125 163.34375 176.769531 161.832031 Z M 168.390625 94.089844 C 167.636719 91.933594 167.234375 89.640625 166.824219 87.382812 C 166.5 85.574219 166.398438 83.730469 166.195312 81.902344 C 165.523438 82.851562 165.25 83.84375 164.773438 84.730469 C 163.730469 86.679688 163.808594 88.546875 164.53125 90.617188 C 165.585938 93.628906 166.34375 96.738281 167.257812 99.90625 C 168.726562 98.164062 169.1875 96.359375 168.390625 94.089844 Z M 56.929688 41.957031 C 57.011719 42.195312 57.132812 42.449219 57.132812 42.691406 C 57.144531 44.632812 58.164062 45.078125 59.875 44.628906 C 60.539062 44.453125 61.238281 44.40625 62.230469 44.257812 C 61.527344 41.066406 60.859375 38.039062 60.179688 34.953125 C 55.699219 37.207031 55.464844 37.738281 56.929688 41.957031 Z M 131.5 202.578125 C 136.441406 202.578125 141.164062 202.578125 146.035156 202.578125 C 146.070312 202.046875 146.121094 201.25 146.171875 200.429688 C 141.441406 200.109375 136.925781 199.804688 132.191406 199.484375 C 131.988281 200.394531 131.800781 201.238281 131.5 202.578125 Z M 132.351562 192.167969 C 132.300781 193.070312 132.265625 193.808594 132.207031 194.875 C 136.984375 195.304688 141.640625 195.726562 146.378906 196.15625 C 146.378906 194.914062 146.378906 194.234375 146.378906 193.210938 C 141.691406 192.863281 137.082031 192.519531 132.351562 192.167969 Z M 69.773438 105.011719 C 65.492188 102.585938 61.21875 100.164062 56.9375 97.738281 C 56.789062 97.875 56.640625 98.011719 56.492188 98.152344 C 56.800781 100.144531 56.886719 102.226562 57.578125 104.078125 C 57.757812 104.558594 59.851562 104.289062 61.058594 104.417969 C 63.925781 104.726562 66.792969 105.070312 69.660156 105.398438 C 69.699219 105.269531 69.734375 105.140625 69.773438 105.011719 Z M 187.765625 151.574219 C 183.484375 152.824219 179.367188 154.023438 175.101562 155.265625 C 177.742188 156.65625 180.417969 158.066406 183.445312 159.65625 C 184.976562 156.796875 186.410156 154.109375 187.765625 151.574219 Z M 90.460938 112.570312 C 88.605469 112.351562 86.871094 112.144531 85.097656 111.9375 C 84.910156 114.667969 84.742188 117.1875 84.566406 119.710938 C 86.496094 120.054688 88.179688 120.355469 89.960938 120.667969 C 90.128906 117.921875 90.292969 115.28125 90.460938 112.570312 Z M 138.386719 88.878906 C 141.785156 91.046875 145.1875 93.214844 148.894531 95.582031 C 149.398438 93.160156 149.820312 91.132812 150.296875 88.851562 C 146.226562 87.964844 142.304688 88.695312 138.386719 88.878906 Z M 176.5625 97.179688 C 176.09375 97.117188 175.320312 97.4375 175.085938 97.824219 C 172.9375 101.378906 170.878906 104.984375 168.503906 109.070312 C 169.753906 109.070312 171.207031 109.464844 171.566406 109.007812 C 174.289062 105.539062 176.792969 101.902344 179.527344 98.09375 C 178.355469 97.710938 177.480469 97.296875 176.5625 97.179688 Z M 168.476562 86.085938 C 170.449219 82.941406 172.425781 79.796875 174.46875 76.546875 C 172.820312 75.449219 171.292969 74.433594 169.570312 73.285156 C 166.683594 77.523438 167.949219 81.8125 168.476562 86.085938 Z M 173.890625 61.582031 C 172.636719 64.714844 171.550781 67.839844 170.515625 70.980469 C 170.421875 71.265625 170.550781 71.832031 170.765625 71.96875 C 173.28125 73.582031 175.835938 75.132812 178.375 76.703125 C 176.4375 71.644531 174.042969 67.003906 173.890625 61.582031 Z M 80.613281 45.660156 C 84.304688 47.730469 87.546875 49.542969 91.132812 51.554688 C 90.257812 47.871094 89.511719 44.710938 88.707031 41.316406 C 86.082031 42.726562 83.585938 44.0625 80.613281 45.660156 Z M 87.851562 181.222656 C 87.855469 181.621094 88.316406 182.367188 88.554688 182.363281 C 90.84375 182.304688 93.128906 182.15625 95.40625 181.929688 C 95.707031 181.898438 96.109375 181.339844 96.195312 180.964844 C 96.511719 179.582031 96.714844 178.175781 96.980469 176.660156 C 93.847656 176.660156 91.125 176.660156 88.074219 176.660156 C 87.980469 178.3125 87.84375 179.769531 87.851562 181.222656 Z M 34.242188 94.070312 C 33.449219 91.566406 32.664062 89.109375 31.847656 86.539062 C 30.480469 87.039062 29.328125 87.425781 28.207031 87.882812 C 27.761719 88.066406 27.027344 88.414062 27.03125 88.675781 C 27.070312 91.308594 27.238281 93.941406 27.351562 96.285156 C 29.820312 95.492188 31.9375 94.8125 34.242188 94.070312 Z M 151.402344 83.519531 C 145.019531 84.144531 138.9375 84.738281 132.402344 85.378906 C 133.113281 85.988281 133.527344 86.605469 134.074219 86.757812 C 135.097656 87.039062 136.199219 87.15625 137.269531 87.164062 C 141.660156 87.207031 146.054688 87.183594 150.746094 87.183594 C 150.917969 86.21875 151.152344 84.90625 151.402344 83.519531 Z M 185.597656 100.875 C 184.398438 100.273438 183.355469 99.652344 182.238281 99.230469 C 181.839844 99.082031 181.023438 99.238281 180.800781 99.546875 C 179.042969 101.953125 177.382812 104.429688 175.691406 106.890625 C 177.613281 107.582031 179.382812 108.222656 181.402344 108.949219 C 182.765625 106.328125 184.144531 103.675781 185.597656 100.875 Z M 67.652344 145.789062 C 67.542969 143.847656 66.582031 143.300781 64.71875 143.144531 C 64.414062 147.800781 64.117188 152.367188 63.808594 157.09375 C 65.648438 156.929688 67.160156 156.796875 68.753906 156.652344 C 68.355469 152.898438 67.851562 149.355469 67.652344 145.789062 Z M 86.320312 93.183594 C 86.40625 92.761719 85.980469 91.941406 85.589844 91.773438 C 83.839844 91.03125 82.019531 90.457031 80.015625 89.75 C 79.261719 91.859375 78.5625 93.8125 77.796875 95.953125 C 80.152344 97.023438 82.347656 98.019531 84.804688 99.132812 C 85.394531 96.890625 85.949219 95.054688 86.320312 93.183594 Z M 176.0625 168.257812 C 174.050781 168.066406 172.304688 167.898438 170.417969 167.71875 C 170.417969 171.109375 170.417969 174.195312 170.417969 177.203125 C 172.09375 177.492188 173.585938 177.746094 175.441406 178.0625 C 175.652344 174.765625 175.851562 171.5625 176.0625 168.257812 Z M 29.902344 130.613281 C 31.816406 131.269531 33.660156 131.898438 35.769531 132.621094 C 36.773438 129.832031 37.730469 127.179688 38.730469 124.414062 C 36.855469 123.625 35.285156 122.960938 33.628906 122.261719 C 32.328125 125.179688 31.140625 127.84375 29.902344 130.613281 Z M 69.191406 90.253906 C 69.144531 90.558594 69.324219 91.074219 69.5625 91.222656 C 71.726562 92.523438 73.929688 93.769531 76.355469 95.167969 C 77.027344 93.121094 77.621094 91.503906 78.039062 89.84375 C 78.125 89.507812 77.660156 88.800781 77.277344 88.613281 C 74.980469 87.480469 72.636719 86.441406 70.089844 85.277344 C 69.746094 87.121094 69.425781 88.679688 69.191406 90.253906 Z M 41.59375 134.394531 C 41.984375 134.460938 42.667969 134.074219 42.886719 133.703125 C 44.105469 131.621094 45.21875 129.480469 46.515625 127.089844 C 44.402344 126.335938 42.402344 125.621094 40.320312 124.882812 C 39.214844 127.710938 38.195312 130.316406 37.035156 133.289062 C 38.652344 133.699219 40.105469 134.136719 41.59375 134.394531 Z M 173.179688 57.832031 C 171.882812 57.203125 170.710938 56.636719 169.269531 55.9375 C 168.214844 59.71875 167.242188 63.214844 166.253906 66.707031 C 165.433594 69.601562 165.425781 69.601562 168.71875 70.671875 C 170.1875 66.4375 171.664062 62.199219 173.179688 57.832031 Z M 77.039062 180.101562 C 77.019531 180.574219 77.523438 181.441406 77.875 181.488281 C 80.625 181.855469 83.394531 182.070312 86.25 182.339844 C 86.359375 180.253906 86.460938 178.3125 86.578125 176.082031 C 83.621094 176.082031 80.761719 176.082031 77.558594 176.082031 C 77.378906 177.339844 77.09375 178.71875 77.039062 180.101562 Z M 95.636719 69.78125 C 97.261719 70.257812 97.90625 69.640625 97.902344 68.039062 C 97.894531 64.746094 97.914062 61.460938 97.917969 58.167969 C 97.917969 56.660156 97.082031 56.351562 95.894531 56.613281 C 94.433594 60.683594 93.019531 64.625 91.503906 68.847656 C 93.152344 69.214844 94.414062 69.425781 95.636719 69.78125 Z M 133.316406 101.003906 C 135.207031 100.871094 136.707031 100.769531 138.644531 100.632812 C 138.644531 97.648438 138.675781 94.78125 138.609375 91.917969 C 138.601562 91.511719 138.210938 90.957031 137.839844 90.742188 C 136.355469 89.878906 134.804688 89.125 133.316406 88.351562 C 133.316406 92.644531 133.316406 96.734375 133.316406 101.003906 Z M 158.863281 92.300781 C 160.5625 88.753906 160.332031 85.367188 158.628906 81.53125 C 158.21875 82.269531 157.820312 82.769531 157.640625 83.339844 C 156.367188 87.363281 155.167969 91.40625 153.890625 95.429688 C 152.914062 98.507812 152.878906 98.496094 156.046875 100.023438 C 156.972656 97.433594 157.6875 94.753906 158.863281 92.300781 Z M 34.246094 110.449219 C 29.636719 110.917969 25.910156 112.792969 21.933594 115.550781 C 25.664062 116.957031 28.917969 118.183594 32.453125 119.515625 C 33.085938 116.300781 33.652344 113.457031 34.246094 110.449219 Z M 74.964844 189.238281 C 75.175781 187.921875 74.863281 186.933594 73.476562 186.605469 C 71.351562 186.105469 69.222656 185.652344 67.078125 185.269531 C 66.820312 185.222656 66.253906 185.667969 66.1875 185.96875 C 65.792969 187.683594 65.503906 189.425781 65.125 191.464844 C 68.375 192.074219 71.351562 192.632812 74.539062 193.230469 C 74.707031 191.621094 74.773438 190.417969 74.964844 189.238281 Z M 206.789062 146.898438 C 207.949219 144.390625 208.976562 141.902344 207.796875 139.027344 C 207.394531 138.050781 207.304688 136.894531 207.285156 135.816406 C 207.214844 131.84375 207.242188 127.871094 207.21875 123.898438 C 207.203125 121.371094 206.976562 121.121094 204.09375 120.613281 C 204.765625 129.425781 205.425781 138.136719 206.089844 146.847656 C 206.324219 146.867188 206.558594 146.882812 206.789062 146.898438 Z M 164.796875 100.878906 C 163.742188 97.511719 162.902344 94.078125 161.972656 90.671875 C 161.753906 90.691406 161.535156 90.710938 161.316406 90.730469 C 160.097656 93.925781 158.855469 97.109375 157.699219 100.328125 C 157.578125 100.660156 157.839844 101.363281 158.148438 101.578125 C 160.132812 102.964844 162.179688 104.257812 164.191406 105.570312 C 166.023438 104.0625 165.316406 102.539062 164.796875 100.878906 Z M 87.59375 57.90625 C 87.027344 57.992188 86.203125 58.671875 86.113281 59.183594 C 85.695312 61.578125 85.429688 64 85.269531 66.425781 C 85.238281 66.90625 85.820312 67.648438 86.304688 67.886719 C 87.027344 68.238281 87.917969 68.351562 88.734375 68.351562 C 89.171875 68.351562 89.878906 67.996094 90.003906 67.636719 C 91.199219 64.265625 92.296875 60.863281 93.449219 57.386719 C 91.457031 57.546875 89.507812 57.613281 87.59375 57.90625 Z M 75.855469 165.46875 C 75.859375 165.832031 76.324219 166.410156 76.679688 166.503906 C 77.628906 166.753906 78.636719 166.800781 79.550781 166.917969 C 80.261719 163.171875 80.929688 159.664062 81.589844 156.152344 C 81.769531 155.207031 81.773438 154.359375 80.523438 154.121094 C 79.15625 153.859375 77.800781 153.542969 75.816406 153.117188 C 75.816406 157.433594 75.796875 161.453125 75.855469 165.46875 Z M 161.488281 173.394531 C 161.527344 171.453125 160.804688 170.433594 158.792969 170.421875 C 157.386719 173.238281 155.992188 176.023438 154.488281 179.027344 C 156.621094 180.929688 158.855469 182.921875 161.460938 185.246094 C 161.460938 180.941406 161.402344 177.167969 161.488281 173.394531 Z M 167.539062 110.527344 C 166.558594 112.414062 165.554688 114.34375 164.515625 116.34375 C 166.785156 117.019531 168.820312 117.554688 170.8125 118.230469 C 176.507812 120.164062 174.847656 120.3125 177.574219 115.402344 C 177.625 115.308594 177.578125 115.160156 177.578125 114.914062 C 174.332031 113.496094 171.03125 112.054688 167.539062 110.527344 Z M 142.324219 163.238281 C 141.484375 164.355469 140.664062 165.449219 139.882812 166.484375 C 143.144531 169.246094 146.230469 171.859375 149.28125 174.441406 C 150.390625 172.113281 151.441406 169.90625 152.492188 167.6875 C 149.078125 166.195312 145.753906 164.742188 142.324219 163.238281 Z M 69.089844 127.8125 C 67.722656 129.03125 66.609375 130.019531 65.242188 131.242188 C 68.1875 133.667969 70.898438 135.8125 73.507812 138.078125 C 75.882812 140.144531 75.835938 140.203125 78.386719 138.484375 C 78.699219 138.273438 78.984375 138.019531 79.609375 137.53125 C 76.027344 134.21875 72.609375 131.066406 69.089844 127.8125 Z M 208.078125 103.582031 C 207.546875 104.714844 207.070312 105.683594 206.632812 106.667969 C 205.515625 109.179688 204.539062 111.769531 203.25 114.191406 C 202.5 115.605469 202.476562 116.375 204.09375 116.886719 C 204.699219 117.078125 205.25 117.5 205.863281 117.59375 C 206.25 117.652344 206.921875 117.414062 207.09375 117.105469 C 209.011719 113.578125 210.859375 110.011719 212.738281 106.4375 C 211.105469 105.4375 209.660156 104.550781 208.078125 103.582031 Z M 145.121094 57.707031 C 143.8125 58.609375 141.53125 59.460938 141.429688 60.503906 C 141.011719 64.851562 141.253906 69.257812 141.253906 73.710938 C 142.871094 73.621094 144.90625 74.351562 145.175781 72.164062 C 145.785156 67.28125 146.054688 62.351562 146.480469 57.210938 C 145.824219 57.445312 145.417969 57.5 145.121094 57.707031 Z M 149.070312 107.921875 C 148.828125 110.4375 148.617188 112.640625 148.394531 114.921875 C 151.019531 115.699219 153.511719 116.507812 156.046875 117.125 C 156.585938 117.257812 157.492188 116.871094 157.886719 116.425781 C 158.910156 115.265625 159.746094 113.933594 160.902344 112.332031 C 156.902344 110.839844 153.109375 109.425781 149.070312 107.921875 Z M 60.949219 169.121094 C 60.1875 169.023438 59.753906 168.949219 59.316406 168.914062 C 54.128906 168.472656 53.988281 168.46875 53.777344 173.628906 C 53.707031 175.3125 51.808594 177.464844 53.863281 178.632812 C 55.324219 179.464844 57.46875 179.097656 59.3125 179.25 C 59.488281 179.261719 59.675781 179.183594 60.042969 179.105469 C 60.351562 175.722656 60.648438 172.449219 60.949219 169.121094 Z M 99.597656 118.414062 C 98.730469 111.816406 99.835938 113.257812 94.152344 112.703125 C 94.089844 112.699219 94.003906 112.675781 93.964844 112.707031 C 93.441406 113.101562 92.550781 113.445312 92.46875 113.921875 C 92.117188 115.933594 91.855469 117.988281 91.90625 120.019531 C 91.921875 120.742188 92.78125 121.730469 93.507812 122.097656 C 95.273438 122.984375 97.183594 123.574219 99.636719 124.515625 C 99.636719 122.25 99.847656 120.300781 99.597656 118.414062 Z M 59.066406 132.886719 C 55.292969 131.222656 51.515625 129.558594 47.671875 127.867188 C 46.375 130.242188 45.128906 132.519531 43.765625 135.019531 C 46.078125 135.671875 48.3125 137.003906 50.308594 136.707031 C 53.320312 136.261719 56.167969 134.679688 59.085938 133.578125 C 59.078125 133.347656 59.070312 133.117188 59.066406 132.886719 Z M 142.953125 173.335938 C 141.753906 177.75 140.550781 182.160156 139.277344 186.832031 C 141.914062 186.832031 144.179688 186.832031 146.507812 186.832031 C 146.867188 183.78125 147.238281 180.746094 147.566406 177.703125 C 147.597656 177.445312 147.390625 177.109375 147.203125 176.886719 C 146.054688 175.527344 144.878906 174.1875 143.714844 172.839844 C 143.460938 173.003906 143.207031 173.171875 142.953125 173.335938 Z M 199.488281 125.417969 C 195.847656 125.574219 195.839844 125.570312 195.828125 129.261719 C 195.816406 131.78125 195.824219 134.304688 195.824219 136.9375 C 198.210938 136.578125 200.167969 136.332031 202.09375 135.941406 C 202.484375 135.863281 203.050781 135.214844 203.035156 134.847656 C 202.921875 131.726562 202.695312 128.609375 202.488281 125.234375 C 201.382812 125.304688 200.4375 125.375 199.488281 125.417969 Z M 164.816406 145.824219 C 164.40625 146.691406 164.101562 148.269531 164.558594 148.75 C 165.675781 149.925781 167.265625 150.65625 168.878906 151.699219 C 171.011719 147.835938 172.976562 144.277344 174.941406 140.726562 C 173.058594 139.5625 171.273438 138.457031 169.265625 137.214844 C 167.726562 140.152344 166.167969 142.941406 164.816406 145.824219 Z M 82.867188 126.296875 C 82.867188 121.457031 82.867188 116.617188 82.867188 111.640625 C 80.671875 111.507812 78.34375 111.367188 75.988281 111.226562 C 76.226562 114.824219 76.449219 118.257812 76.699219 121.6875 C 76.714844 121.902344 76.929688 122.144531 77.117188 122.296875 C 78.835938 123.710938 80.570312 125.109375 82.300781 126.515625 C 82.488281 126.441406 82.679688 126.371094 82.867188 126.296875 Z M 75.335938 123.515625 C 74.132812 124.539062 73.148438 125.359375 72.183594 126.195312 C 71.226562 127.023438 71.0625 127.78125 72.207031 128.675781 C 73.519531 129.699219 74.742188 130.84375 75.960938 131.980469 C 77.636719 133.542969 79.273438 135.144531 81.003906 136.800781 C 82.679688 135.292969 84.183594 133.933594 85.875 132.414062 C 82.238281 129.34375 78.792969 126.4375 75.335938 123.515625 Z M 58.667969 61.570312 C 57.550781 56.0625 56.457031 50.550781 55.28125 45.050781 C 54.910156 43.324219 54.3125 41.644531 53.757812 39.742188 C 52.570312 40.816406 51.597656 41.566406 50.796875 42.476562 C 50.464844 42.855469 50.257812 43.632812 50.402344 44.105469 C 52.386719 50.59375 54.441406 57.058594 56.539062 63.722656 C 57.886719 63.488281 59.003906 63.226562 58.667969 61.570312 Z M 78.035156 106.273438 C 78.191406 104.28125 78.402344 102.253906 78.464844 100.222656 C 78.480469 99.78125 78.058594 99.125 77.65625 98.902344 C 74.984375 97.414062 72.261719 96.019531 69.414062 94.519531 C 67.988281 96.40625 66.609375 98.230469 65.164062 100.144531 C 68.789062 103.320312 75.683594 106.609375 78.035156 106.273438 Z M 84.535156 122.511719 C 84.082031 126.402344 84.644531 129.777344 88.492188 131.96875 C 90.089844 132.878906 91.363281 134.363281 93.128906 135.886719 C 93.886719 131.925781 94.539062 128.5 95.234375 124.871094 C 91.722656 123.699219 88.359375 122.578125 84.835938 121.398438 C 84.628906 122.148438 84.554688 122.328125 84.535156 122.511719 Z M 173.554688 38.074219 C 172.585938 36.933594 171.71875 36.992188 170.421875 37.644531 C 166.816406 39.445312 163.144531 41.144531 159.429688 42.703125 C 156.210938 44.050781 156.191406 43.941406 156.503906 47.507812 C 156.609375 48.6875 157.019531 49.171875 158.210938 48.65625 C 160.222656 47.78125 162.273438 46.992188 164.253906 46.054688 C 168.109375 44.230469 171.929688 42.328125 176.179688 40.257812 C 174.902344 39.214844 174.117188 38.738281 173.554688 38.074219 Z M 132.964844 186.972656 C 134.230469 186.972656 135.199219 186.902344 136.148438 186.988281 C 137.425781 187.105469 137.898438 186.605469 138.140625 185.332031 C 138.648438 182.628906 139.339844 179.957031 140.042969 177.292969 C 141.625 171.285156 141.648438 171.289062 136.582031 167.65625 C 136.480469 167.582031 136.351562 167.546875 135.875 167.328125 C 134.898438 173.921875 133.9375 180.40625 132.964844 186.972656 Z M 162.71875 60.082031 C 163.667969 59.574219 165.066406 59.148438 165.378906 58.34375 C 166.691406 54.980469 167.671875 51.488281 168.851562 47.796875 C 168.210938 47.921875 167.953125 47.925781 167.738281 48.019531 C 164.496094 49.433594 161.25 50.835938 158.035156 52.308594 C 157.671875 52.476562 157.292969 53.050781 157.265625 53.457031 C 157.070312 56.519531 156.964844 59.585938 156.804688 63.117188 C 159.003906 61.992188 160.878906 61.070312 162.71875 60.082031 Z M 57.519531 110.820312 C 57.84375 112.625 58.167969 114.433594 58.660156 116.199219 C 58.925781 117.132812 59.332031 118.222656 60.035156 118.808594 C 62.785156 121.109375 65.664062 123.257812 68.550781 125.390625 C 68.953125 125.691406 69.820312 125.871094 70.171875 125.640625 C 71.488281 124.785156 72.679688 123.734375 73.9375 122.742188 C 68.5 118.125 63.292969 113.699219 57.691406 108.941406 C 57.605469 109.78125 57.433594 110.324219 57.519531 110.820312 Z M 71.800781 51.222656 C 72.027344 51.296875 72.148438 51.378906 72.265625 51.371094 C 72.515625 51.359375 72.789062 51.351562 73.019531 51.257812 C 76.480469 49.859375 79.179688 50.734375 81.132812 53.925781 C 81.328125 54.25 81.597656 54.558594 81.898438 54.785156 C 82.40625 55.160156 83.023438 55.8125 83.5 55.734375 C 86.078125 55.332031 88.625 54.738281 91.566406 54.128906 C 83.808594 49.945312 76.246094 46.378906 70.753906 39.464844 C 71.117188 43.550781 71.460938 47.40625 71.800781 51.222656 Z M 54.871094 64.859375 C 54.414062 63.339844 54.074219 62.199219 53.714844 61.007812 C 53.128906 61.070312 52.679688 61.070312 52.257812 61.179688 C 46.738281 62.625 41.273438 64.394531 35.675781 65.425781 C 31.820312 66.136719 30.832031 68.765625 29.523438 71.964844 C 38.121094 69.554688 46.410156 67.230469 54.871094 64.859375 Z M 42.503906 174.171875 C 44.636719 177.386719 47.980469 177.457031 51.40625 178.238281 C 51.714844 174.863281 52.003906 171.714844 52.289062 168.640625 C 47.125 167.90625 42.148438 167.191406 36.589844 166.394531 C 38.808594 169.285156 40.816406 171.621094 42.503906 174.171875 Z M 89.347656 144.027344 C 91.488281 146.042969 94.125 146.671875 96.828125 147.238281 C 97.886719 147.460938 98.925781 147.484375 99.359375 146.1875 C 99.746094 145.007812 99.675781 144.023438 98.539062 143.136719 C 95.914062 141.085938 93.382812 138.914062 90.828125 136.769531 C 89.472656 135.628906 88.148438 134.449219 87 133.449219 C 85.253906 134.949219 83.707031 136.28125 82.003906 137.746094 C 84.6875 140.023438 87.113281 141.921875 89.347656 144.027344 Z M 144.089844 39.527344 C 142.699219 39.917969 142.265625 40.730469 142.269531 42.027344 C 142.28125 46.492188 142.273438 50.957031 142.273438 55.742188 C 144.894531 54.179688 147.269531 52.789062 149.605469 51.339844 C 149.910156 51.152344 150.230469 50.660156 150.210938 50.332031 C 149.980469 46.1875 149.683594 42.046875 149.378906 37.507812 C 147.308594 38.3125 145.738281 39.066406 144.089844 39.527344 Z M 56.9375 164.878906 C 56.679688 158.144531 56.503906 151.40625 56.070312 144.683594 C 55.945312 142.679688 55.09375 140.726562 54.59375 138.828125 C 52.011719 139.199219 51.519531 140.425781 51.699219 142.328125 C 52.042969 145.964844 52.332031 149.613281 52.4375 153.261719 C 52.5625 157.472656 52.46875 161.691406 52.46875 166.089844 C 53.660156 166.171875 55.164062 166.273438 56.742188 166.378906 C 56.828125 165.746094 56.953125 165.308594 56.9375 164.878906 Z M 89.890625 30.386719 C 89.683594 30.664062 89.515625 31.101562 89.570312 31.425781 C 90.636719 37.921875 91.722656 44.417969 92.847656 50.90625 C 93.15625 52.675781 94.429688 53.1875 96.417969 53.167969 C 95.664062 43.734375 94.925781 34.445312 94.148438 24.738281 C 92.578125 26.808594 91.214844 28.582031 89.890625 30.386719 Z M 71.910156 61.816406 C 71.746094 61.742188 71.582031 61.671875 71.417969 61.59375 C 71.042969 62.171875 70.589844 62.710938 70.3125 63.328125 C 68.433594 67.546875 66.511719 71.75 64.757812 76.023438 C 63.539062 78.984375 62.523438 82.027344 61.515625 85.066406 C 61.367188 85.519531 61.589844 86.417969 61.941406 86.65625 C 63.742188 87.859375 65.640625 88.914062 67.667969 90.117188 C 69.109375 80.503906 70.511719 71.160156 71.910156 61.816406 Z M 67.046875 30.089844 C 65.558594 31.039062 64.339844 31.867188 63.070312 32.609375 C 62.148438 33.148438 61.980469 33.761719 62.207031 34.828125 C 63.15625 39.269531 64.03125 43.730469 64.835938 48.199219 C 65.5 51.886719 66.023438 55.601562 66.632812 59.4375 C 67.785156 59.1875 68.832031 58.960938 69.917969 58.722656 C 70.390625 48.929688 68.890625 39.609375 67.046875 30.089844 Z M 78.65625 59.398438 C 74.726562 59.851562 73.113281 61.902344 72.824219 65.992188 C 72.449219 71.269531 71.160156 76.480469 70.316406 81.730469 C 70.214844 82.355469 70.222656 83.414062 70.574219 83.628906 C 72.125 84.5625 73.820312 85.265625 75.625 86.132812 C 76.96875 76.957031 78.261719 68.136719 79.597656 59.050781 C 79.117188 59.230469 78.894531 59.371094 78.65625 59.398438 Z M 179.859375 56.820312 C 180.941406 53.667969 182.0625 50.53125 183.054688 47.347656 C 184.378906 43.101562 184.808594 44.34375 181.296875 41.15625 C 181.210938 41.078125 181.0625 41.0625 180.988281 41.035156 C 178.488281 42.488281 175.996094 43.890625 173.558594 45.382812 C 173.003906 45.722656 172.445312 46.3125 172.226562 46.90625 C 171.464844 49.015625 170.808594 51.167969 170.21875 53.328125 C 170.105469 53.742188 170.332031 54.5625 170.648438 54.726562 C 173.367188 56.140625 176.140625 57.449219 179.054688 58.859375 C 179.355469 58.105469 179.636719 57.472656 179.859375 56.820312 Z M 87.105469 21.183594 C 86.980469 21 86.855469 20.816406 86.730469 20.632812 C 81.175781 23.207031 75.625 25.785156 70.0625 28.34375 C 69.050781 28.804688 68.746094 29.472656 69.1875 30.484375 C 70.339844 33.109375 71.421875 35.773438 72.679688 38.34375 C 73.167969 39.34375 74.058594 40.148438 74.941406 41.265625 C 79.097656 34.402344 83.101562 27.792969 87.105469 21.183594 Z M 43.511719 93.261719 C 41.097656 88.183594 39.222656 82.949219 38.1875 77.449219 C 37.816406 75.472656 36.496094 74.542969 35.003906 74.367188 C 33.578125 74.195312 32.03125 74.941406 30.5625 75.367188 C 30.371094 75.421875 30.167969 76.015625 30.238281 76.292969 C 30.910156 78.9375 31.636719 81.570312 32.339844 84.1875 C 32.976562 84.148438 33.246094 84.1875 33.472656 84.109375 C 35.402344 83.417969 36.371094 84.257812 36.773438 86.105469 C 37.058594 87.417969 37.175781 88.828125 37.761719 89.996094 C 39.992188 94.4375 41.4375 99.113281 42.445312 103.960938 C 42.527344 104.347656 43.304688 104.894531 43.714844 104.855469 C 44.902344 104.75 46.066406 104.382812 47.625 104.03125 C 46.222656 100.292969 45.125 96.652344 43.511719 93.261719 Z M 175.585938 189.242188 C 178.691406 186.4375 181.644531 183.808594 184.542969 181.117188 C 184.855469 180.828125 184.960938 180.203125 184.976562 179.726562 C 185.136719 175.300781 185.285156 170.878906 185.34375 166.457031 C 185.351562 165.878906 184.984375 165.023438 184.523438 164.761719 C 182.707031 163.71875 180.785156 162.859375 178.789062 161.878906 C 177.710938 171.085938 176.671875 179.953125 175.585938 189.242188 Z M 83.421875 81.046875 C 83.066406 81.101562 82.175781 80.1875 82.1875 79.742188 C 82.242188 77.636719 82.542969 75.539062 82.71875 73.433594 C 83.132812 68.472656 83.523438 63.515625 83.929688 58.476562 C 82.789062 58.183594 81.941406 58.207031 81.703125 59.679688 C 80.484375 67.1875 79.230469 74.6875 78 82.125 C 84.800781 85.949219 94.402344 89.589844 98.105469 89.714844 C 98.105469 87.695312 98.105469 85.679688 98.105469 83.304688 C 93.214844 82.6875 88.601562 80.242188 83.421875 81.046875 Z M 187.71875 121.644531 C 185.5 119.902344 183.261719 118.144531 180.882812 116.273438 C 176.097656 122.144531 173.984375 129.15625 170.148438 135.351562 C 172.253906 136.71875 174.058594 137.886719 175.792969 139.015625 C 179.835938 133.128906 183.726562 127.457031 187.71875 121.644531 Z M 167.546875 192.527344 C 167.742188 191.394531 167.953125 190.246094 167.988281 189.097656 C 168.265625 179.625 168.417969 170.144531 168.804688 160.675781 C 168.910156 158.085938 168.320312 156.308594 165.707031 155.613281 C 164.851562 155.386719 163.679688 154.96875 163.132812 155.339844 C 162.546875 155.742188 162.238281 156.996094 162.308594 157.832031 C 162.484375 159.917969 163.015625 161.96875 163.277344 164.050781 C 163.648438 167.015625 164.117188 169.996094 164.167969 172.972656 C 164.292969 180.691406 164.210938 188.410156 164.210938 196.382812 C 167.085938 195.058594 167.101562 195.0625 167.546875 192.527344 Z M 65.847656 174.519531 C 65.875 173.191406 66.578125 172.765625 67.878906 172.925781 C 70.105469 173.199219 72.347656 173.363281 74.582031 173.5625 C 79.558594 174 84.535156 174.5 89.519531 174.84375 C 91.910156 175.007812 94.320312 174.871094 96.695312 174.871094 C 96.695312 173.132812 96.695312 171.890625 96.695312 170.800781 C 95.058594 170.800781 93.585938 170.933594 92.140625 170.777344 C 86.789062 170.183594 81.457031 169.328125 76.09375 168.902344 C 72.160156 168.589844 68.1875 168.796875 64.234375 168.777344 C 63.230469 168.769531 62.789062 169.214844 62.695312 170.273438 C 62.503906 172.441406 62.195312 174.601562 61.871094 176.753906 C 61.429688 179.636719 61.59375 179.867188 64.46875 179.890625 C 64.964844 179.894531 65.460938 179.8125 65.839844 179.777344 C 65.839844 177.9375 65.820312 176.226562 65.847656 174.519531 Z M 64.636719 64.351562 C 61.023438 65.042969 59.140625 67.292969 58.085938 70.714844 C 56.746094 75.066406 56.132812 75.269531 52.289062 72.867188 C 50.15625 71.539062 48.257812 70.34375 45.546875 71.4375 C 43.5625 72.238281 41.351562 72.46875 39.046875 73 C 45.859375 76.972656 52.414062 80.796875 58.671875 84.449219 C 61.625 77.464844 64.558594 70.519531 67.734375 63.007812 C 66.339844 63.625 65.527344 64.179688 64.636719 64.351562 Z M 213.140625 118.839844 C 212.953125 119.824219 212.765625 120.808594 212.578125 121.792969 C 208.632812 120.855469 207.941406 119.5625 209.695312 116.085938 C 210.75 114 211.988281 112.007812 213.140625 109.972656 C 213.140625 112.929688 213.140625 115.886719 213.140625 118.839844 " fill-opacity="1" fill-rule="nonzero"/></g><g clip-path="url(#60cdafc818)"><path fill="#05386b" d="M 109.699219 172.339844 L 123.910156 172.339844 L 123.910156 98.050781 L 109.699219 105.152344 Z M 168.542969 178.828125 L 144.605469 178.828125 L 144.605469 56.65625 L 109.699219 74.109375 L 109.699219 97.902344 L 130.394531 87.550781 L 130.394531 178.828125 L 103.210938 178.828125 L 103.210938 108.398438 L 89.003906 115.503906 L 89.003906 178.828125 L 65.066406 178.828125 L 65.066406 172.339844 L 82.515625 172.339844 L 82.515625 111.492188 L 103.210938 101.144531 L 103.210938 70.101562 L 151.09375 46.160156 L 151.09375 172.339844 L 168.542969 172.339844 L 168.542969 178.828125 " fill-opacity="1" fill-rule="nonzero"/></g></svg>