<svg xmlns="http://www.w3.org/2000/svg" xmlns:xlink="http://www.w3.org/1999/xlink" width="1200" zoomAndPan="magnify" viewBox="0 0 900 225" height="300" preserveAspectRatio="xMidYMid meet" version="1.0"><defs><g/><clipPath id="5e9eeadec7"><path d="M 474 22.371094 L 810 22.371094 L 810 174.132812 L 474 174.132812 Z M 474 22.371094 " clip-rule="nonzero"/></clipPath><clipPath id="c828acc1f4"><path d="M 570.054688 22.371094 L 804 22.371094 C 806.152344 22.371094 808.136719 23.523438 809.199219 25.394531 C 810.265625 27.261719 810.246094 29.558594 809.152344 31.40625 L 729.980469 165.097656 C 726.664062 170.699219 720.640625 174.132812 714.132812 174.132812 L 480.183594 174.132812 C 478.03125 174.132812 476.046875 172.980469 474.984375 171.109375 C 473.917969 169.242188 473.9375 166.945312 475.03125 165.097656 L 554.203125 31.40625 C 557.519531 25.804688 563.542969 22.371094 570.054688 22.371094 Z M 570.054688 22.371094 " clip-rule="nonzero"/></clipPath></defs><rect x="-90" width="1080" fill="#ffffff" y="-22.5" height="270" fill-opacity="1"/><rect x="-90" width="1080" fill="#ffffff" y="-22.5" height="270" fill-opacity="1"/><g fill="#000000" fill-opacity="1"><g transform="translate(163.779114, 209.428424)"><g><path d="M 12.390625 -27.125 C 15.878906 -27.125 19.023438 -26.203125 21.828125 -24.359375 L 19.9375 -20.359375 C 17.1875 -22.023438 14.554688 -22.859375 12.046875 -22.859375 C 10.679688 -22.859375 9.609375 -22.613281 8.828125 -22.125 C 8.046875 -21.632812 7.65625 -20.941406 7.65625 -20.046875 C 7.65625 -19.148438 8.015625 -18.382812 8.734375 -17.75 C 9.453125 -17.125 10.347656 -16.664062 11.421875 -16.375 C 12.503906 -16.082031 13.671875 -15.707031 14.921875 -15.25 C 16.179688 -14.800781 17.347656 -14.328125 18.421875 -13.828125 C 19.503906 -13.328125 20.398438 -12.546875 21.109375 -11.484375 C 21.816406 -10.421875 22.171875 -9.132812 22.171875 -7.625 C 22.171875 -5.257812 21.226562 -3.367188 19.34375 -1.953125 C 17.457031 -0.546875 15.007812 0.15625 12 0.15625 C 9.945312 0.15625 7.957031 -0.226562 6.03125 -1 C 4.113281 -1.769531 2.4375 -2.8125 1 -4.125 L 2.96875 -8.046875 C 4.320312 -6.785156 5.8125 -5.816406 7.4375 -5.140625 C 9.070312 -4.460938 10.617188 -4.125 12.078125 -4.125 C 13.671875 -4.125 14.910156 -4.410156 15.796875 -4.984375 C 16.679688 -5.554688 17.125 -6.359375 17.125 -7.390625 C 17.125 -8.316406 16.765625 -9.09375 16.046875 -9.71875 C 15.328125 -10.34375 14.425781 -10.800781 13.34375 -11.09375 C 12.269531 -11.394531 11.101562 -11.753906 9.84375 -12.171875 C 8.59375 -12.597656 7.425781 -13.046875 6.34375 -13.515625 C 5.269531 -13.992188 4.375 -14.757812 3.65625 -15.8125 C 2.9375 -16.863281 2.578125 -18.132812 2.578125 -19.625 C 2.578125 -21.90625 3.472656 -23.722656 5.265625 -25.078125 C 7.066406 -26.441406 9.441406 -27.125 12.390625 -27.125 Z M 12.390625 -27.125 "/></g></g></g><g fill="#000000" fill-opacity="1"><g transform="translate(191.820703, 209.428424)"><g><path d="M 22.78125 -22.859375 L 8.078125 -22.859375 L 8.078125 -15.59375 L 21.25 -15.59375 L 21.25 -11.5 L 8.078125 -11.5 L 8.078125 -4.078125 L 23.25 -4.078125 L 23.25 0 L 3.546875 0 L 3.546875 -26.9375 L 22.78125 -26.9375 Z M 22.78125 -22.859375 "/></g></g></g><g fill="#000000" fill-opacity="1"><g transform="translate(221.17002, 209.428424)"><g><path d="M 20.9375 -6.078125 L 7.34375 -6.078125 L 4.765625 0 L 0.03125 0 L 11.9375 -26.9375 L 16.59375 -26.9375 L 28.359375 0 L 23.515625 0 Z M 19.203125 -10.125 L 14.125 -22.09375 L 9.046875 -10.125 Z M 19.203125 -10.125 "/></g></g></g><g fill="#000000" fill-opacity="1"><g transform="translate(253.673186, 209.428424)"><g><path d="M 20.625 0 L 15.703125 -8.15625 C 15.441406 -8.132812 15.03125 -8.125 14.46875 -8.125 L 8.078125 -8.125 L 8.078125 0 L 3.546875 0 L 3.546875 -26.9375 L 14.46875 -26.9375 C 17.90625 -26.9375 20.570312 -26.132812 22.46875 -24.53125 C 24.375 -22.925781 25.328125 -20.660156 25.328125 -17.734375 C 25.328125 -15.585938 24.84375 -13.769531 23.875 -12.28125 C 22.914062 -10.789062 21.539062 -9.695312 19.75 -9 L 25.78125 0 Z M 8.078125 -12.203125 L 14.46875 -12.203125 C 18.832031 -12.203125 21.015625 -14.007812 21.015625 -17.625 C 21.015625 -21.113281 18.832031 -22.859375 14.46875 -22.859375 L 8.078125 -22.859375 Z M 8.078125 -12.203125 "/></g></g></g><g fill="#000000" fill-opacity="1"><g transform="translate(285.599414, 209.428424)"><g><path d="M 15.46875 -27.046875 C 17.363281 -27.046875 19.21875 -26.679688 21.03125 -25.953125 C 22.84375 -25.222656 24.398438 -24.203125 25.703125 -22.890625 L 23.046875 -19.59375 C 22.078125 -20.644531 20.925781 -21.476562 19.59375 -22.09375 C 18.257812 -22.707031 16.910156 -23.015625 15.546875 -23.015625 C 12.847656 -23.015625 10.566406 -22.097656 8.703125 -20.265625 C 6.847656 -18.429688 5.921875 -16.191406 5.921875 -13.546875 C 5.921875 -10.878906 6.847656 -8.628906 8.703125 -6.796875 C 10.566406 -4.960938 12.847656 -4.046875 15.546875 -4.046875 C 18.347656 -4.046875 20.847656 -5.109375 23.046875 -7.234375 L 25.75 -4.234375 C 24.363281 -2.867188 22.742188 -1.789062 20.890625 -1 C 19.046875 -0.207031 17.1875 0.1875 15.3125 0.1875 C 11.363281 0.1875 8.039062 -1.125 5.34375 -3.75 C 2.65625 -6.382812 1.3125 -9.640625 1.3125 -13.515625 C 1.3125 -17.328125 2.675781 -20.535156 5.40625 -23.140625 C 8.132812 -25.742188 11.488281 -27.046875 15.46875 -27.046875 Z M 15.46875 -27.046875 "/></g></g></g><g fill="#000000" fill-opacity="1"><g transform="translate(316.525643, 209.428424)"><g><path d="M 26.90625 0 L 22.359375 0 L 22.359375 -11.15625 L 8.078125 -11.15625 L 8.078125 0 L 3.546875 0 L 3.546875 -26.9375 L 8.078125 -26.9375 L 8.078125 -15.234375 L 22.359375 -15.234375 L 22.359375 -26.9375 L 26.90625 -26.9375 Z M 26.90625 0 "/></g></g></g><g fill="#000000" fill-opacity="1"><g transform="translate(351.067293, 209.428424)"><g><path d="M 4.1875 -4.65625 C 4.832031 -4.65625 5.382812 -4.429688 5.84375 -3.984375 C 6.3125 -3.535156 6.546875 -2.9375 6.546875 -2.1875 C 6.546875 -1.5 6.3125 -0.820312 5.84375 -0.15625 L 3.65625 3.15625 L 1.390625 3.15625 L 2.84375 -0.1875 C 2.15625 -0.65625 1.8125 -1.320312 1.8125 -2.1875 C 1.8125 -2.90625 2.035156 -3.492188 2.484375 -3.953125 C 2.929688 -4.421875 3.5 -4.65625 4.1875 -4.65625 Z M 4.1875 -4.65625 "/></g></g></g><g fill="#000000" fill-opacity="1"><g transform="translate(363.416419, 209.428424)"><g/></g></g><g fill="#000000" fill-opacity="1"><g transform="translate(377.457872, 209.428424)"><g><path d="M 12.390625 -27.125 C 15.878906 -27.125 19.023438 -26.203125 21.828125 -24.359375 L 19.9375 -20.359375 C 17.1875 -22.023438 14.554688 -22.859375 12.046875 -22.859375 C 10.679688 -22.859375 9.609375 -22.613281 8.828125 -22.125 C 8.046875 -21.632812 7.65625 -20.941406 7.65625 -20.046875 C 7.65625 -19.148438 8.015625 -18.382812 8.734375 -17.75 C 9.453125 -17.125 10.347656 -16.664062 11.421875 -16.375 C 12.503906 -16.082031 13.671875 -15.707031 14.921875 -15.25 C 16.179688 -14.800781 17.347656 -14.328125 18.421875 -13.828125 C 19.503906 -13.328125 20.398438 -12.546875 21.109375 -11.484375 C 21.816406 -10.421875 22.171875 -9.132812 22.171875 -7.625 C 22.171875 -5.257812 21.226562 -3.367188 19.34375 -1.953125 C 17.457031 -0.546875 15.007812 0.15625 12 0.15625 C 9.945312 0.15625 7.957031 -0.226562 6.03125 -1 C 4.113281 -1.769531 2.4375 -2.8125 1 -4.125 L 2.96875 -8.046875 C 4.320312 -6.785156 5.8125 -5.816406 7.4375 -5.140625 C 9.070312 -4.460938 10.617188 -4.125 12.078125 -4.125 C 13.671875 -4.125 14.910156 -4.410156 15.796875 -4.984375 C 16.679688 -5.554688 17.125 -6.359375 17.125 -7.390625 C 17.125 -8.316406 16.765625 -9.09375 16.046875 -9.71875 C 15.328125 -10.34375 14.425781 -10.800781 13.34375 -11.09375 C 12.269531 -11.394531 11.101562 -11.753906 9.84375 -12.171875 C 8.59375 -12.597656 7.425781 -13.046875 6.34375 -13.515625 C 5.269531 -13.992188 4.375 -14.757812 3.65625 -15.8125 C 2.9375 -16.863281 2.578125 -18.132812 2.578125 -19.625 C 2.578125 -21.90625 3.472656 -23.722656 5.265625 -25.078125 C 7.066406 -26.441406 9.441406 -27.125 12.390625 -27.125 Z M 12.390625 -27.125 "/></g></g></g><g fill="#000000" fill-opacity="1"><g transform="translate(405.499458, 209.428424)"><g><path d="M 22.78125 -22.859375 L 8.078125 -22.859375 L 8.078125 -15.59375 L 21.25 -15.59375 L 21.25 -11.5 L 8.078125 -11.5 L 8.078125 -4.078125 L 23.25 -4.078125 L 23.25 0 L 3.546875 0 L 3.546875 -26.9375 L 22.78125 -26.9375 Z M 22.78125 -22.859375 "/></g></g></g><g fill="#000000" fill-opacity="1"><g transform="translate(434.848773, 209.428424)"><g><path d="M 22.78125 -22.859375 L 8.078125 -22.859375 L 8.078125 -15.59375 L 21.25 -15.59375 L 21.25 -11.5 L 8.078125 -11.5 L 8.078125 -4.078125 L 23.25 -4.078125 L 23.25 0 L 3.546875 0 L 3.546875 -26.9375 L 22.78125 -26.9375 Z M 22.78125 -22.859375 "/></g></g></g><g fill="#000000" fill-opacity="1"><g transform="translate(464.198106, 209.428424)"><g><path d="M 4.1875 -4.65625 C 4.832031 -4.65625 5.382812 -4.429688 5.84375 -3.984375 C 6.3125 -3.535156 6.546875 -2.9375 6.546875 -2.1875 C 6.546875 -1.5 6.3125 -0.820312 5.84375 -0.15625 L 3.65625 3.15625 L 1.390625 3.15625 L 2.84375 -0.1875 C 2.15625 -0.65625 1.8125 -1.320312 1.8125 -2.1875 C 1.8125 -2.90625 2.035156 -3.492188 2.484375 -3.953125 C 2.929688 -4.421875 3.5 -4.65625 4.1875 -4.65625 Z M 4.1875 -4.65625 "/></g></g></g><g fill="#000000" fill-opacity="1"><g transform="translate(476.547232, 209.428424)"><g/></g></g><g fill="#000000" fill-opacity="1"><g transform="translate(490.588685, 209.428424)"><g><path d="M 12.390625 -27.125 C 15.878906 -27.125 19.023438 -26.203125 21.828125 -24.359375 L 19.9375 -20.359375 C 17.1875 -22.023438 14.554688 -22.859375 12.046875 -22.859375 C 10.679688 -22.859375 9.609375 -22.613281 8.828125 -22.125 C 8.046875 -21.632812 7.65625 -20.941406 7.65625 -20.046875 C 7.65625 -19.148438 8.015625 -18.382812 8.734375 -17.75 C 9.453125 -17.125 10.347656 -16.664062 11.421875 -16.375 C 12.503906 -16.082031 13.671875 -15.707031 14.921875 -15.25 C 16.179688 -14.800781 17.347656 -14.328125 18.421875 -13.828125 C 19.503906 -13.328125 20.398438 -12.546875 21.109375 -11.484375 C 21.816406 -10.421875 22.171875 -9.132812 22.171875 -7.625 C 22.171875 -5.257812 21.226562 -3.367188 19.34375 -1.953125 C 17.457031 -0.546875 15.007812 0.15625 12 0.15625 C 9.945312 0.15625 7.957031 -0.226562 6.03125 -1 C 4.113281 -1.769531 2.4375 -2.8125 1 -4.125 L 2.96875 -8.046875 C 4.320312 -6.785156 5.8125 -5.816406 7.4375 -5.140625 C 9.070312 -4.460938 10.617188 -4.125 12.078125 -4.125 C 13.671875 -4.125 14.910156 -4.410156 15.796875 -4.984375 C 16.679688 -5.554688 17.125 -6.359375 17.125 -7.390625 C 17.125 -8.316406 16.765625 -9.09375 16.046875 -9.71875 C 15.328125 -10.34375 14.425781 -10.800781 13.34375 -11.09375 C 12.269531 -11.394531 11.101562 -11.753906 9.84375 -12.171875 C 8.59375 -12.597656 7.425781 -13.046875 6.34375 -13.515625 C 5.269531 -13.992188 4.375 -14.757812 3.65625 -15.8125 C 2.9375 -16.863281 2.578125 -18.132812 2.578125 -19.625 C 2.578125 -21.90625 3.472656 -23.722656 5.265625 -25.078125 C 7.066406 -26.441406 9.441406 -27.125 12.390625 -27.125 Z M 12.390625 -27.125 "/></g></g></g><g fill="#000000" fill-opacity="1"><g transform="translate(518.630271, 209.428424)"><g><path d="M 26.4375 -26.9375 L 26.4375 -11.15625 C 26.4375 -7.644531 25.394531 -4.875 23.3125 -2.84375 C 21.238281 -0.820312 18.378906 0.1875 14.734375 0.1875 C 11.097656 0.1875 8.234375 -0.820312 6.140625 -2.84375 C 4.046875 -4.875 3 -7.644531 3 -11.15625 L 3 -26.9375 L 7.546875 -26.9375 L 7.546875 -11.15625 C 7.546875 -8.90625 8.191406 -7.128906 9.484375 -5.828125 C 10.785156 -4.535156 12.550781 -3.890625 14.78125 -3.890625 C 16.988281 -3.890625 18.722656 -4.53125 19.984375 -5.8125 C 21.253906 -7.09375 21.890625 -8.875 21.890625 -11.15625 L 21.890625 -26.9375 Z M 26.4375 -26.9375 "/></g></g></g><g fill="#000000" fill-opacity="1"><g transform="translate(552.13344, 209.428424)"><g><path d="M 3.546875 -26.9375 L 14.28125 -26.9375 C 17.664062 -26.9375 20.285156 -26.132812 22.140625 -24.53125 C 24.003906 -22.925781 24.9375 -20.660156 24.9375 -17.734375 C 24.9375 -14.679688 24.003906 -12.316406 22.140625 -10.640625 C 20.285156 -8.960938 17.664062 -8.125 14.28125 -8.125 L 8.078125 -8.125 L 8.078125 0 L 3.546875 0 Z M 8.078125 -22.859375 L 8.078125 -12.203125 L 14.078125 -12.203125 C 18.421875 -12.203125 20.59375 -14.007812 20.59375 -17.625 C 20.59375 -21.113281 18.421875 -22.859375 14.078125 -22.859375 Z M 8.078125 -22.859375 "/></g></g></g><g fill="#000000" fill-opacity="1"><g transform="translate(582.136602, 209.428424)"><g><path d="M 3.546875 -26.9375 L 14.28125 -26.9375 C 17.664062 -26.9375 20.285156 -26.132812 22.140625 -24.53125 C 24.003906 -22.925781 24.9375 -20.660156 24.9375 -17.734375 C 24.9375 -14.679688 24.003906 -12.316406 22.140625 -10.640625 C 20.285156 -8.960938 17.664062 -8.125 14.28125 -8.125 L 8.078125 -8.125 L 8.078125 0 L 3.546875 0 Z M 8.078125 -22.859375 L 8.078125 -12.203125 L 14.078125 -12.203125 C 18.421875 -12.203125 20.59375 -14.007812 20.59375 -17.625 C 20.59375 -21.113281 18.421875 -22.859375 14.078125 -22.859375 Z M 8.078125 -22.859375 "/></g></g></g><g fill="#000000" fill-opacity="1"><g transform="translate(612.139763, 209.428424)"><g><path d="M 5.421875 -23.140625 C 8.171875 -25.742188 11.554688 -27.046875 15.578125 -27.046875 C 19.609375 -27.046875 22.992188 -25.742188 25.734375 -23.140625 C 28.484375 -20.535156 29.859375 -17.3125 29.859375 -13.46875 C 29.859375 -9.625 28.484375 -6.382812 25.734375 -3.75 C 22.992188 -1.125 19.609375 0.1875 15.578125 0.1875 C 11.554688 0.1875 8.171875 -1.125 5.421875 -3.75 C 2.679688 -6.382812 1.3125 -9.625 1.3125 -13.46875 C 1.3125 -17.3125 2.679688 -20.535156 5.421875 -23.140625 Z M 15.625 -22.96875 C 12.957031 -22.96875 10.671875 -22.050781 8.765625 -20.21875 C 6.867188 -18.382812 5.921875 -16.132812 5.921875 -13.46875 C 5.921875 -10.800781 6.875 -8.535156 8.78125 -6.671875 C 10.695312 -4.816406 12.976562 -3.890625 15.625 -3.890625 C 18.269531 -3.890625 20.523438 -4.816406 22.390625 -6.671875 C 24.265625 -8.535156 25.203125 -10.800781 25.203125 -13.46875 C 25.203125 -16.132812 24.265625 -18.382812 22.390625 -20.21875 C 20.523438 -22.050781 18.269531 -22.96875 15.625 -22.96875 Z M 15.625 -22.96875 "/></g></g></g><g fill="#000000" fill-opacity="1"><g transform="translate(647.412208, 209.428424)"><g><path d="M 20.625 0 L 15.703125 -8.15625 C 15.441406 -8.132812 15.03125 -8.125 14.46875 -8.125 L 8.078125 -8.125 L 8.078125 0 L 3.546875 0 L 3.546875 -26.9375 L 14.46875 -26.9375 C 17.90625 -26.9375 20.570312 -26.132812 22.46875 -24.53125 C 24.375 -22.925781 25.328125 -20.660156 25.328125 -17.734375 C 25.328125 -15.585938 24.84375 -13.769531 23.875 -12.28125 C 22.914062 -10.789062 21.539062 -9.695312 19.75 -9 L 25.78125 0 Z M 8.078125 -12.203125 L 14.46875 -12.203125 C 18.832031 -12.203125 21.015625 -14.007812 21.015625 -17.625 C 21.015625 -21.113281 18.832031 -22.859375 14.46875 -22.859375 L 8.078125 -22.859375 Z M 8.078125 -12.203125 "/></g></g></g><g fill="#000000" fill-opacity="1"><g transform="translate(679.338435, 209.428424)"><g><path d="M 21.9375 -22.859375 L 13.390625 -22.859375 L 13.390625 0 L 8.84375 0 L 8.84375 -22.859375 L 0.34375 -22.859375 L 0.34375 -26.9375 L 21.9375 -26.9375 Z M 21.9375 -22.859375 "/></g></g></g><g clip-path="url(#5e9eeadec7)"><g clip-path="url(#c828acc1f4)"><path fill="#05386b" d="M 469.683594 22.371094 L 814.699219 22.371094 L 814.699219 174.132812 L 469.683594 174.132812 Z M 469.683594 22.371094 " fill-opacity="1" fill-rule="nonzero"/></g></g><g fill="#05386b" fill-opacity="1"><g transform="translate(85.498547, 148.568861)"><g><path d="M 8.953125 -89.46875 L 47.921875 -89.46875 C 59.347656 -89.46875 68.210938 -86.757812 74.515625 -81.34375 C 80.816406 -75.9375 83.96875 -68.25 83.96875 -58.28125 C 83.96875 -47.800781 80.816406 -39.660156 74.515625 -33.859375 C 68.210938 -28.066406 59.347656 -25.171875 47.921875 -25.171875 L 31.703125 -25.171875 L 31.703125 0 L 8.953125 0 Z M 31.703125 -71.578125 L 31.703125 -43.078125 L 46.78125 -43.078125 C 51.800781 -43.078125 55.675781 -44.3125 58.40625 -46.78125 C 61.132812 -49.25 62.5 -52.828125 62.5 -57.515625 C 62.5 -62.117188 61.132812 -65.613281 58.40625 -68 C 55.675781 -70.382812 51.800781 -71.578125 46.78125 -71.578125 Z M 31.703125 -71.578125 "/></g></g></g><g fill="#05386b" fill-opacity="1"><g transform="translate(165.11858, 148.568861)"><g><path d="M 78.984375 -71.578125 L 31.703125 -71.578125 L 31.703125 -53.8125 L 74.390625 -53.8125 L 74.390625 -35.921875 L 31.703125 -35.921875 L 31.703125 -17.890625 L 80.390625 -17.890625 L 80.390625 0 L 8.953125 0 L 8.953125 -89.46875 L 78.984375 -89.46875 Z M 78.984375 -71.578125 "/></g></g></g><g fill="#05386b" fill-opacity="1"><g transform="translate(243.971817, 148.568861)"><g><path d="M 77.328125 -71.1875 L 50.359375 -71.1875 L 50.359375 0 L 27.609375 0 L 27.609375 -71.1875 L 0.890625 -71.1875 L 0.890625 -89.59375 L 77.328125 -89.59375 Z M 77.328125 -71.1875 "/></g></g></g><g fill="#05386b" fill-opacity="1"><g transform="translate(314.77351, 148.568861)"><g><path d="M 68.375 -16.484375 L 29.265625 -16.484375 L 22.75 0 L -0.640625 0 L 37.953125 -89.46875 L 61.34375 -89.46875 L 99.046875 0 L 74.765625 0 Z M 61.734375 -33.75 L 48.953125 -66.84375 L 35.921875 -33.75 Z M 61.734375 -33.75 "/></g></g></g><g fill="#05386b" fill-opacity="1"><g transform="translate(405.895765, 148.568861)"><g><path d="M 67.234375 0 L 43.578125 -35.140625 L 31.703125 -21.984375 L 31.703125 0 L 8.953125 0 L 8.953125 -89.46875 L 31.703125 -89.46875 L 31.703125 -50.734375 L 65.953125 -89.46875 L 92.28125 -89.46875 L 59.046875 -52.40625 L 94.453125 0 Z M 67.234375 0 "/></g></g></g><g fill="#edf5e1" fill-opacity="1"><g transform="translate(531.290714, 131.821509)"><g><path d="M 74.640625 -68.890625 L 74.640625 -6.265625 C 74.640625 3.453125 71.207031 11.207031 64.34375 17 C 57.488281 22.789062 48.484375 25.6875 37.328125 25.6875 C 25.898438 25.6875 15.671875 22.660156 6.640625 16.609375 L 14.3125 1.65625 C 20.957031 6.257812 28.070312 8.5625 35.65625 8.5625 C 40.9375 8.5625 45.085938 7.28125 48.109375 4.71875 C 51.140625 2.164062 52.65625 -1.28125 52.65625 -5.625 L 52.65625 -12.90625 C 47.96875 -6.769531 41.363281 -3.703125 32.84375 -3.703125 C 24.070312 -3.703125 16.9375 -6.769531 11.4375 -12.90625 C 5.9375 -19.039062 3.1875 -27.09375 3.1875 -37.0625 C 3.1875 -46.78125 5.867188 -54.640625 11.234375 -60.640625 C 16.609375 -66.648438 23.644531 -69.65625 32.34375 -69.65625 C 41.113281 -69.738281 47.882812 -66.671875 52.65625 -60.453125 L 52.65625 -68.890625 Z M 38.34375 -19.6875 C 42.601562 -19.6875 46.050781 -21.238281 48.6875 -24.34375 C 51.332031 -27.457031 52.65625 -31.484375 52.65625 -36.421875 C 52.65625 -41.453125 51.332031 -45.519531 48.6875 -48.625 C 46.050781 -51.738281 42.601562 -53.296875 38.34375 -53.296875 C 34 -53.296875 30.484375 -51.738281 27.796875 -48.625 C 25.109375 -45.519531 23.765625 -41.453125 23.765625 -36.421875 C 23.765625 -31.484375 25.109375 -27.457031 27.796875 -24.34375 C 30.484375 -21.238281 34 -19.6875 38.34375 -19.6875 Z M 38.34375 -19.6875 "/></g></g></g><g fill="#edf5e1" fill-opacity="1"><g transform="translate(606.693268, 131.821509)"><g><path d="M 40.765625 -69.65625 C 52.015625 -69.65625 61.085938 -66.4375 67.984375 -60 C 74.890625 -53.570312 78.34375 -45.070312 78.34375 -34.5 C 78.34375 -23.9375 74.890625 -15.414062 67.984375 -8.9375 C 61.085938 -2.46875 52.015625 0.765625 40.765625 0.765625 C 29.429688 0.765625 20.3125 -2.46875 13.40625 -8.9375 C 6.507812 -15.414062 3.0625 -23.9375 3.0625 -34.5 C 3.0625 -45.070312 6.507812 -53.570312 13.40625 -60 C 20.3125 -66.4375 29.429688 -69.65625 40.765625 -69.65625 Z M 40.765625 -52.140625 C 36.171875 -52.140625 32.445312 -50.476562 29.59375 -47.15625 C 26.738281 -43.832031 25.3125 -39.53125 25.3125 -34.25 C 25.3125 -28.882812 26.738281 -24.5625 29.59375 -21.28125 C 32.445312 -18 36.171875 -16.359375 40.765625 -16.359375 C 45.285156 -16.359375 48.972656 -18 51.828125 -21.28125 C 54.679688 -24.5625 56.109375 -28.882812 56.109375 -34.25 C 56.109375 -39.53125 54.679688 -43.832031 51.828125 -47.15625 C 48.972656 -50.476562 45.285156 -52.140625 40.765625 -52.140625 Z M 40.765625 -52.140625 "/></g></g></g><g fill="#edf5e1" fill-opacity="1"><g transform="translate(680.817802, 131.821509)"><g><path d="M 47.921875 0 L 25.3125 0 L -0.640625 -68.890625 L 22.109375 -68.890625 L 36.9375 -20.1875 L 51.890625 -68.890625 L 73.875 -68.890625 Z M 47.921875 0 "/></g></g></g></svg>