<svg xmlns="http://www.w3.org/2000/svg" xmlns:xlink="http://www.w3.org/1999/xlink" width="1440" zoomAndPan="magnify" viewBox="0 0 1080 374.999991" height="500" preserveAspectRatio="xMidYMid meet" version="1.0"><defs><g/><clipPath id="e41b2fa049"><path d="M 570.039062 67.945312 L 1019 67.945312 L 1019 269.253906 L 570.039062 269.253906 Z M 570.039062 67.945312 " clip-rule="nonzero"/></clipPath><clipPath id="716f9f44cc"><path d="M 695.820312 67.945312 L 1013.003906 67.945312 C 1015.15625 67.945312 1017.140625 69.101562 1018.203125 70.96875 C 1019.269531 72.835938 1019.25 75.132812 1018.15625 76.980469 L 909.644531 260.21875 C 906.328125 265.820312 900.300781 269.253906 893.792969 269.253906 L 576.609375 269.253906 C 574.457031 269.253906 572.472656 268.101562 571.410156 266.230469 C 570.34375 264.363281 570.363281 262.070312 571.460938 260.21875 L 679.96875 76.980469 C 683.285156 71.382812 689.3125 67.945312 695.820312 67.945312 Z M 695.820312 67.945312 " clip-rule="nonzero"/></clipPath></defs><g fill="#000000" fill-opacity="1"><g transform="translate(160.333154, 316.073775)"><g><path d="M 16.4375 -35.984375 C 21.0625 -35.984375 25.226562 -34.757812 28.9375 -32.3125 L 26.4375 -27 C 22.800781 -29.21875 19.316406 -30.328125 15.984375 -30.328125 C 14.171875 -30.328125 12.742188 -30 11.703125 -29.34375 C 10.671875 -28.695312 10.15625 -27.78125 10.15625 -26.59375 C 10.15625 -25.40625 10.628906 -24.394531 11.578125 -23.5625 C 12.535156 -22.726562 13.726562 -22.113281 15.15625 -21.71875 C 16.59375 -21.332031 18.144531 -20.835938 19.8125 -20.234375 C 21.476562 -19.640625 23.023438 -19.007812 24.453125 -18.34375 C 25.878906 -17.6875 27.0625 -16.648438 28 -15.234375 C 28.9375 -13.828125 29.40625 -12.117188 29.40625 -10.109375 C 29.40625 -6.972656 28.15625 -4.46875 25.65625 -2.59375 C 23.15625 -0.726562 19.910156 0.203125 15.921875 0.203125 C 13.203125 0.203125 10.566406 -0.304688 8.015625 -1.328125 C 5.460938 -2.347656 3.234375 -3.726562 1.328125 -5.46875 L 3.9375 -10.671875 C 5.738281 -9.003906 7.71875 -7.71875 9.875 -6.8125 C 12.039062 -5.914062 14.09375 -5.46875 16.03125 -5.46875 C 18.132812 -5.46875 19.773438 -5.847656 20.953125 -6.609375 C 22.128906 -7.378906 22.71875 -8.441406 22.71875 -9.796875 C 22.71875 -11.023438 22.238281 -12.054688 21.28125 -12.890625 C 20.332031 -13.722656 19.140625 -14.332031 17.703125 -14.71875 C 16.273438 -15.113281 14.726562 -15.59375 13.0625 -16.15625 C 11.394531 -16.71875 9.847656 -17.3125 8.421875 -17.9375 C 6.992188 -18.570312 5.800781 -19.585938 4.84375 -20.984375 C 3.894531 -22.378906 3.421875 -24.0625 3.421875 -26.03125 C 3.421875 -29.0625 4.609375 -31.476562 6.984375 -33.28125 C 9.367188 -35.082031 12.519531 -35.984375 16.4375 -35.984375 Z M 16.4375 -35.984375 "/></g></g></g><g fill="#000000" fill-opacity="1"><g transform="translate(197.529814, 316.073775)"><g><path d="M 30.21875 -30.328125 L 10.71875 -30.328125 L 10.71875 -20.671875 L 28.171875 -20.671875 L 28.171875 -15.265625 L 10.71875 -15.265625 L 10.71875 -5.40625 L 30.828125 -5.40625 L 30.828125 0 L 4.703125 0 L 4.703125 -35.734375 L 30.21875 -35.734375 Z M 30.21875 -30.328125 "/></g></g></g><g fill="#000000" fill-opacity="1"><g transform="translate(236.461152, 316.073775)"><g><path d="M 27.765625 -8.0625 L 9.75 -8.0625 L 6.328125 0 L 0.046875 0 L 15.828125 -35.734375 L 22 -35.734375 L 37.625 0 L 31.1875 0 Z M 25.46875 -13.421875 L 18.734375 -29.296875 L 12 -13.421875 Z M 25.46875 -13.421875 "/></g></g></g><g fill="#000000" fill-opacity="1"><g transform="translate(279.576013, 316.073775)"><g><path d="M 27.359375 0 L 20.828125 -10.828125 C 20.484375 -10.785156 19.9375 -10.765625 19.1875 -10.765625 L 10.71875 -10.765625 L 10.71875 0 L 4.703125 0 L 4.703125 -35.734375 L 19.1875 -35.734375 C 23.75 -35.734375 27.289062 -34.671875 29.8125 -32.546875 C 32.332031 -30.421875 33.59375 -27.414062 33.59375 -23.53125 C 33.59375 -20.675781 32.953125 -18.257812 31.671875 -16.28125 C 30.398438 -14.3125 28.570312 -12.863281 26.1875 -11.9375 L 34.203125 0 Z M 10.71875 -16.1875 L 19.1875 -16.1875 C 24.976562 -16.1875 27.875 -18.582031 27.875 -23.375 C 27.875 -28.007812 24.976562 -30.328125 19.1875 -30.328125 L 10.71875 -30.328125 Z M 10.71875 -16.1875 "/></g></g></g><g fill="#000000" fill-opacity="1"><g transform="translate(321.925575, 316.073775)"><g><path d="M 20.515625 -35.890625 C 23.035156 -35.890625 25.492188 -35.398438 27.890625 -34.421875 C 30.296875 -33.453125 32.363281 -32.101562 34.09375 -30.375 L 30.578125 -25.984375 C 29.285156 -27.378906 27.753906 -28.484375 25.984375 -29.296875 C 24.210938 -30.117188 22.425781 -30.53125 20.625 -30.53125 C 17.050781 -30.53125 14.03125 -29.3125 11.5625 -26.875 C 9.09375 -24.4375 7.859375 -21.46875 7.859375 -17.96875 C 7.859375 -14.425781 9.09375 -11.4375 11.5625 -9 C 14.03125 -6.570312 17.050781 -5.359375 20.625 -5.359375 C 24.332031 -5.359375 27.648438 -6.769531 30.578125 -9.59375 L 34.15625 -5.609375 C 32.3125 -3.804688 30.164062 -2.378906 27.71875 -1.328125 C 25.269531 -0.273438 22.800781 0.25 20.3125 0.25 C 15.070312 0.25 10.664062 -1.488281 7.09375 -4.96875 C 3.519531 -8.457031 1.734375 -12.773438 1.734375 -17.921875 C 1.734375 -22.984375 3.546875 -27.242188 7.171875 -30.703125 C 10.796875 -34.160156 15.242188 -35.890625 20.515625 -35.890625 Z M 20.515625 -35.890625 "/></g></g></g><g fill="#000000" fill-opacity="1"><g transform="translate(362.948658, 316.073775)"><g><path d="M 35.6875 0 L 29.65625 0 L 29.65625 -14.796875 L 10.71875 -14.796875 L 10.71875 0 L 4.703125 0 L 4.703125 -35.734375 L 10.71875 -35.734375 L 10.71875 -20.21875 L 29.65625 -20.21875 L 29.65625 -35.734375 L 35.6875 -35.734375 Z M 35.6875 0 "/></g></g></g><g fill="#000000" fill-opacity="1"><g transform="translate(408.767531, 316.073775)"><g><path d="M 5.5625 -6.171875 C 6.414062 -6.171875 7.144531 -5.875 7.75 -5.28125 C 8.363281 -4.6875 8.671875 -3.894531 8.671875 -2.90625 C 8.671875 -1.988281 8.367188 -1.085938 7.765625 -0.203125 L 4.84375 4.1875 L 1.84375 4.1875 L 3.78125 -0.25 C 2.863281 -0.863281 2.40625 -1.75 2.40625 -2.90625 C 2.40625 -3.863281 2.703125 -4.644531 3.296875 -5.25 C 3.890625 -5.863281 4.644531 -6.171875 5.5625 -6.171875 Z M 5.5625 -6.171875 "/></g></g></g><g fill="#000000" fill-opacity="1"><g transform="translate(425.148422, 316.073775)"><g/></g></g><g fill="#000000" fill-opacity="1"><g transform="translate(443.774155, 316.073775)"><g><path d="M 16.4375 -35.984375 C 21.0625 -35.984375 25.226562 -34.757812 28.9375 -32.3125 L 26.4375 -27 C 22.800781 -29.21875 19.316406 -30.328125 15.984375 -30.328125 C 14.171875 -30.328125 12.742188 -30 11.703125 -29.34375 C 10.671875 -28.695312 10.15625 -27.78125 10.15625 -26.59375 C 10.15625 -25.40625 10.628906 -24.394531 11.578125 -23.5625 C 12.535156 -22.726562 13.726562 -22.113281 15.15625 -21.71875 C 16.59375 -21.332031 18.144531 -20.835938 19.8125 -20.234375 C 21.476562 -19.640625 23.023438 -19.007812 24.453125 -18.34375 C 25.878906 -17.6875 27.0625 -16.648438 28 -15.234375 C 28.9375 -13.828125 29.40625 -12.117188 29.40625 -10.109375 C 29.40625 -6.972656 28.15625 -4.46875 25.65625 -2.59375 C 23.15625 -0.726562 19.910156 0.203125 15.921875 0.203125 C 13.203125 0.203125 10.566406 -0.304688 8.015625 -1.328125 C 5.460938 -2.347656 3.234375 -3.726562 1.328125 -5.46875 L 3.9375 -10.671875 C 5.738281 -9.003906 7.71875 -7.71875 9.875 -6.8125 C 12.039062 -5.914062 14.09375 -5.46875 16.03125 -5.46875 C 18.132812 -5.46875 19.773438 -5.847656 20.953125 -6.609375 C 22.128906 -7.378906 22.71875 -8.441406 22.71875 -9.796875 C 22.71875 -11.023438 22.238281 -12.054688 21.28125 -12.890625 C 20.332031 -13.722656 19.140625 -14.332031 17.703125 -14.71875 C 16.273438 -15.113281 14.726562 -15.59375 13.0625 -16.15625 C 11.394531 -16.71875 9.847656 -17.3125 8.421875 -17.9375 C 6.992188 -18.570312 5.800781 -19.585938 4.84375 -20.984375 C 3.894531 -22.378906 3.421875 -24.0625 3.421875 -26.03125 C 3.421875 -29.0625 4.609375 -31.476562 6.984375 -33.28125 C 9.367188 -35.082031 12.519531 -35.984375 16.4375 -35.984375 Z M 16.4375 -35.984375 "/></g></g></g><g fill="#000000" fill-opacity="1"><g transform="translate(480.970812, 316.073775)"><g><path d="M 30.21875 -30.328125 L 10.71875 -30.328125 L 10.71875 -20.671875 L 28.171875 -20.671875 L 28.171875 -15.265625 L 10.71875 -15.265625 L 10.71875 -5.40625 L 30.828125 -5.40625 L 30.828125 0 L 4.703125 0 L 4.703125 -35.734375 L 30.21875 -35.734375 Z M 30.21875 -30.328125 "/></g></g></g><g fill="#000000" fill-opacity="1"><g transform="translate(519.902146, 316.073775)"><g><path d="M 30.21875 -30.328125 L 10.71875 -30.328125 L 10.71875 -20.671875 L 28.171875 -20.671875 L 28.171875 -15.265625 L 10.71875 -15.265625 L 10.71875 -5.40625 L 30.828125 -5.40625 L 30.828125 0 L 4.703125 0 L 4.703125 -35.734375 L 30.21875 -35.734375 Z M 30.21875 -30.328125 "/></g></g></g><g fill="#000000" fill-opacity="1"><g transform="translate(558.833504, 316.073775)"><g><path d="M 5.5625 -6.171875 C 6.414062 -6.171875 7.144531 -5.875 7.75 -5.28125 C 8.363281 -4.6875 8.671875 -3.894531 8.671875 -2.90625 C 8.671875 -1.988281 8.367188 -1.085938 7.765625 -0.203125 L 4.84375 4.1875 L 1.84375 4.1875 L 3.78125 -0.25 C 2.863281 -0.863281 2.40625 -1.75 2.40625 -2.90625 C 2.40625 -3.863281 2.703125 -4.644531 3.296875 -5.25 C 3.890625 -5.863281 4.644531 -6.171875 5.5625 -6.171875 Z M 5.5625 -6.171875 "/></g></g></g><g fill="#000000" fill-opacity="1"><g transform="translate(575.214396, 316.073775)"><g/></g></g><g fill="#000000" fill-opacity="1"><g transform="translate(593.840129, 316.073775)"><g><path d="M 16.4375 -35.984375 C 21.0625 -35.984375 25.226562 -34.757812 28.9375 -32.3125 L 26.4375 -27 C 22.800781 -29.21875 19.316406 -30.328125 15.984375 -30.328125 C 14.171875 -30.328125 12.742188 -30 11.703125 -29.34375 C 10.671875 -28.695312 10.15625 -27.78125 10.15625 -26.59375 C 10.15625 -25.40625 10.628906 -24.394531 11.578125 -23.5625 C 12.535156 -22.726562 13.726562 -22.113281 15.15625 -21.71875 C 16.59375 -21.332031 18.144531 -20.835938 19.8125 -20.234375 C 21.476562 -19.640625 23.023438 -19.007812 24.453125 -18.34375 C 25.878906 -17.6875 27.0625 -16.648438 28 -15.234375 C 28.9375 -13.828125 29.40625 -12.117188 29.40625 -10.109375 C 29.40625 -6.972656 28.15625 -4.46875 25.65625 -2.59375 C 23.15625 -0.726562 19.910156 0.203125 15.921875 0.203125 C 13.203125 0.203125 10.566406 -0.304688 8.015625 -1.328125 C 5.460938 -2.347656 3.234375 -3.726562 1.328125 -5.46875 L 3.9375 -10.671875 C 5.738281 -9.003906 7.71875 -7.71875 9.875 -6.8125 C 12.039062 -5.914062 14.09375 -5.46875 16.03125 -5.46875 C 18.132812 -5.46875 19.773438 -5.847656 20.953125 -6.609375 C 22.128906 -7.378906 22.71875 -8.441406 22.71875 -9.796875 C 22.71875 -11.023438 22.238281 -12.054688 21.28125 -12.890625 C 20.332031 -13.722656 19.140625 -14.332031 17.703125 -14.71875 C 16.273438 -15.113281 14.726562 -15.59375 13.0625 -16.15625 C 11.394531 -16.71875 9.847656 -17.3125 8.421875 -17.9375 C 6.992188 -18.570312 5.800781 -19.585938 4.84375 -20.984375 C 3.894531 -22.378906 3.421875 -24.0625 3.421875 -26.03125 C 3.421875 -29.0625 4.609375 -31.476562 6.984375 -33.28125 C 9.367188 -35.082031 12.519531 -35.984375 16.4375 -35.984375 Z M 16.4375 -35.984375 "/></g></g></g><g fill="#000000" fill-opacity="1"><g transform="translate(631.036785, 316.073775)"><g><path d="M 35.0625 -35.734375 L 35.0625 -14.796875 C 35.0625 -10.140625 33.679688 -6.46875 30.921875 -3.78125 C 28.171875 -1.09375 24.378906 0.25 19.546875 0.25 C 14.710938 0.25 10.910156 -1.09375 8.140625 -3.78125 C 5.367188 -6.46875 3.984375 -10.140625 3.984375 -14.796875 L 3.984375 -35.734375 L 10 -35.734375 L 10 -14.796875 C 10 -11.804688 10.859375 -9.453125 12.578125 -7.734375 C 14.296875 -6.015625 16.640625 -5.15625 19.609375 -5.15625 C 22.523438 -5.15625 24.828125 -6.003906 26.515625 -7.703125 C 28.203125 -9.410156 29.046875 -11.773438 29.046875 -14.796875 L 29.046875 -35.734375 Z M 35.0625 -35.734375 "/></g></g></g><g fill="#000000" fill-opacity="1"><g transform="translate(675.478132, 316.073775)"><g><path d="M 4.703125 -35.734375 L 18.9375 -35.734375 C 23.425781 -35.734375 26.90625 -34.671875 29.375 -32.546875 C 31.84375 -30.421875 33.078125 -27.414062 33.078125 -23.53125 C 33.078125 -19.476562 31.84375 -16.335938 29.375 -14.109375 C 26.90625 -11.878906 23.425781 -10.765625 18.9375 -10.765625 L 10.71875 -10.765625 L 10.71875 0 L 4.703125 0 Z M 10.71875 -30.328125 L 10.71875 -16.1875 L 18.6875 -16.1875 C 24.4375 -16.1875 27.3125 -18.582031 27.3125 -23.375 C 27.3125 -28.007812 24.4375 -30.328125 18.6875 -30.328125 Z M 10.71875 -30.328125 "/></g></g></g><g fill="#000000" fill-opacity="1"><g transform="translate(715.276782, 316.073775)"><g><path d="M 4.703125 -35.734375 L 18.9375 -35.734375 C 23.425781 -35.734375 26.90625 -34.671875 29.375 -32.546875 C 31.84375 -30.421875 33.078125 -27.414062 33.078125 -23.53125 C 33.078125 -19.476562 31.84375 -16.335938 29.375 -14.109375 C 26.90625 -11.878906 23.425781 -10.765625 18.9375 -10.765625 L 10.71875 -10.765625 L 10.71875 0 L 4.703125 0 Z M 10.71875 -30.328125 L 10.71875 -16.1875 L 18.6875 -16.1875 C 24.4375 -16.1875 27.3125 -18.582031 27.3125 -23.375 C 27.3125 -28.007812 24.4375 -30.328125 18.6875 -30.328125 Z M 10.71875 -30.328125 "/></g></g></g><g fill="#000000" fill-opacity="1"><g transform="translate(755.075433, 316.073775)"><g><path d="M 7.1875 -30.703125 C 10.832031 -34.160156 15.328125 -35.890625 20.671875 -35.890625 C 26.015625 -35.890625 30.503906 -34.160156 34.140625 -30.703125 C 37.785156 -27.242188 39.609375 -22.960938 39.609375 -17.859375 C 39.609375 -12.753906 37.785156 -8.457031 34.140625 -4.96875 C 30.503906 -1.488281 26.015625 0.25 20.671875 0.25 C 15.328125 0.25 10.832031 -1.488281 7.1875 -4.96875 C 3.550781 -8.457031 1.734375 -12.753906 1.734375 -17.859375 C 1.734375 -22.960938 3.550781 -27.242188 7.1875 -30.703125 Z M 20.71875 -30.46875 C 17.1875 -30.46875 14.160156 -29.25 11.640625 -26.8125 C 9.117188 -24.382812 7.859375 -21.398438 7.859375 -17.859375 C 7.859375 -14.328125 9.125 -11.328125 11.65625 -8.859375 C 14.195312 -6.390625 17.21875 -5.15625 20.71875 -5.15625 C 24.226562 -5.15625 27.222656 -6.390625 29.703125 -8.859375 C 32.191406 -11.328125 33.4375 -14.328125 33.4375 -17.859375 C 33.4375 -21.398438 32.191406 -24.382812 29.703125 -26.8125 C 27.222656 -29.25 24.226562 -30.46875 20.71875 -30.46875 Z M 20.71875 -30.46875 "/></g></g></g><g fill="#000000" fill-opacity="1"><g transform="translate(801.863691, 316.073775)"><g><path d="M 27.359375 0 L 20.828125 -10.828125 C 20.484375 -10.785156 19.9375 -10.765625 19.1875 -10.765625 L 10.71875 -10.765625 L 10.71875 0 L 4.703125 0 L 4.703125 -35.734375 L 19.1875 -35.734375 C 23.75 -35.734375 27.289062 -34.671875 29.8125 -32.546875 C 32.332031 -30.421875 33.59375 -27.414062 33.59375 -23.53125 C 33.59375 -20.675781 32.953125 -18.257812 31.671875 -16.28125 C 30.398438 -14.3125 28.570312 -12.863281 26.1875 -11.9375 L 34.203125 0 Z M 10.71875 -16.1875 L 19.1875 -16.1875 C 24.976562 -16.1875 27.875 -18.582031 27.875 -23.375 C 27.875 -28.007812 24.976562 -30.328125 19.1875 -30.328125 L 10.71875 -30.328125 Z M 10.71875 -16.1875 "/></g></g></g><g fill="#000000" fill-opacity="1"><g transform="translate(844.213253, 316.073775)"><g><path d="M 29.09375 -30.328125 L 17.765625 -30.328125 L 17.765625 0 L 11.734375 0 L 11.734375 -30.328125 L 0.453125 -30.328125 L 0.453125 -35.734375 L 29.09375 -35.734375 Z M 29.09375 -30.328125 "/></g></g></g><g clip-path="url(#e41b2fa049)"><g clip-path="url(#716f9f44cc)"><path fill="#05386b" d="M 566.109375 67.945312 L 1023.765625 67.945312 L 1023.765625 269.253906 L 566.109375 269.253906 Z M 566.109375 67.945312 " fill-opacity="1" fill-rule="nonzero"/></g></g><g fill="#05386b" fill-opacity="1"><g transform="translate(56.495404, 235.344712)"><g><path d="M 11.875 -118.671875 L 63.578125 -118.671875 C 78.722656 -118.671875 90.472656 -115.082031 98.828125 -107.90625 C 107.191406 -100.726562 111.375 -90.53125 111.375 -77.3125 C 111.375 -63.40625 107.191406 -52.609375 98.828125 -44.921875 C 90.472656 -37.234375 78.722656 -33.390625 63.578125 -33.390625 L 42.046875 -33.390625 L 42.046875 0 L 11.875 0 Z M 42.046875 -94.9375 L 42.046875 -57.125 L 62.046875 -57.125 C 68.710938 -57.125 73.851562 -58.765625 77.46875 -62.046875 C 81.09375 -65.328125 82.90625 -70.078125 82.90625 -76.296875 C 82.90625 -82.390625 81.09375 -87.019531 77.46875 -90.1875 C 73.851562 -93.351562 68.710938 -94.9375 62.046875 -94.9375 Z M 42.046875 -94.9375 "/></g></g></g><g fill="#05386b" fill-opacity="1"><g transform="translate(162.109937, 235.344712)"><g><path d="M 104.765625 -94.9375 L 42.046875 -94.9375 L 42.046875 -71.375 L 98.671875 -71.375 L 98.671875 -47.640625 L 42.046875 -47.640625 L 42.046875 -23.734375 L 106.640625 -23.734375 L 106.640625 0 L 11.875 0 L 11.875 -118.671875 L 104.765625 -118.671875 Z M 104.765625 -94.9375 "/></g></g></g><g fill="#05386b" fill-opacity="1"><g transform="translate(266.707328, 235.344712)"><g><path d="M 102.5625 -94.421875 L 66.796875 -94.421875 L 66.796875 0 L 36.625 0 L 36.625 -94.421875 L 1.1875 -94.421875 L 1.1875 -118.84375 L 102.5625 -118.84375 Z M 102.5625 -94.421875 "/></g></g></g><g fill="#05386b" fill-opacity="1"><g transform="translate(360.624492, 235.344712)"><g><path d="M 90.703125 -21.875 L 38.828125 -21.875 L 30.171875 0 L -0.84375 0 L 50.34375 -118.671875 L 81.375 -118.671875 L 131.390625 0 L 99.171875 0 Z M 81.890625 -44.75 L 64.9375 -88.671875 L 47.640625 -44.75 Z M 81.890625 -44.75 "/></g></g></g><g fill="#05386b" fill-opacity="1"><g transform="translate(481.496513, 235.344712)"><g><path d="M 89.171875 0 L 57.8125 -46.625 L 42.046875 -29.15625 L 42.046875 0 L 11.875 0 L 11.875 -118.671875 L 42.046875 -118.671875 L 42.046875 -67.296875 L 87.484375 -118.671875 L 122.40625 -118.671875 L 78.328125 -69.515625 L 125.28125 0 Z M 89.171875 0 "/></g></g></g><g fill="#edf5e1" fill-opacity="1"><g transform="translate(647.830698, 213.129596)"><g><path d="M 99 -91.375 L 99 -8.3125 C 99 4.570312 94.453125 14.859375 85.359375 22.546875 C 76.265625 30.234375 64.3125 34.078125 49.5 34.078125 C 34.351562 34.078125 20.789062 30.066406 8.8125 22.046875 L 18.984375 2.203125 C 27.804688 8.304688 37.242188 11.359375 47.296875 11.359375 C 54.304688 11.359375 59.816406 9.660156 63.828125 6.265625 C 67.835938 2.878906 69.84375 -1.691406 69.84375 -7.453125 L 69.84375 -17.125 C 63.625 -8.988281 54.863281 -4.921875 43.5625 -4.921875 C 31.925781 -4.921875 22.460938 -8.988281 15.171875 -17.125 C 7.878906 -25.257812 4.234375 -35.941406 4.234375 -49.171875 C 4.234375 -62.046875 7.789062 -72.46875 14.90625 -80.4375 C 22.03125 -88.40625 31.359375 -92.390625 42.890625 -92.390625 C 54.535156 -92.503906 63.519531 -88.4375 69.84375 -80.1875 L 69.84375 -91.375 Z M 50.859375 -26.109375 C 56.515625 -26.109375 61.09375 -28.171875 64.59375 -32.296875 C 68.09375 -36.421875 69.84375 -41.757812 69.84375 -48.3125 C 69.84375 -54.976562 68.09375 -60.375 64.59375 -64.5 C 61.09375 -68.625 56.515625 -70.6875 50.859375 -70.6875 C 45.097656 -70.6875 40.4375 -68.625 36.875 -64.5 C 33.3125 -60.375 31.53125 -54.976562 31.53125 -48.3125 C 31.53125 -41.757812 33.3125 -36.421875 36.875 -32.296875 C 40.4375 -28.171875 45.097656 -26.109375 50.859375 -26.109375 Z M 50.859375 -26.109375 "/></g></g></g><g fill="#edf5e1" fill-opacity="1"><g transform="translate(747.850821, 213.129596)"><g><path d="M 54.078125 -92.390625 C 68.992188 -92.390625 81.03125 -88.125 90.1875 -79.59375 C 99.34375 -71.0625 103.921875 -59.785156 103.921875 -45.765625 C 103.921875 -31.753906 99.34375 -20.453125 90.1875 -11.859375 C 81.03125 -3.273438 68.992188 1.015625 54.078125 1.015625 C 39.046875 1.015625 26.953125 -3.273438 17.796875 -11.859375 C 8.640625 -20.453125 4.0625 -31.753906 4.0625 -45.765625 C 4.0625 -59.785156 8.640625 -71.0625 17.796875 -79.59375 C 26.953125 -88.125 39.046875 -92.390625 54.078125 -92.390625 Z M 54.078125 -69.171875 C 47.972656 -69.171875 43.023438 -66.96875 39.234375 -62.5625 C 35.453125 -58.15625 33.5625 -52.445312 33.5625 -45.4375 C 33.5625 -38.3125 35.453125 -32.570312 39.234375 -28.21875 C 43.023438 -23.875 47.972656 -21.703125 54.078125 -21.703125 C 60.066406 -21.703125 64.953125 -23.875 68.734375 -28.21875 C 72.523438 -32.570312 74.421875 -38.3125 74.421875 -45.4375 C 74.421875 -52.445312 72.523438 -58.15625 68.734375 -62.5625 C 64.953125 -66.96875 60.066406 -69.171875 54.078125 -69.171875 Z M 54.078125 -69.171875 "/></g></g></g><g fill="#edf5e1" fill-opacity="1"><g transform="translate(846.175673, 213.129596)"><g><path d="M 63.578125 0 L 33.5625 0 L -0.84375 -91.375 L 29.328125 -91.375 L 49 -26.78125 L 68.828125 -91.375 L 97.984375 -91.375 Z M 63.578125 0 "/></g></g></g></svg>