<svg xmlns="http://www.w3.org/2000/svg" xmlns:xlink="http://www.w3.org/1999/xlink" width="1200" zoomAndPan="magnify" viewBox="0 0 900 225" height="300" preserveAspectRatio="xMidYMid meet" version="1.0"><defs><g/><clipPath id="eff90c8798"><path d="M 477.117188 33.746094 L 871 33.746094 L 871 210.816406 L 477.117188 210.816406 Z M 477.117188 33.746094 " clip-rule="nonzero"/></clipPath><clipPath id="8bf91db38f"><path d="M 588.324219 33.746094 L 864.792969 33.746094 C 866.941406 33.746094 868.925781 34.902344 869.992188 36.769531 C 871.058594 38.636719 871.039062 40.933594 869.941406 42.78125 L 775.785156 201.78125 C 772.46875 207.382812 766.441406 210.816406 759.933594 210.816406 L 483.464844 210.816406 C 481.316406 210.816406 479.332031 209.664062 478.265625 207.796875 C 477.203125 205.929688 477.21875 203.632812 478.316406 201.78125 L 572.472656 42.78125 C 575.789062 37.179688 581.816406 33.746094 588.324219 33.746094 Z M 588.324219 33.746094 " clip-rule="nonzero"/></clipPath></defs><rect x="-90" width="1080" fill="#ffffff" y="-22.5" height="270" fill-opacity="1"/><rect x="-90" width="1080" fill="#ffffff" y="-22.5" height="270" fill-opacity="1"/><g clip-path="url(#eff90c8798)"><g clip-path="url(#8bf91db38f)"><path fill="#05386b" d="M 472.964844 33.746094 L 875.523438 33.746094 L 875.523438 210.816406 L 472.964844 210.816406 Z M 472.964844 33.746094 " fill-opacity="1" fill-rule="nonzero"/></g></g><g fill="#05386b" fill-opacity="1"><g transform="translate(24.707412, 180.990842)"><g><path d="M 10.4375 -104.390625 L 55.921875 -104.390625 C 69.242188 -104.390625 79.582031 -101.234375 86.9375 -94.921875 C 94.289062 -88.609375 97.96875 -79.632812 97.96875 -68 C 97.96875 -55.769531 94.289062 -46.273438 86.9375 -39.515625 C 79.582031 -32.753906 69.242188 -29.375 55.921875 -29.375 L 36.984375 -29.375 L 36.984375 0 L 10.4375 0 Z M 36.984375 -83.515625 L 36.984375 -50.25 L 54.578125 -50.25 C 60.441406 -50.25 64.960938 -51.691406 68.140625 -54.578125 C 71.328125 -57.460938 72.921875 -61.640625 72.921875 -67.109375 C 72.921875 -72.472656 71.328125 -76.546875 68.140625 -79.328125 C 64.960938 -82.117188 60.441406 -83.515625 54.578125 -83.515625 Z M 36.984375 -83.515625 "/></g></g></g><g fill="#05386b" fill-opacity="1"><g transform="translate(117.606385, 180.990842)"><g><path d="M 92.15625 -83.515625 L 36.984375 -83.515625 L 36.984375 -62.78125 L 86.796875 -62.78125 L 86.796875 -41.90625 L 36.984375 -41.90625 L 36.984375 -20.875 L 93.796875 -20.875 L 93.796875 0 L 10.4375 0 L 10.4375 -104.390625 L 92.15625 -104.390625 Z M 92.15625 -83.515625 "/></g></g></g><g fill="#05386b" fill-opacity="1"><g transform="translate(209.610676, 180.990842)"><g><path d="M 90.21875 -83.0625 L 58.75 -83.0625 L 58.75 0 L 32.21875 0 L 32.21875 -83.0625 L 1.046875 -83.0625 L 1.046875 -104.53125 L 90.21875 -104.53125 Z M 90.21875 -83.0625 "/></g></g></g><g fill="#05386b" fill-opacity="1"><g transform="translate(292.220596, 180.990842)"><g><path d="M 79.78125 -19.234375 L 34.15625 -19.234375 L 26.546875 0 L -0.75 0 L 44.296875 -104.390625 L 71.578125 -104.390625 L 115.578125 0 L 87.234375 0 Z M 72.03125 -39.375 L 57.109375 -78 L 41.90625 -39.375 Z M 72.03125 -39.375 "/></g></g></g><g fill="#05386b" fill-opacity="1"><g transform="translate(398.540118, 180.990842)"><g><path d="M 78.4375 0 L 50.859375 -41.015625 L 36.984375 -25.65625 L 36.984375 0 L 10.4375 0 L 10.4375 -104.390625 L 36.984375 -104.390625 L 36.984375 -59.203125 L 76.953125 -104.390625 L 107.671875 -104.390625 L 68.890625 -61.140625 L 110.203125 0 Z M 78.4375 0 "/></g></g></g><g fill="#edf5e1" fill-opacity="1"><g transform="translate(544.848313, 161.450377)"><g><path d="M 87.09375 -80.375 L 87.09375 -7.3125 C 87.09375 4.019531 83.085938 13.066406 75.078125 19.828125 C 67.078125 26.585938 56.566406 29.96875 43.546875 29.96875 C 30.222656 29.96875 18.289062 26.441406 7.75 19.390625 L 16.703125 1.9375 C 24.453125 7.300781 32.753906 9.984375 41.609375 9.984375 C 47.773438 9.984375 52.617188 8.492188 56.140625 5.515625 C 59.671875 2.535156 61.4375 -1.488281 61.4375 -6.5625 L 61.4375 -15.0625 C 55.96875 -7.90625 48.265625 -4.328125 38.328125 -4.328125 C 28.085938 -4.328125 19.757812 -7.90625 13.34375 -15.0625 C 6.9375 -22.21875 3.734375 -31.613281 3.734375 -43.25 C 3.734375 -54.582031 6.863281 -63.75 13.125 -70.75 C 19.382812 -77.757812 27.585938 -81.265625 37.734375 -81.265625 C 47.972656 -81.367188 55.875 -77.789062 61.4375 -70.53125 L 61.4375 -80.375 Z M 44.734375 -22.96875 C 49.703125 -22.96875 53.726562 -24.78125 56.8125 -28.40625 C 59.894531 -32.03125 61.4375 -36.726562 61.4375 -42.5 C 61.4375 -48.363281 59.894531 -53.109375 56.8125 -56.734375 C 53.726562 -60.367188 49.703125 -62.1875 44.734375 -62.1875 C 39.660156 -62.1875 35.554688 -60.367188 32.421875 -56.734375 C 29.296875 -53.109375 27.734375 -48.363281 27.734375 -42.5 C 27.734375 -36.726562 29.296875 -32.03125 32.421875 -28.40625 C 35.554688 -24.78125 39.660156 -22.96875 44.734375 -22.96875 Z M 44.734375 -22.96875 "/></g></g></g><g fill="#edf5e1" fill-opacity="1"><g transform="translate(632.826421, 161.450377)"><g><path d="M 47.578125 -81.265625 C 60.691406 -81.265625 71.273438 -77.507812 79.328125 -70 C 87.378906 -62.5 91.40625 -52.582031 91.40625 -40.25 C 91.40625 -27.925781 87.378906 -17.988281 79.328125 -10.4375 C 71.273438 -2.882812 60.691406 0.890625 47.578125 0.890625 C 34.347656 0.890625 23.707031 -2.882812 15.65625 -10.4375 C 7.601562 -17.988281 3.578125 -27.925781 3.578125 -40.25 C 3.578125 -52.582031 7.601562 -62.5 15.65625 -70 C 23.707031 -77.507812 34.347656 -81.265625 47.578125 -81.265625 Z M 47.578125 -60.84375 C 42.203125 -60.84375 37.847656 -58.90625 34.515625 -55.03125 C 31.191406 -51.15625 29.53125 -46.132812 29.53125 -39.96875 C 29.53125 -33.707031 31.191406 -28.660156 34.515625 -24.828125 C 37.847656 -21.003906 42.203125 -19.09375 47.578125 -19.09375 C 52.835938 -19.09375 57.132812 -21.003906 60.46875 -24.828125 C 63.800781 -28.660156 65.46875 -33.707031 65.46875 -39.96875 C 65.46875 -46.132812 63.800781 -51.15625 60.46875 -55.03125 C 57.132812 -58.90625 52.835938 -60.84375 47.578125 -60.84375 Z M 47.578125 -60.84375 "/></g></g></g><g fill="#edf5e1" fill-opacity="1"><g transform="translate(719.31336, 161.450377)"><g><path d="M 55.921875 0 L 29.53125 0 L -0.75 -80.375 L 25.796875 -80.375 L 43.09375 -23.5625 L 60.546875 -80.375 L 86.1875 -80.375 Z M 55.921875 0 "/></g></g></g></svg>