<svg xmlns="http://www.w3.org/2000/svg" xmlns:xlink="http://www.w3.org/1999/xlink" width="1440" zoomAndPan="magnify" viewBox="0 0 1080 374.999991" height="500" preserveAspectRatio="xMidYMid meet" version="1.0"><defs><g/><clipPath id="1bf4df2378"><path d="M 571 95.433594 L 1033 95.433594 L 1033 302.4375 L 571 302.4375 Z M 571 95.433594 " clip-rule="nonzero"/></clipPath><clipPath id="b1a58d0571"><path d="M 699.933594 95.433594 L 1026.6875 95.433594 C 1028.839844 95.433594 1030.824219 96.585938 1031.886719 98.453125 C 1032.953125 100.324219 1032.933594 102.617188 1031.839844 104.46875 L 919.953125 293.402344 C 916.636719 299.003906 910.613281 302.4375 904.105469 302.4375 L 577.347656 302.4375 C 575.199219 302.4375 573.214844 301.285156 572.148438 299.417969 C 571.082031 297.546875 571.101562 295.253906 572.199219 293.402344 L 684.082031 104.46875 C 687.398438 98.867188 693.425781 95.433594 699.933594 95.433594 Z M 699.933594 95.433594 " clip-rule="nonzero"/></clipPath></defs><g clip-path="url(#1bf4df2378)"><g clip-path="url(#b1a58d0571)"><path fill="#05386b" d="M 566.847656 95.433594 L 1037.457031 95.433594 L 1037.457031 302.4375 L 566.847656 302.4375 Z M 566.847656 95.433594 " fill-opacity="1" fill-rule="nonzero"/></g></g><g fill="#05386b" fill-opacity="1"><g transform="translate(42.811201, 267.569271)"><g><path d="M 12.203125 -122.03125 L 65.375 -122.03125 C 80.945312 -122.03125 93.03125 -118.335938 101.625 -110.953125 C 110.226562 -103.578125 114.53125 -93.09375 114.53125 -79.5 C 114.53125 -65.195312 110.226562 -54.09375 101.625 -46.1875 C 93.03125 -38.289062 80.945312 -34.34375 65.375 -34.34375 L 43.234375 -34.34375 L 43.234375 0 L 12.203125 0 Z M 43.234375 -97.625 L 43.234375 -58.75 L 63.796875 -58.75 C 70.660156 -58.75 75.953125 -60.429688 79.671875 -63.796875 C 83.390625 -67.171875 85.25 -72.054688 85.25 -78.453125 C 85.25 -84.722656 83.390625 -89.484375 79.671875 -92.734375 C 75.953125 -95.992188 70.660156 -97.625 63.796875 -97.625 Z M 43.234375 -97.625 "/></g></g></g><g fill="#05386b" fill-opacity="1"><g transform="translate(151.414851, 267.569271)"><g><path d="M 107.734375 -97.625 L 43.234375 -97.625 L 43.234375 -73.390625 L 101.453125 -73.390625 L 101.453125 -48.984375 L 43.234375 -48.984375 L 43.234375 -24.40625 L 109.65625 -24.40625 L 109.65625 0 L 12.203125 0 L 12.203125 -122.03125 L 107.734375 -122.03125 Z M 107.734375 -97.625 "/></g></g></g><g fill="#05386b" fill-opacity="1"><g transform="translate(258.972573, 267.569271)"><g><path d="M 105.46875 -97.09375 L 68.6875 -97.09375 L 68.6875 0 L 37.65625 0 L 37.65625 -97.09375 L 1.21875 -97.09375 L 1.21875 -122.203125 L 105.46875 -122.203125 Z M 105.46875 -97.09375 "/></g></g></g><g fill="#05386b" fill-opacity="1"><g transform="translate(355.547794, 267.569271)"><g><path d="M 93.265625 -22.484375 L 39.921875 -22.484375 L 31.03125 0 L -0.875 0 L 51.78125 -122.03125 L 83.671875 -122.03125 L 135.109375 0 L 101.984375 0 Z M 84.203125 -46.015625 L 66.765625 -91.171875 L 48.984375 -46.015625 Z M 84.203125 -46.015625 "/></g></g></g><g fill="#05386b" fill-opacity="1"><g transform="translate(479.840753, 267.569271)"><g><path d="M 91.703125 0 L 59.453125 -47.9375 L 43.234375 -29.984375 L 43.234375 0 L 12.203125 0 L 12.203125 -122.03125 L 43.234375 -122.03125 L 43.234375 -69.203125 L 89.953125 -122.03125 L 125.859375 -122.03125 L 80.546875 -71.46875 L 128.828125 0 Z M 91.703125 0 "/></g></g></g><g fill="#edf5e1" fill-opacity="1"><g transform="translate(650.88249, 244.72547)"><g><path d="M 101.8125 -93.96875 L 101.8125 -8.546875 C 101.8125 4.703125 97.128906 15.28125 87.765625 23.1875 C 78.410156 31.09375 66.125 35.046875 50.90625 35.046875 C 35.332031 35.046875 21.382812 30.914062 9.0625 22.65625 L 19.53125 2.265625 C 28.59375 8.546875 38.296875 11.6875 48.640625 11.6875 C 55.847656 11.6875 61.515625 9.941406 65.640625 6.453125 C 69.765625 2.960938 71.828125 -1.742188 71.828125 -7.671875 L 71.828125 -17.609375 C 65.429688 -9.242188 56.421875 -5.0625 44.796875 -5.0625 C 32.828125 -5.0625 23.09375 -9.242188 15.59375 -17.609375 C 8.101562 -25.972656 4.359375 -36.957031 4.359375 -50.5625 C 4.359375 -63.800781 8.019531 -74.519531 15.34375 -82.71875 C 22.664062 -90.914062 32.253906 -95.015625 44.109375 -95.015625 C 56.078125 -95.128906 65.316406 -90.941406 71.828125 -82.453125 L 71.828125 -93.96875 Z M 52.296875 -26.84375 C 58.109375 -26.84375 62.816406 -28.960938 66.421875 -33.203125 C 70.023438 -37.453125 71.828125 -42.945312 71.828125 -49.6875 C 71.828125 -56.539062 70.023438 -62.085938 66.421875 -66.328125 C 62.816406 -70.566406 58.109375 -72.6875 52.296875 -72.6875 C 46.367188 -72.6875 41.570312 -70.566406 37.90625 -66.328125 C 34.25 -62.085938 32.421875 -56.539062 32.421875 -49.6875 C 32.421875 -42.945312 34.25 -37.453125 37.90625 -33.203125 C 41.570312 -28.960938 46.367188 -26.84375 52.296875 -26.84375 Z M 52.296875 -26.84375 "/></g></g></g><g fill="#edf5e1" fill-opacity="1"><g transform="translate(753.733397, 244.72547)"><g><path d="M 55.609375 -95.015625 C 70.953125 -95.015625 83.328125 -90.625 92.734375 -81.84375 C 102.148438 -73.070312 106.859375 -61.476562 106.859375 -47.0625 C 106.859375 -32.65625 102.148438 -21.035156 92.734375 -12.203125 C 83.328125 -3.367188 70.953125 1.046875 55.609375 1.046875 C 40.148438 1.046875 27.710938 -3.367188 18.296875 -12.203125 C 8.890625 -21.035156 4.1875 -32.65625 4.1875 -47.0625 C 4.1875 -61.476562 8.890625 -73.070312 18.296875 -81.84375 C 27.710938 -90.625 40.148438 -95.015625 55.609375 -95.015625 Z M 55.609375 -71.125 C 49.335938 -71.125 44.253906 -68.859375 40.359375 -64.328125 C 36.460938 -59.796875 34.515625 -53.925781 34.515625 -46.71875 C 34.515625 -39.394531 36.460938 -33.492188 40.359375 -29.015625 C 44.253906 -24.546875 49.335938 -22.3125 55.609375 -22.3125 C 61.765625 -22.3125 66.789062 -24.546875 70.6875 -29.015625 C 74.582031 -33.492188 76.53125 -39.394531 76.53125 -46.71875 C 76.53125 -53.925781 74.582031 -59.796875 70.6875 -64.328125 C 66.789062 -68.859375 61.765625 -71.125 55.609375 -71.125 Z M 55.609375 -71.125 "/></g></g></g><g fill="#edf5e1" fill-opacity="1"><g transform="translate(854.841053, 244.72547)"><g><path d="M 65.375 0 L 34.515625 0 L -0.875 -93.96875 L 30.15625 -93.96875 L 50.375 -27.546875 L 70.78125 -93.96875 L 100.765625 -93.96875 Z M 65.375 0 "/></g></g></g></svg>